<svg width="50" height="50" viewBox="0 0 50 50" fill="none" xmlns="http://www.w3.org/2000/svg">
<path d="M24.8187 26.9414C24.8705 26.9414 24.9222 26.9414 24.9844 26.9414C25.0051 26.9414 25.0258 26.9414 25.0465 26.9414C25.0776 26.9414 25.119 26.9414 25.15 26.9414C28.1838 26.8896 30.6377 25.8232 32.4497 23.7834C36.436 19.2897 35.7733 11.5863 35.7009 10.8511C35.442 5.33237 32.8328 2.69207 30.6791 1.45993C29.0742 0.538414 27.2001 0.0414164 25.1086 0H25.0361C25.0258 0 25.0051 0 24.9947 0H24.9326C23.7833 0 21.5261 0.186374 19.3621 1.41851C17.1877 2.65065 14.5371 5.29095 14.2782 10.8511C14.2057 11.5863 13.5431 19.2897 17.5294 23.7834C19.331 25.8232 21.7849 26.8896 24.8187 26.9414ZM17.0428 11.11C17.0428 11.0789 17.0531 11.0478 17.0531 11.0271C17.3948 3.60323 22.665 2.80596 24.9222 2.80596H24.9637C24.9844 2.80596 25.0154 2.80596 25.0465 2.80596C27.8421 2.86809 32.5946 4.00704 32.9156 11.0271C32.9156 11.0582 32.9156 11.0893 32.926 11.11C32.9363 11.1824 33.6611 18.2232 30.3685 21.93C29.0639 23.4003 27.3244 24.1251 25.0361 24.1458C25.0154 24.1458 25.0051 24.1458 24.9844 24.1458C24.9637 24.1458 24.9533 24.1458 24.9326 24.1458C22.6547 24.1251 20.9048 23.4003 19.6106 21.93C16.3283 18.2439 17.0324 11.1721 17.0428 11.11Z" fill="#D4251F"/>
<path d="M46.2621 39.7182C46.2621 39.7079 46.2621 39.6975 46.2621 39.6872C46.2621 39.6043 46.2518 39.5215 46.2518 39.4283C46.1897 37.3782 46.0551 32.5842 41.5614 31.0518C41.5303 31.0415 41.4889 31.0311 41.4578 31.0208C36.7881 29.8301 32.9053 27.138 32.8639 27.1069C32.2323 26.6617 31.3626 26.817 30.9173 27.4486C30.4721 28.0802 30.6274 28.95 31.259 29.3952C31.4351 29.5194 35.556 32.3875 40.7123 33.7128C43.1248 34.5722 43.394 37.1504 43.4665 39.5111C43.4665 39.6043 43.4665 39.6872 43.4769 39.77C43.4872 40.7019 43.4251 42.1411 43.2594 42.9694C41.5821 43.922 35.0072 47.2146 25.0051 47.2146C15.0445 47.2146 8.42822 43.9116 6.7405 42.9591C6.57483 42.1307 6.50235 40.6915 6.52306 39.7596C6.52306 39.6768 6.53341 39.594 6.53341 39.5008C6.60589 37.1401 6.8751 34.5619 9.28761 33.7025C14.444 32.3772 18.5649 29.4987 18.7409 29.3848C19.3725 28.9396 19.5278 28.0699 19.0826 27.4383C18.6374 26.8067 17.7676 26.6513 17.136 27.0966C17.0946 27.1276 13.2325 29.8197 8.54211 31.0104C8.50069 31.0208 8.46963 31.0311 8.43857 31.0415C3.94489 32.5842 3.81028 37.3782 3.74816 39.418C3.74816 39.5111 3.74816 39.594 3.7378 39.6768C3.7378 39.6872 3.7378 39.6975 3.7378 39.7079C3.72745 40.2463 3.7171 43.0108 4.26586 44.3983C4.3694 44.6675 4.55578 44.8953 4.80428 45.0506C5.1149 45.2577 12.5595 49.9999 25.0155 49.9999C37.4715 49.9999 44.9161 45.2473 45.2267 45.0506C45.4649 44.8953 45.6616 44.6675 45.7651 44.3983C46.2828 43.0212 46.2725 40.2566 46.2621 39.7182Z" fill="#D4251F"/>
</svg>
