<svg width="50" height="50" viewBox="0 0 50 50" fill="none" xmlns="http://www.w3.org/2000/svg">
<g clip-path="url(#clip0)">
<path d="M49.1674 41.6663H47.5008V40.8329C47.4964 39.7773 46.8294 38.8381 45.8341 38.4863V21.513C46.8294 21.1611 47.4964 20.222 47.5008 19.1664V18.333C48.8815 18.333 50.0008 17.2138 50.0008 15.833C50.0008 14.4523 48.8815 13.333 47.5008 13.333H46.9033L25.4375 0.123105C25.1697 -0.041686 24.832 -0.041686 24.5642 0.123105L3.09846 13.333H2.50097C1.12024 13.333 0.000976562 14.4523 0.000976562 15.833C0.000976562 17.2138 1.12024 18.333 2.50097 18.333V19.1664C2.50534 20.222 3.17232 21.1611 4.16763 21.513V38.4863C3.17232 38.8381 2.50534 39.7773 2.50097 40.8329V41.6663H0.834306C0.3741 41.6663 0.000976562 42.0394 0.000976562 42.4996V49.1662C0.000976562 49.6264 0.3741 49.9996 0.834306 49.9996H49.1674C49.6276 49.9996 50.0008 49.6264 50.0008 49.1662V42.4996C50.0008 42.0394 49.6276 41.6663 49.1674 41.6663ZM45.8341 19.1664C45.8341 19.6266 45.461 19.9997 45.0008 19.9997H41.6675C41.2073 19.9997 40.8341 19.6266 40.8341 19.1664V18.333H45.8341V19.1664ZM45.0008 39.9996C45.461 39.9996 45.8341 40.3727 45.8341 40.8329V41.6663H40.8341V40.8329C40.8341 40.3727 41.2073 39.9996 41.6675 39.9996H45.0008ZM42.5008 38.3329V21.6663H44.1675V38.3329H42.5008ZM2.50097 16.6664C2.04076 16.6664 1.66764 16.2932 1.66764 15.833C1.66764 15.3728 2.04076 14.9997 2.50097 14.9997H8.33428V13.333H6.27845L25.0009 1.81143L43.7233 13.333H13.3343V14.9997H47.5008C47.961 14.9997 48.3341 15.3728 48.3341 15.833C48.3341 16.2932 47.961 16.6664 47.5008 16.6664H2.50097ZM19.1676 38.4863V21.513C20.1629 21.1611 20.8298 20.222 20.8342 19.1664V18.333H29.1675V19.1664C29.1719 20.222 29.8389 21.1611 30.8342 21.513V38.4863C29.8389 38.8381 29.1719 39.7773 29.1675 40.8329V41.6663H20.8342V40.8329C20.8298 39.7773 20.1629 38.8381 19.1676 38.4863ZM18.3342 39.9996C18.7944 39.9996 19.1676 40.3727 19.1676 40.8329V41.6663H14.1676V40.8329C14.1676 40.3727 14.5407 39.9996 15.0009 39.9996H18.3342ZM15.8342 38.3329V21.6663H17.5009V38.3329H15.8342ZM18.3342 19.9997H15.0009C14.5407 19.9997 14.1676 19.6266 14.1676 19.1664V18.333H19.1676V19.1664C19.1676 19.6267 18.7944 19.9997 18.3342 19.9997ZM30.8342 40.8329C30.8342 40.3727 31.2073 39.9996 31.6675 39.9996H35.0008C35.461 39.9996 35.8342 40.3727 35.8342 40.8329V41.6663H30.8342V40.8329ZM32.5008 38.3329V21.6663H34.1675V38.3329H32.5008ZM35.0008 19.9997H31.6675C31.2073 19.9997 30.8342 19.6266 30.8342 19.1664V18.333H35.8342V19.1664C35.8342 19.6267 35.461 19.9997 35.0008 19.9997ZM5.00096 19.9997C4.54075 19.9997 4.16763 19.6266 4.16763 19.1664V18.333H9.16761V19.1664C9.16761 19.6266 8.79448 19.9997 8.33428 19.9997H5.00096ZM7.50095 21.6663V38.3329H5.83429V21.6663H7.50095ZM4.16763 40.8329C4.16763 40.3727 4.54075 39.9996 5.00096 39.9996H8.33428C8.79448 39.9996 9.16761 40.3727 9.16761 40.8329V41.6663H4.16763V40.8329ZM10.8343 48.3329H1.66764V43.3329H10.8343V48.3329ZM9.16761 38.4863V21.513C10.1629 21.1611 10.8299 20.222 10.8343 19.1664V18.333H12.5009V19.1664C12.5053 20.222 13.1723 21.1611 14.1676 21.513V38.4863C13.1723 38.8381 12.5053 39.7773 12.5009 40.8329V41.6663H10.8343V40.8329C10.8299 39.7773 10.1629 38.8381 9.16761 38.4863ZM37.5008 48.3329H12.5009V46.6662H32.5008V44.9996H12.5009V43.3329H37.5008V48.3329ZM35.8342 38.4863V21.513C36.8295 21.1611 37.4964 20.222 37.5008 19.1664V18.333H39.1675V19.1664C39.1719 20.222 39.8388 21.1611 40.8341 21.513V38.4863C39.8388 38.8381 39.1719 39.7773 39.1675 40.8329V41.6663H37.5008V40.8329C37.4964 39.7773 36.8295 38.8381 35.8342 38.4863ZM48.3341 48.3329H39.1675V43.3329H48.3341V48.3329Z" fill="#D5251F"/>
<path d="M35.8333 45H34.1666V46.6667H35.8333V45Z" fill="#D5251F"/>
<path d="M11.6668 13.3335H10.0001V15.0002H11.6668V13.3335Z" fill="#D5251F"/>
<path d="M25.0001 5C23.1591 5 21.6667 6.49239 21.6667 8.33332C21.6667 10.1742 23.1591 11.6666 25.0001 11.6666C26.841 11.6666 28.3334 10.1742 28.3334 8.33332C28.3334 6.49239 26.841 5 25.0001 5ZM25.0001 9.99998C24.0796 9.99998 23.3334 9.25384 23.3334 8.33332C23.3334 7.4128 24.0796 6.66666 25.0001 6.66666C25.9206 6.66666 26.6667 7.4128 26.6667 8.33332C26.6667 9.25384 25.9206 9.99998 25.0001 9.99998Z" fill="#D5251F"/>
</g>
<defs>
<clipPath id="clip0">
<rect width="50" height="50" fill="white"/>
</clipPath>
</defs>
</svg>
