<svg width="50" height="50" viewBox="0 0 50 50" fill="none" xmlns="http://www.w3.org/2000/svg">
<g clip-path="url(index.html#clip0)">
<path d="M25 11.7188C24.4609 11.7188 24.0234 12.1562 24.0234 12.6953C24.0234 13.2344 24.4609 13.6719 25 13.6719C25.5391 13.6719 25.9766 13.2344 25.9766 12.6953C25.9766 12.1562 25.5391 11.7188 25 11.7188Z" fill="#D4251F"/>
<path d="M0.481579 23.3026C0.804821 23.4929 1.20814 23.4811 1.51966 23.2726C4.67904 21.1593 9.43207 21.1292 12.6386 23.1841C12.8118 23.3404 13.0405 23.4364 13.2921 23.4364C13.2956 23.4364 13.2992 23.4359 13.3027 23.4359C13.4982 23.4397 13.6946 23.3862 13.8644 23.2726C16.9393 21.2156 20.8726 21.1261 24.0236 23.0008C24.0236 23.9787 24.0236 43.4459 24.0236 45.1172C24.0236 47.8148 26.2088 50 28.9064 50C31.5988 50 33.7892 47.8096 33.7892 45.1172V41.2109C33.7892 40.6717 33.3519 40.2344 32.8126 40.2344C32.2734 40.2344 31.8361 40.6717 31.8361 41.2109V45.1172C31.8361 46.7326 30.5218 48.0469 28.9064 48.0469C27.2881 48.0469 25.9767 46.7355 25.9767 45.1172C25.9767 43.4329 25.9767 23.9695 25.9767 23.0008C29.1276 21.126 33.061 21.2157 36.1358 23.2727C36.3003 23.3827 36.4896 23.4375 36.6788 23.4375C36.6855 23.4375 36.692 23.4362 36.6987 23.436C36.7019 23.436 36.7049 23.4365 36.7081 23.4365C36.9597 23.4365 37.1883 23.3405 37.3615 23.1843C40.568 21.1294 45.3211 21.1595 48.4807 23.2726C48.7923 23.4811 49.1958 23.4927 49.5188 23.3026C49.8419 23.1126 50.0277 22.7543 49.9969 22.3807C48.9663 9.88516 37.8491 0 25.0002 0C12.1583 0 1.0348 9.87754 0.00355116 22.3807C-0.0272106 22.7543 0.158532 23.1126 0.481579 23.3026ZM25.9768 20.7913V16.6016C25.9768 16.0623 25.5395 15.625 25.0002 15.625C24.461 15.625 24.0237 16.0623 24.0237 16.6016V20.7912C20.9541 19.3498 17.4163 19.3423 14.3422 20.7698C14.9729 10.8927 19.0762 2.97734 24.0237 2.04609V8.78906C24.0237 9.32832 24.461 9.76562 25.0002 9.76562C25.5395 9.76562 25.9768 9.32832 25.9768 8.78906V2.04609C30.9243 2.97734 35.0276 10.8928 35.6581 20.7698C32.5841 19.3422 29.0464 19.3499 25.9768 20.7913ZM47.8146 20.7038C46.3089 20.0597 44.6094 19.714 42.871 19.7114C42.8646 19.7114 42.8583 19.7114 42.852 19.7114C41.0023 19.7114 39.1958 20.1013 37.6191 20.8251C37.2571 14.6924 35.383 7.06191 31.0632 2.7793C39.5333 5.11768 46.3242 12.1708 47.8146 20.7038ZM18.9372 2.7792C14.6165 7.0627 12.7435 14.6914 12.3813 20.825C9.22816 19.3776 5.36117 19.3453 2.18578 20.7038C3.67631 12.1708 10.4672 5.11768 18.9372 2.7792Z" fill="#D4251F"/>
</g>
<defs>
<clipPath id="clip0">
<rect width="50" height="50" fill="white"/>
</clipPath>
</defs>
</svg>
