<svg width="50" height="50" viewBox="0 0 50 50" fill="none" xmlns="http://www.w3.org/2000/svg">
<path d="M33.3939 32.0661C32.2092 32.0661 31.2455 31.2319 31.2455 30.2066C31.2455 29.1812 32.2092 28.3471 33.3939 28.3471C34.5786 28.3471 35.5423 29.1812 35.5423 30.2066C35.5423 30.7459 35.9797 31.1832 36.5189 31.1832C37.0582 31.1832 37.4955 30.7459 37.4955 30.2066C37.4955 28.4171 36.1621 26.9124 34.3705 26.504V25.9961C34.3705 25.4568 33.9332 25.0195 33.3939 25.0195C32.8547 25.0195 32.4174 25.4568 32.4174 25.9961V26.504C30.6258 26.9124 29.2924 28.4171 29.2924 30.2066C29.2924 32.3089 31.1323 34.0192 33.3939 34.0192C34.5786 34.0192 35.5423 34.8534 35.5423 35.8788C35.5423 36.9042 34.5786 37.7384 33.3939 37.7384C32.2092 37.7384 31.2455 36.9042 31.2455 35.8788C31.2455 35.3395 30.8082 34.9022 30.2689 34.9022C29.7297 34.9022 29.2924 35.3395 29.2924 35.8788C29.2924 37.6683 30.6258 39.173 32.4174 39.5814V40.0033C32.4174 40.5426 32.8547 40.9799 33.3939 40.9799C33.9332 40.9799 34.3705 40.5426 34.3705 40.0033V39.5814C36.1621 39.173 37.4955 37.6683 37.4955 35.8788C37.4955 33.7765 35.6555 32.0661 33.3939 32.0661Z" fill="#D4251F"/>
<path d="M44.09 26.2574C42.8143 24.2696 41.017 22.679 38.8925 21.6577C38.4063 21.4239 37.8228 21.6286 37.5892 22.1148C37.3555 22.6009 37.5601 23.1843 38.0462 23.418C41.7485 25.1977 44.1406 29.0003 44.1406 33.1056C44.1406 34.8622 43.7076 36.6043 42.8885 38.1438C42.6352 38.6198 42.8158 39.2112 43.2919 39.4646C43.438 39.5423 43.5951 39.5792 43.7498 39.5792C44.0992 39.5792 44.4372 39.3911 44.6127 39.0611C45.5816 37.2404 46.0937 35.181 46.0937 33.1056C46.0937 30.6681 45.4008 28.3 44.09 26.2574Z" fill="#D4251F"/>
<path d="M34.9289 20.4103L34.8632 20.4102C34.3239 20.4102 33.8866 20.8474 33.8866 21.3867C33.8866 21.9261 34.3239 22.3633 34.8632 22.3633L34.9197 22.3634C34.9213 22.3634 34.9227 22.3634 34.9244 22.3634C35.4616 22.3634 35.8983 21.9292 35.9009 21.3914C35.9033 20.852 35.4681 20.4128 34.9289 20.4103Z" fill="#D4251F"/>
<path d="M28.7506 42.793C25.0485 41.0132 22.6564 37.2106 22.6564 33.1054C22.6564 31.3488 23.0894 29.6067 23.9084 28.0673C24.1617 27.5912 23.9812 26.9998 23.505 26.7465C23.029 26.4931 22.4374 26.6737 22.1842 27.1499C21.2154 28.9707 20.7032 31.0301 20.7032 33.1054C20.7032 35.5429 21.3961 37.9109 22.707 39.9536C23.9826 41.9414 25.7799 43.532 27.9044 44.5534C28.0408 44.619 28.185 44.6499 28.3269 44.6499C28.6905 44.6499 29.0396 44.4459 29.2077 44.0963C29.4412 43.6102 29.2367 43.0267 28.7506 42.793Z" fill="#D4251F"/>
<path d="M31.9337 43.8479L31.8772 43.8477C31.3354 43.8467 30.8987 44.2802 30.8963 44.8196C30.8937 45.359 31.3291 45.7983 31.8683 45.8008L31.9337 45.801C32.473 45.801 32.9103 45.3637 32.9103 44.8244C32.9103 44.2852 32.473 43.8479 31.9337 43.8479Z" fill="#D4251F"/>
<path d="M37.8328 17.1062C37.714 16.823 37.5684 16.5561 37.399 16.3086H39.9413C42.4183 16.3086 44.4335 14.2933 44.4335 11.8164C44.4335 9.33944 42.4183 7.32421 39.9413 7.32421H32.121C32.6182 6.60136 32.9101 5.72685 32.9101 4.78515C32.9101 2.3082 30.8949 0.292969 28.4179 0.292969H4.49218C2.01523 0.292969 0 2.3082 0 4.78515C0 7.2621 2.01523 9.27733 4.49218 9.27733H12.3125C11.8153 10.0002 11.5234 10.8747 11.5234 11.8164C11.5234 12.7581 11.8152 13.6326 12.3125 14.3554H9.76561C7.28866 14.3554 5.27343 16.3707 5.27343 18.8476C5.27343 20.2702 5.93886 21.5396 6.97411 22.3632C5.93886 23.1869 5.27343 24.4563 5.27343 25.8789C5.27343 27.3014 5.93886 28.5708 6.97411 29.3945C5.93886 30.2181 5.27343 31.4875 5.27343 32.9101C5.27343 34.3326 5.93886 35.6021 6.97411 36.4257C5.93886 37.2493 5.27343 38.5188 5.27343 39.9413C5.27343 42.4183 7.28866 44.4335 9.76561 44.4335H21.2744C24.3062 47.6764 28.6193 49.707 33.3985 49.707C42.5526 49.707 50 42.2596 50 33.1055C50 25.4867 44.8408 19.051 37.8328 17.1062ZM39.9413 9.27733C41.3414 9.27733 42.4804 10.4164 42.4804 11.8164C42.4804 13.2164 41.3414 14.3554 39.9413 14.3554H33.6913H16.0156C14.6155 14.3554 13.4765 13.2164 13.4765 11.8164C13.4765 10.4164 14.6155 9.27733 16.0156 9.27733H39.9413ZM4.49218 7.32421C3.09208 7.32421 1.95312 6.18514 1.95312 4.78515C1.95312 3.38515 3.09208 2.24609 4.49218 2.24609H28.4179C29.818 2.24609 30.957 3.38515 30.957 4.78515C30.957 6.18514 29.818 7.32421 28.4179 7.32421H4.49218ZM9.76561 16.3086H33.6913C34.0847 16.3086 34.4614 16.4 34.7993 16.5636C34.3373 16.5249 33.8703 16.504 33.3985 16.504C28.814 16.504 24.6578 18.372 21.6505 21.3867H9.76561C8.36561 21.3867 7.22655 20.2476 7.22655 18.8476C7.22655 17.4476 8.36561 16.3086 9.76561 16.3086ZM9.76561 23.3398H19.9819C18.8733 24.8586 18.0162 26.5717 17.4718 28.4179H9.76561C8.36551 28.4179 7.22655 27.279 7.22655 25.8789C7.22655 24.4789 8.36551 23.3398 9.76561 23.3398ZM9.76561 30.371H17.0234C16.8753 31.261 16.7969 32.1742 16.7969 33.1055C16.7969 33.901 16.8545 34.6832 16.9632 35.4492H9.76561C8.36551 35.4492 7.22655 34.3102 7.22655 32.9101C7.22655 31.51 8.36551 30.371 9.76561 30.371ZM9.76561 42.4804C8.36551 42.4804 7.22655 41.3414 7.22655 39.9413C7.22655 38.5412 8.36551 37.4023 9.76561 37.4023H17.3619C17.8547 39.2395 18.6551 40.9517 19.7049 42.4804H9.76561ZM33.3985 47.7539C25.3213 47.7539 18.7501 41.1826 18.7501 33.1055C18.7501 25.0284 25.3213 18.4571 33.3985 18.4571C41.4756 18.4571 48.0469 25.0284 48.0469 33.1055C48.0469 41.1826 41.4756 47.7539 33.3985 47.7539Z" fill="#D4251F"/>
</svg>
