<svg width="50" height="50" viewBox="0 0 50 50" fill="none" xmlns="http://www.w3.org/2000/svg">
<g clip-path="url(#clip0)">
<path d="M46.1533 7.05693C46.0403 5.94912 45.113 5.08975 43.9963 5.05791C34.603 4.79014 28.3835 1.65283 26.1455 0.316406C25.4389 -0.105566 24.5609 -0.105371 23.8546 0.316406C22.5272 1.10908 19.6728 2.60449 15.4678 3.71426C15.0773 3.81738 14.8443 4.21748 14.9474 4.60791C15.0504 4.99834 15.4507 5.23115 15.841 5.12832C20.2195 3.97266 23.211 2.4041 24.6045 1.57207C24.8485 1.42617 25.1517 1.42617 25.3958 1.57207C27.7322 2.96719 34.2177 6.24229 43.9547 6.51982C44.3399 6.53076 44.6597 6.82549 44.6984 7.20527C45.0223 10.3796 45.5303 18.6846 43.2601 27.2267C41.9865 32.0186 40.0241 36.1621 37.4274 39.5422C34.3027 43.6096 30.2138 46.6191 25.2741 48.4873C25.0974 48.5541 24.9028 48.5541 24.7259 48.4873C19.7864 46.6191 15.6975 43.6096 12.5728 39.5422C9.97607 36.1621 8.01367 32.0186 6.74004 27.2267C4.46972 18.6846 4.97783 10.3794 5.30166 7.20527C5.34043 6.82549 5.66015 6.53076 6.04551 6.51982C8.21367 6.45801 10.3706 6.23994 12.4565 5.87148C12.8542 5.80127 13.1196 5.42188 13.0494 5.02412C12.9792 4.62646 12.5999 4.36084 12.2021 4.43125C10.1863 4.7873 8.10088 4.99814 6.0039 5.05791C4.8872 5.08975 3.95986 5.94912 3.84677 7.05693C3.51484 10.311 2.99443 18.8271 5.32676 27.6023C6.65029 32.582 8.69795 36.899 11.4131 40.4332C14.706 44.7194 19.011 47.8895 24.2084 49.8552C24.4637 49.9519 24.7319 50.0001 25.0001 50.0001C25.2683 50.0001 25.5364 49.9519 25.7916 49.8552C30.9892 47.8895 35.2942 44.7194 38.5871 40.4332C41.3021 36.899 43.3499 32.582 44.6734 27.6023C47.0056 18.8271 46.4852 10.311 46.1533 7.05693Z" fill="#D4251F"/>
<path d="M8.03739 10.2815C7.82762 12.3384 7.29246 19.6303 9.21649 27.1015C10.2735 31.2058 11.9085 34.7562 14.0759 37.6542C16.7125 41.1794 20.1583 43.7645 24.3179 45.3377C24.5378 45.4208 24.7688 45.4624 25 45.4624C25.231 45.4624 25.4623 45.4208 25.6822 45.3376C29.8416 43.7645 33.2875 41.1795 35.9241 37.6542C38.0915 34.7562 39.7264 31.2059 40.7835 27.1015C42.7075 19.6303 42.1723 12.3384 41.9626 10.2815C41.8651 9.32629 41.0657 8.58538 40.1031 8.55793C32.6721 8.34612 27.756 5.86653 25.9875 4.81047C25.3784 4.44661 24.6217 4.4467 24.0126 4.81038C22.2439 5.86653 17.3279 8.34612 9.89686 8.55793C8.93426 8.58538 8.13485 9.32629 8.03739 10.2815ZM24.7625 6.06594C24.8357 6.02219 24.9179 6.00032 25 6.00032C25.0821 6.00032 25.1642 6.02219 25.2376 6.06604C27.1046 7.18098 32.2866 9.79817 40.0614 10.0198C40.2927 10.0264 40.4845 10.2027 40.5076 10.4298C40.7112 12.4257 41.2307 19.5004 39.3672 26.7366C37.1215 35.4567 32.3431 41.2547 25.1649 43.9696C25.0587 44.01 24.9415 44.0099 24.8351 43.9697C17.6568 41.2546 12.8785 35.4567 10.6328 26.7366C8.76922 19.5005 9.28875 12.4258 9.49237 10.4298C9.51551 10.2028 9.70731 10.0264 9.93866 10.0198C17.7134 9.79817 22.8954 7.18098 24.7625 6.06594Z" fill="#D4251F"/>
<path d="M25 34.3173C28.3362 34.3173 31.4797 32.6891 33.4088 29.9621C33.642 29.6324 33.5637 29.1762 33.2341 28.9429C32.9045 28.7096 32.448 28.7878 32.2148 29.1176C30.5594 31.4577 27.8623 32.8549 25 32.8549C20.1305 32.8549 16.169 28.8933 16.169 24.0239C16.169 19.1545 20.1305 15.193 25 15.193C29.8694 15.193 33.8309 19.1545 33.8309 24.0239C33.8309 24.7854 33.7341 25.5412 33.5428 26.2703C33.4404 26.6609 33.6741 27.0606 34.0647 27.1631C34.4552 27.2651 34.8551 27.0318 34.9575 26.6412C35.1803 25.791 35.2933 24.9105 35.2933 24.0239C35.2933 18.3481 30.6758 13.7305 24.9999 13.7305C19.324 13.7305 14.7064 18.348 14.7064 24.0239C14.7064 29.6998 19.3242 34.3173 25 34.3173Z" fill="#D4251F"/>
<path d="M28.8351 18.8895C28.2245 18.9139 27.6599 19.1747 27.2455 19.6236L23.5729 23.6012L22.6636 22.7224C21.7565 21.846 20.3053 21.8706 19.4285 22.7776C18.5519 23.6846 18.5765 25.1358 19.4837 26.0127L22.076 28.518C22.5048 28.9326 23.0694 29.1609 23.6659 29.1609C23.6886 29.1609 23.7112 29.1606 23.731 29.1599C24.343 29.1426 24.9319 28.8746 25.3469 28.425L30.6072 22.7275C31.4631 21.8007 31.4053 20.3504 30.4783 19.4945C30.0294 19.08 29.4451 18.8655 28.8351 18.8895ZM29.5327 21.7355C29.5327 21.7355 24.2723 27.433 24.2722 27.4331C23.9588 27.7726 23.4242 27.7874 23.0923 27.4666C23.0907 27.465 20.5 24.9611 20.5 24.9611C20.1726 24.6447 20.1638 24.1212 20.48 23.794C20.6417 23.6267 20.8575 23.5425 21.0737 23.5425C21.2804 23.5425 21.4872 23.6195 21.6472 23.774C21.6472 23.774 23.0925 25.1708 23.0944 25.1727C23.3816 25.4503 23.8683 25.4371 24.1398 25.143C24.1398 25.143 28.3067 20.63 28.3199 20.6158C29.0262 19.8509 30.2603 20.9476 29.5327 21.7355Z" fill="#D4251F"/>
</g>
<defs>
<clipPath id="clip0">
<rect width="50" height="50" fill="white"/>
</clipPath>
</defs>
</svg>
