<svg width="60" height="60" viewBox="0 0 60 60" fill="none" xmlns="http://www.w3.org/2000/svg">
<g clip-path="url(#clip0)">
<path d="M14.6329 13.3744C14.6329 10.7401 12.4898 8.59698 9.85551 8.59698C7.22125 8.59698 5.07812 10.7401 5.07812 13.3744C5.07812 16.0086 7.22125 18.1518 9.85551 18.1518C12.4898 18.1518 14.6329 16.0086 14.6329 13.3744ZM9.85551 16.3938C8.19051 16.3938 6.83594 15.0393 6.83594 13.3743C6.83594 11.7093 8.19051 10.3547 9.85551 10.3547C11.5205 10.3547 12.8751 11.7093 12.8751 13.3743C12.8751 15.0393 11.5205 16.3938 9.85551 16.3938Z" fill="#D5251F"/>
<path d="M11.4515 24.3731H8.25977C7.77437 24.3731 7.38086 24.7666 7.38086 25.252C7.38086 25.7374 7.77437 26.1309 8.25977 26.1309H11.4515C11.9369 26.1309 12.3304 25.7374 12.3304 25.252C12.3304 24.7666 11.9369 24.3731 11.4515 24.3731Z" fill="#D5251F"/>
<path d="M11.4515 28.8967H8.25977C7.77437 28.8967 7.38086 29.2902 7.38086 29.7756C7.38086 30.261 7.77437 30.6545 8.25977 30.6545H11.4515C11.9369 30.6545 12.3304 30.261 12.3304 29.7756C12.3304 29.2902 11.9369 28.8967 11.4515 28.8967Z" fill="#D5251F"/>
<path d="M11.4515 50.7612H8.25977C7.77437 50.7612 7.38086 51.1547 7.38086 51.6401C7.38086 52.1255 7.77437 52.519 8.25977 52.519H11.4515C11.9369 52.519 12.3304 52.1255 12.3304 51.6401C12.3304 51.1547 11.9369 50.7612 11.4515 50.7612Z" fill="#D5251F"/>
<path d="M27.8091 8.59698C25.1749 8.59698 23.0317 10.7401 23.0317 13.3744C23.0317 16.0086 25.1749 18.1518 27.8091 18.1518C30.4434 18.1518 32.5865 16.0086 32.5865 13.3744C32.5865 10.7401 30.4433 8.59698 27.8091 8.59698ZM27.8091 16.3938C26.1441 16.3938 24.7896 15.0393 24.7896 13.3743C24.7896 11.7093 26.1441 10.3547 27.8091 10.3547C29.4741 10.3547 30.8287 11.7093 30.8287 13.3743C30.8287 15.0393 29.474 16.3938 27.8091 16.3938Z" fill="#D5251F"/>
<path d="M29.4049 24.3731H26.2131C25.7277 24.3731 25.3342 24.7666 25.3342 25.252C25.3342 25.7374 25.7277 26.1309 26.2131 26.1309H29.4049C29.8902 26.1309 30.2838 25.7374 30.2838 25.252C30.2838 24.7666 29.8902 24.3731 29.4049 24.3731Z" fill="#D5251F"/>
<path d="M29.4049 28.8967H26.2131C25.7277 28.8967 25.3342 29.2902 25.3342 29.7756C25.3342 30.261 25.7277 30.6545 26.2131 30.6545H29.4049C29.8902 30.6545 30.2838 30.261 30.2838 29.7756C30.2838 29.2902 29.8902 28.8967 29.4049 28.8967Z" fill="#D5251F"/>
<path d="M29.4049 50.7612H26.2131C25.7277 50.7612 25.3342 51.1547 25.3342 51.6401C25.3342 52.1255 25.7277 52.519 26.2131 52.519H29.4049C29.8902 52.519 30.2838 52.1255 30.2838 51.6401C30.2838 51.1547 29.8902 50.7612 29.4049 50.7612Z" fill="#D5251F"/>
<path d="M46.8719 17.6409C49.502 17.4108 51.445 15.0962 51.2148 12.4654C50.9842 9.83028 48.6644 7.89224 46.0393 8.12251C43.4094 8.35267 41.4663 10.6672 41.6965 13.2981C41.9276 15.9393 44.2541 17.8699 46.8719 17.6409ZM43.4476 13.1448C43.3021 11.4825 44.5296 10.0191 46.1924 9.87364C47.8508 9.72786 49.3179 10.9525 49.4635 12.6184C49.6091 14.2807 48.3816 15.7442 46.7188 15.8896C45.0738 16.0347 43.5945 14.8234 43.4476 13.1448Z" fill="#D5251F"/>
<path d="M45.9778 25.7288L49.1573 25.4506C49.6409 25.4083 49.9986 24.982 49.9563 24.4985C49.914 24.015 49.4871 23.658 49.0041 23.6995L45.8246 23.9777C45.341 24.02 44.9833 24.4463 45.0256 24.9299C45.0677 25.4101 45.4899 25.7708 45.9778 25.7288Z" fill="#D5251F"/>
<path d="M46.2945 30.2387C46.3559 30.2387 49.4857 29.9629 49.5517 29.9571C50.0353 29.9148 50.393 29.4885 50.3507 29.005C50.3084 28.5215 49.8817 28.1649 49.3985 28.206L46.2189 28.4842C45.7353 28.5265 45.3776 28.9528 45.4199 29.4363C45.46 29.894 45.8437 30.2387 46.2945 30.2387Z" fill="#D5251F"/>
<path d="M48.2 52.0198C48.2257 52.0198 48.2516 52.0187 48.2776 52.0164L51.4571 51.7382C51.9407 51.6959 52.2984 51.2696 52.2561 50.7861C52.2138 50.3026 51.7872 49.946 51.3039 49.9871L48.1244 50.2653C47.6408 50.3076 47.2831 50.7339 47.3254 51.2175C47.3655 51.675 47.7492 52.0198 48.2 52.0198Z" fill="#D5251F"/>
<path d="M59.9911 54.5019L59.4776 48.6322C59.4353 48.1487 59.0089 47.7915 58.5254 47.8333C58.0418 47.8756 57.6841 48.302 57.7264 48.7855L58.24 54.6549C58.2416 54.6726 58.2423 54.6902 58.2423 54.7077C58.2423 55.0068 58.0082 55.2617 57.7092 55.2879L42.7921 56.593C42.7869 56.5933 42.7818 56.5937 42.7767 56.5942L42.7391 56.5976C42.4188 56.6258 42.1338 56.3832 42.1062 56.0667L37.6669 5.32673C37.6654 5.30892 37.6645 5.29111 37.6645 5.27353C37.6645 4.97447 37.8987 4.71982 38.19 4.69427C42.1547 4.38372 39.9456 4.57087 53.3521 3.39689C53.5942 3.45325 53.7785 3.6615 53.8005 3.91474L57.3688 44.6995C57.4111 45.1831 57.8392 45.5413 58.3209 45.4984C58.8046 45.4561 59.1622 45.0297 59.1199 44.5462L55.5518 3.76157C55.4551 2.6545 54.5838 1.76165 53.4803 1.63837C53.4226 1.63204 53.3643 1.63111 53.3063 1.63626C39.7604 2.82255 41.9873 2.63364 38.0446 2.94243C37.615 2.98005 37.2239 3.13064 36.8959 3.36126C36.4796 2.98239 35.9286 2.74907 35.3228 2.74907H20.2951C19.7418 2.74907 19.2334 2.94302 18.8323 3.26517C18.431 2.94302 17.9228 2.74907 17.3694 2.74907H2.34176C1.05047 2.74907 0 3.79966 0 5.09083V12.9999C0 13.4853 0.393516 13.8788 0.878906 13.8788C1.3643 13.8788 1.75781 13.4853 1.75781 12.9999V5.09083C1.75781 4.7688 2.01973 4.50689 2.34176 4.50689H17.3694C17.6914 4.50689 17.9534 4.7688 17.9534 5.09083V56.0251C17.9534 56.3471 17.6914 56.609 17.3694 56.609H2.34176C2.01973 56.609 1.75781 56.3471 1.75781 56.0251V17.1016C1.75781 16.6162 1.3643 16.2227 0.878906 16.2227C0.393516 16.2227 0 16.6162 0 17.1016V56.0252C0 57.3165 1.05047 58.367 2.34176 58.367H17.3694C17.9228 58.367 18.431 58.173 18.8323 57.8509C19.2335 58.173 19.7418 58.367 20.2951 58.367H35.3228C36.6141 58.367 37.6644 57.3165 37.6644 56.0252V25.4682L40.3548 56.2199C40.4614 57.4386 41.4636 58.3576 42.6861 58.3576C42.9063 58.3576 42.4876 58.384 57.8624 57.0389C59.081 56.9322 60 55.9299 60 54.7076C60 54.6392 59.9971 54.5702 59.9911 54.5019ZM35.9066 56.0251C35.9066 56.3471 35.6447 56.609 35.3228 56.609H20.2951C19.9731 56.609 19.7112 56.3471 19.7112 56.0251V5.09083C19.7112 4.7688 19.9731 4.50689 20.2951 4.50689H35.3228C35.6447 4.50689 35.9066 4.7688 35.9066 5.09083V56.0251Z" fill="#D5251F"/>
</g>
<defs>
<clipPath id="clip0">
<rect width="60" height="60" fill="white"/>
</clipPath>
</defs>
</svg>
