<svg width="60" height="60" viewBox="0 0 60 60" fill="none" xmlns="http://www.w3.org/2000/svg">
<g clip-path="url(#clip0)">
<path d="M43.7282 2.35801L9.10629 0.0422685C7.97766 -0.0324972 6.99879 0.823323 6.9232 1.9516L6.65238 6.00125H2.05078C0.920039 6.00125 0 6.92129 0 8.05203V57.9113C0 59.0421 0.920039 59.9621 2.05078 59.9621H28.5517C28.7814 59.9621 29.0089 59.8682 29.1718 59.7061L33.1724 55.7232C33.213 55.7319 33.2545 55.7388 33.2972 55.7416L40.1271 56.1984C41.2172 56.2704 42.2371 55.3837 42.3102 54.2891L45.6375 4.54121C45.7124 3.42465 44.8446 2.43266 43.7282 2.35801ZM29.4306 56.9559V50.8504C29.4306 50.6889 29.5621 50.5575 29.7236 50.5575H35.8056L29.4306 56.9559ZM40.5562 54.1719C40.5277 54.3488 40.4237 54.4398 40.2445 54.4446L34.8211 54.0818L38.542 50.3773C38.7077 50.2125 38.8009 49.9883 38.8009 49.7545V8.05215C38.8009 6.92141 37.8809 6.00137 36.7501 6.00137H27.6103C26.4739 6.00137 26.4739 7.75918 27.6103 7.75918H36.7501C36.9117 7.75918 37.0431 7.89067 37.0431 8.05215V48.7997H29.7236C28.5928 48.7997 27.6728 49.7197 27.6728 50.8504V58.2043H2.05078C1.8893 58.2043 1.75781 58.0728 1.75781 57.9113V8.05215C1.75781 7.89067 1.8893 7.75918 2.05078 7.75918H22.9298C24.0662 7.75918 24.0662 6.00137 22.9298 6.00137H8.41406L8.67703 2.06903C8.70562 1.89196 8.80957 1.80114 8.98887 1.79633L43.6107 4.11196C43.7878 4.14055 43.8787 4.24449 43.8836 4.42379L40.5562 54.1719Z" fill="#D5251F"/>
<path d="M31.3861 27.7789H7.41504C6.92965 27.7789 6.53613 28.1724 6.53613 28.6578C6.53613 29.1432 6.92965 29.5367 7.41504 29.5367H31.3861C31.8716 29.5367 32.265 29.1432 32.265 28.6578C32.265 28.1724 31.8716 27.7789 31.3861 27.7789Z" fill="#D5251F"/>
<path d="M31.3861 33.9061H7.41504C6.92965 33.9061 6.53613 34.2996 6.53613 34.785C6.53613 35.2704 6.92965 35.6639 7.41504 35.6639H31.3861C31.8716 35.6639 32.265 35.2704 32.265 34.785C32.265 34.2996 31.8716 33.9061 31.3861 33.9061Z" fill="#D5251F"/>
<path d="M6.53613 22.5306C6.53613 23.016 6.92965 23.4095 7.41504 23.4095H31.3861C31.8716 23.4095 32.265 23.016 32.265 22.5306C32.265 22.0452 31.8716 21.6517 31.3861 21.6517H7.41504C6.92965 21.6517 6.53613 22.0452 6.53613 22.5306Z" fill="#D5251F"/>
<path d="M10.7583 16.4035C10.7583 16.8889 11.1518 17.2824 11.6372 17.2824H27.163C27.6484 17.2824 28.0419 16.8889 28.0419 16.4035C28.0419 15.9181 27.6484 15.5246 27.163 15.5246H11.6372C11.1518 15.5246 10.7583 15.9181 10.7583 16.4035Z" fill="#D5251F"/>
<path d="M22.823 51.4203C21.2423 51.4245 19.6615 51.4279 18.0808 51.4304C17.5495 51.4312 17.0183 51.4319 16.4871 51.4322C15.5244 51.433 14.8757 51.2397 14.6601 50.1808C14.4778 49.2855 13.2112 49.4058 12.9651 50.1808C12.3569 52.0953 11.351 51.3452 10.7875 50.0574C10.2254 48.7727 10.0812 47.3348 9.83572 45.9676C9.65526 44.9629 8.1358 45.2445 8.10932 46.2012C8.0744 47.4611 7.95674 48.701 7.63694 49.9229C7.30705 51.1836 6.81264 52.3952 6.32186 53.5997C5.89401 54.6499 7.59533 55.1016 8.01686 54.0671C8.45174 52.9997 8.88721 51.9265 9.21135 50.8194C9.81369 52.2678 11.0599 53.9061 12.8356 52.9406C13.166 52.7609 13.4745 52.5056 13.7453 52.2078C14.6688 53.2749 16.0433 53.1908 17.3294 53.1892C19.1607 53.1869 20.992 53.1829 22.8233 53.1781C23.954 53.1752 23.9561 51.4174 22.823 51.4203Z" fill="#D5251F"/>
<path d="M59.2886 28.8795C58.8319 28.4251 58.204 28.192 57.5665 28.1748L56.9023 28.178V26.9219C56.9023 26.1568 56.4478 25.3484 55.7968 24.9459V23.1766C55.7968 19.5357 50.1282 19.5515 50.1282 23.1937V24.9632C49.4651 25.3732 49.0202 26.1048 49.0202 26.9381V28.225C46.0945 28.4243 46.0862 32.8827 49.0235 33.0569C49.0423 36.9915 49.0413 40.8616 49.0202 44.862C49.0145 45.9652 50.7721 46.0299 50.778 44.8713C50.7991 40.8675 50.8001 36.9939 50.7815 33.0561L55.1421 33.0344C55.1421 33.0344 55.1365 46.0244 55.1365 51.8763C55.1365 54.7284 50.7749 54.7474 50.7749 51.8466L50.7764 50.2439C50.845 49.1095 49.0904 49.0037 49.0218 50.1379V51.6419C49.0218 52.931 49.4204 54.0227 50.1922 54.7906C50.2609 56.6296 51.0357 58.4091 52.3448 59.7073C52.7204 60.08 53.2404 59.9661 53.6039 59.686C54.9358 58.3518 55.6862 56.593 55.7331 54.7156C56.3133 54.1378 56.8942 53.5559 56.8942 51.5637L56.8949 43.5539C58.4148 43.9862 59.9997 42.81 59.9997 41.2164V30.5908C59.9997 29.9436 59.7471 29.3359 59.2886 28.8795ZM50.778 28.2084V26.938C50.778 26.6779 50.9565 26.4598 51.1968 26.395L54.7153 26.3776C54.8138 26.4019 54.9046 26.4485 54.9782 26.5218C55.0854 26.6286 55.1445 26.7706 55.1445 26.9219V28.1868L50.778 28.2084ZM52.9661 22.1146C53.5056 22.1146 54.0389 22.6436 54.0389 23.1766V24.6023L51.8859 24.613V23.1937C51.8861 22.6016 52.3703 22.1176 52.9661 22.1146ZM52.9648 57.728C52.5561 57.1489 52.2606 56.4939 52.0956 55.8055C52.3677 55.8644 52.6433 55.8951 52.9191 55.8951C53.2269 55.8951 53.5347 55.8569 53.8377 55.783C53.6767 56.4819 53.3816 57.1408 52.9648 57.728ZM58.2419 41.2164C58.2419 42.0486 56.8998 42.1141 56.8998 41.2318C56.8998 41.2318 56.9013 32.9145 56.9023 32.1521C56.9029 31.6604 56.4941 31.2721 56.0166 31.2721L49.1741 31.3061C48.3254 31.3061 48.3452 29.9783 49.1828 29.9742L57.5752 29.9326C57.981 29.9671 58.2032 30.1866 58.2417 30.5908V41.2164H58.2419Z" fill="#D5251F"/>
</g>
<defs>
<clipPath id="clip0">
<rect width="60" height="60" fill="white"/>
</clipPath>
</defs>
</svg>
