<svg width="60" height="60" viewBox="0 0 60 60" fill="none" xmlns="http://www.w3.org/2000/svg">
<path d="M45.9999 0H14C12.346 0 11 1.34602 11 3C11 4.65398 12.346 6 14 6H46C47.654 6 49 4.65398 49 3C49 1.34602 47.6539 0 45.9999 0ZM45.9999 3.99996H14C13.449 3.99996 13 3.55195 13 3C13 2.44805 13.449 2.00004 14 2.00004H46C46.5511 2.00004 47 2.44805 47 3C47 3.55195 46.5509 3.99996 45.9999 3.99996Z" fill="#D5251F"/>
<path d="M45.9999 54H14C12.346 54 11 55.346 11 57C11 58.654 12.346 60 14 60H46C47.654 60 49 58.654 49 57C49 55.346 47.6539 54 45.9999 54ZM45.9999 58H14C13.449 58 13 57.552 13 57C13 56.448 13.449 56 14 56H46C46.5511 56 47 56.448 47 57C47 57.552 46.5509 58 45.9999 58Z" fill="#D5251F"/>
<path d="M37.1261 26.288C42.204 21.21 45 14.459 45 7.27903V5.00008C45 4.44708 44.552 4.00012 44 4.00012H16C15.448 4.00012 15 4.44708 15 5.00008V7.27903C15 14.46 17.796 21.21 22.873 26.288L23.878 27.293C24.591 28.006 25 28.992 25 30C25 31.0081 24.591 31.9941 23.8789 32.7071L22.8739 33.7121C17.796 38.79 15 45.54 15 52.7211V55C15 55.553 15.448 56 16 56H43.9999C44.5519 56 44.9999 55.553 44.9999 55V52.7211C44.9999 45.5411 42.2039 38.79 37.1259 33.7121L36.1209 32.7071C35.3979 31.984 34.9999 31.0231 34.9999 30C34.9999 28.977 35.3979 28.0161 36.1209 27.293L37.1261 26.288ZM34.707 25.879C33.606 26.9791 33 28.442 33 30C33 31.5581 33.606 33.021 34.707 34.1211L35.712 35.1261C40.412 39.8261 43 46.075 43 52.7211V54H17V52.7211C17 46.0741 19.588 39.8261 24.287 35.1261L25.292 34.1211C26.394 33.021 27 31.557 27 30C27 28.4431 26.394 26.9791 25.293 25.879L24.288 24.874C19.588 20.174 17 13.925 17 7.27903V6.00004H43.0001V7.27903C43.0001 13.9251 40.4121 20.174 35.7121 24.874L34.707 25.879Z" fill="#D5251F"/>
<path d="M38.451 16.8469C38.35 16.593 38.0061 15.9999 37 15.9999C31.8041 15.9999 29.489 14.8869 28.571 14.2229C27.4259 13.3939 25.957 13.1769 24.6379 13.6439C23.379 14.0888 22.4569 15.0788 22.1099 16.3589C22.0199 16.6919 22.0039 16.9079 22.0039 16.9079C21.9889 17.1049 22.0319 17.3179 22.1289 17.4909C23.066 19.1519 24.1469 20.9039 25.7029 22.4599L26.7069 23.4649C28.1859 24.9419 28.9999 26.9078 28.9999 28.9999C28.9999 29.5529 29.4479 29.9998 29.9998 29.9998C30.5518 29.9998 30.9998 29.5529 30.9998 28.9999C30.9998 26.9089 31.8138 24.9428 33.2917 23.4649L34.2978 22.4588C34.5448 22.2128 34.8667 21.9089 35.2208 21.5769C37.806 19.1459 38.8931 17.9629 38.451 16.8469ZM33.8491 20.12C33.4791 20.469 33.141 20.787 32.8831 21.045L31.8771 22.051C31.1001 22.827 30.4701 23.711 29.999 24.669C29.528 23.711 28.898 22.827 28.121 22.051L27.1169 21.046C25.8889 19.8171 24.9899 18.464 24.0549 16.833C24.3019 15.998 24.9419 15.658 25.3049 15.5289C26.0029 15.2819 26.786 15.399 27.3979 15.843C28.6719 16.765 31.1839 17.8519 35.996 17.986C35.378 18.682 34.4081 19.595 33.8491 20.12Z" fill="#D5251F"/>
<path d="M40.9311 50.922C40.68 47.68 39.3801 46.3339 37.8761 44.7739C37.6731 44.5629 37.4611 44.344 37.2441 44.112C35.9881 42.7699 34.2141 42 32.3751 42H27.6241C25.7861 42 24.0111 42.77 22.755 44.112C22.538 44.344 22.3271 44.562 22.124 44.773C20.6189 46.333 19.319 47.68 19.069 50.923C19.047 51.201 19.143 51.475 19.332 51.68C19.522 51.8841 19.787 52.0001 20.0659 52.0001H39.9339C40.2119 52.0001 40.4779 51.8841 40.6679 51.6791C40.857 51.474 40.952 51.199 40.9311 50.922ZM21.205 50C21.544 48.2541 22.352 47.418 23.564 46.162C23.774 45.9441 23.992 45.7171 24.216 45.478C25.095 44.538 26.337 44 27.6241 44H32.3751C33.6631 44 34.905 44.539 35.7841 45.4771C36.0091 45.7191 36.227 45.9441 36.4381 46.1631C37.6491 47.4191 38.4561 48.2551 38.7961 50H21.205Z" fill="#D5251F"/>
<path d="M29.9702 32C29.4182 32 28.9702 32.447 28.9702 33V33.9999C28.9702 34.5529 29.4182 34.9999 29.9702 34.9999C30.5221 34.9999 30.9701 34.5529 30.9701 33.9999V33C30.9701 32.447 30.5221 32 29.9702 32Z" fill="#D5251F"/>
<path d="M29.9702 36.9999C29.4182 36.9999 28.9702 37.4469 28.9702 37.9999V38.9999C28.9702 39.5529 29.4182 39.9998 29.9702 39.9998C30.5221 39.9998 30.9701 39.5529 30.9701 38.9999V37.9999C30.9701 37.447 30.5221 36.9999 29.9702 36.9999Z" fill="#D5251F"/>
</svg>
