<svg width="60" height="60" viewBox="0 0 60 60" fill="none" xmlns="http://www.w3.org/2000/svg">
<g clip-path="url(#clip0)">
<path d="M59.5062 7.57262C59.4706 7.53911 52.4228 0.817817 52.4228 0.817817C52.1534 0.559302 51.8747 0.292114 51.3544 0.292114H22.981C22.1522 0.292114 21.4779 0.966294 21.4779 1.79504V6.41024L11.4777 8.12446C10.6762 8.26508 10.1371 9.03219 10.276 9.83293L10.7835 12.7922C7.53307 13.886 4.19593 15.0136 0.974324 16.1708C0.213074 16.4491 -0.186418 17.2956 0.0852222 18.0614L6.49362 35.8757C6.62253 36.2342 6.96038 36.4575 7.32073 36.4575C7.4194 36.4575 7.51995 36.4407 7.61815 36.4053C8.07495 36.241 8.31202 35.7376 8.14772 35.2808L1.83413 17.7298C4.86928 16.6432 8.01249 15.5796 11.0843 14.5456L14.1044 32.1525L17.5794 52.4296C17.7049 53.1454 18.3341 53.6547 19.0443 53.6547C19.1247 53.6547 19.2062 53.6482 19.288 53.6347L28.7001 52.0195L36.0548 50.7588L24.9933 54.7346L16.2705 57.8709L9.49608 39.0284C9.3319 38.5716 8.82858 38.3346 8.37167 38.4988C7.91487 38.6629 7.6778 39.1664 7.84198 39.6232L14.7124 58.7334C14.9322 59.3343 15.5015 59.7079 16.1032 59.7079C16.2695 59.7079 16.4384 59.6793 16.6029 59.6192L25.5878 56.3888L45.9894 49.0559L49.887 48.3879H58.4969C59.3256 48.3879 59.9999 47.7122 59.9999 46.8815V8.56297C60 8.03692 59.7146 7.76856 59.5062 7.57262ZM57.1776 7.78075H52.7795L52.6705 7.78122C52.4599 7.78262 51.9669 7.78626 51.8419 7.66204C51.8131 7.63333 51.7793 7.53747 51.7793 7.35946L51.7691 2.62333L57.1776 7.78075ZM58.2422 46.6298H23.2357V29.5009C23.2357 29.0155 22.8422 28.622 22.3568 28.622C21.8714 28.622 21.4779 29.0155 21.4779 29.5009V46.8813C21.4779 47.7118 22.1522 48.3876 22.981 48.3876H39.4824L28.4029 50.2868L19.2644 51.8551L15.8369 31.8553L12.0553 9.80879L21.4778 8.1936V25.4227C21.4778 25.9081 21.8713 26.3016 22.3567 26.3016C22.8421 26.3016 23.2356 25.9081 23.2356 25.4227V2.04981H50.01L50.0215 7.36145C50.0215 8.00528 50.2173 8.52606 50.6035 8.9095C51.1968 9.4986 52.0355 9.53961 52.5562 9.53961C52.6009 9.53961 52.6433 9.53926 52.6831 9.53903L58.2422 9.53868V46.6298Z" fill="#D5251F"/>
<path d="M27.4722 13.9393C27.4722 14.4247 27.8657 14.8182 28.3511 14.8182H53.4803C53.9657 14.8182 54.3592 14.4247 54.3592 13.9393C54.3592 13.4539 53.9657 13.0604 53.4803 13.0604H28.3511C27.8657 13.0604 27.4722 13.4539 27.4722 13.9393Z" fill="#D5251F"/>
<path d="M53.4803 19.3044H28.3511C27.8657 19.3044 27.4722 19.6979 27.4722 20.1833C27.4722 20.6687 27.8657 21.0622 28.3511 21.0622H53.4803C53.9657 21.0622 54.3592 20.6687 54.3592 20.1833C54.3592 19.6979 53.9657 19.3044 53.4803 19.3044Z" fill="#D5251F"/>
<path d="M53.4803 25.5484H28.3511C27.8657 25.5484 27.4722 25.9419 27.4722 26.4273C27.4722 26.9127 27.8657 27.3062 28.3511 27.3062H53.4803C53.9657 27.3062 54.3592 26.9127 54.3592 26.4273C54.3592 25.9419 53.9657 25.5484 53.4803 25.5484Z" fill="#D5251F"/>
<path d="M53.4803 31.7923H28.3511C27.8657 31.7923 27.4722 32.1858 27.4722 32.6712C27.4722 33.1566 27.8657 33.5501 28.3511 33.5501H53.4803C53.9657 33.5501 54.3592 33.1566 54.3592 32.6712C54.3592 32.1858 53.9657 31.7923 53.4803 31.7923Z" fill="#D5251F"/>
<path d="M53.4803 38.0364H28.3511C27.8657 38.0364 27.4722 38.43 27.4722 38.9153C27.4722 39.4007 27.8657 39.7943 28.3511 39.7943H53.4803C53.9657 39.7943 54.3592 39.4007 54.3592 38.9153C54.3592 38.43 53.9657 38.0364 53.4803 38.0364Z" fill="#D5251F"/>
</g>
<defs>
<clipPath id="clip0">
<rect width="60" height="60" fill="white"/>
</clipPath>
</defs>
</svg>
