<svg width="60" height="60" viewBox="0 0 60 60" fill="none" xmlns="http://www.w3.org/2000/svg">
<path d="M10.5 6.5C8.019 6.5 6 8.519 6 11C6 13.481 8.019 15.5 10.5 15.5C12.981 15.5 15 13.481 15 11C15 8.519 12.981 6.5 10.5 6.5ZM10.5 13.5C9.122 13.5 8 12.379 8 11C8 9.621 9.122 8.5 10.5 8.5C11.878 8.5 13 9.621 13 11C13 12.379 11.878 13.5 10.5 13.5Z" fill="#D5251F"/>
<path d="M50 10.5C50.5523 10.5 51 10.0523 51 9.5C51 8.94772 50.5523 8.5 50 8.5C49.4477 8.5 49 8.94772 49 9.5C49 10.0523 49.4477 10.5 50 10.5Z" fill="#D5251F"/>
<path d="M46 10.5C46.5523 10.5 47 10.0523 47 9.5C47 8.94772 46.5523 8.5 46 8.5C45.4477 8.5 45 8.94772 45 9.5C45 10.0523 45.4477 10.5 46 10.5Z" fill="#D5251F"/>
<path d="M52 13.5C52.5523 13.5 53 13.0523 53 12.5C53 11.9477 52.5523 11.5 52 11.5C51.4477 11.5 51 11.9477 51 12.5C51 13.0523 51.4477 13.5 52 13.5Z" fill="#D5251F"/>
<path d="M48 13.5C48.5523 13.5 49 13.0523 49 12.5C49 11.9477 48.5523 11.5 48 11.5C47.4477 11.5 47 11.9477 47 12.5C47 13.0523 47.4477 13.5 48 13.5Z" fill="#D5251F"/>
<path d="M42 10.5C42.5523 10.5 43 10.0523 43 9.5C43 8.94772 42.5523 8.5 42 8.5C41.4477 8.5 41 8.94772 41 9.5C41 10.0523 41.4477 10.5 42 10.5Z" fill="#D5251F"/>
<path d="M44 13.5C44.5523 13.5 45 13.0523 45 12.5C45 11.9477 44.5523 11.5 44 11.5C43.4477 11.5 43 11.9477 43 12.5C43 13.0523 43.4477 13.5 44 13.5Z" fill="#D5251F"/>
<path d="M38 10.5C38.5523 10.5 39 10.0523 39 9.5C39 8.94772 38.5523 8.5 38 8.5C37.4477 8.5 37 8.94772 37 9.5C37 10.0523 37.4477 10.5 38 10.5Z" fill="#D5251F"/>
<path d="M40 13.5C40.5523 13.5 41 13.0523 41 12.5C41 11.9477 40.5523 11.5 40 11.5C39.4477 11.5 39 11.9477 39 12.5C39 13.0523 39.4477 13.5 40 13.5Z" fill="#D5251F"/>
<path d="M34 10.5C34.5523 10.5 35 10.0523 35 9.5C35 8.94772 34.5523 8.5 34 8.5C33.4477 8.5 33 8.94772 33 9.5C33 10.0523 33.4477 10.5 34 10.5Z" fill="#D5251F"/>
<path d="M36 13.5C36.5523 13.5 37 13.0523 37 12.5C37 11.9477 36.5523 11.5 36 11.5C35.4477 11.5 35 11.9477 35 12.5C35 13.0523 35.4477 13.5 36 13.5Z" fill="#D5251F"/>
<path d="M60 16.892V5.108C60 2.567 57.933 0.5 55.392 0.5H4.608C2.067 0.5 0 2.567 0 5.108V16.891C0 18.36 0.703 19.655 1.777 20.499C0.703 21.344 0 22.64 0 24.108V35.891C0 37.36 0.703 38.655 1.777 39.499C0.703 40.344 0 41.64 0 43.108V54.891C0 57.433 2.067 59.5 4.608 59.5H55.391C57.932 59.5 59.999 57.433 59.999 54.892V43.108C59.999 41.639 59.296 40.344 58.222 39.5C59.297 38.656 60 37.36 60 35.892V24.108C60 22.639 59.297 21.344 58.223 20.5C59.297 19.656 60 18.36 60 16.892ZM58 43.108V54.891C58 56.329 56.83 57.499 55.392 57.499H4.608C3.17 57.5 2 56.33 2 54.892V43.108C2 41.67 3.17 40.5 4.608 40.5H55.391C56.83 40.5 58 41.67 58 43.108ZM58 24.108V35.891C58 37.329 56.83 38.499 55.392 38.499H4.608C3.17 38.5 2 37.33 2 35.892V24.108C2 22.67 3.17 21.5 4.608 21.5H55.391C56.83 21.5 58 22.67 58 24.108ZM4.608 19.5C3.17 19.5 2 18.33 2 16.892V5.108C2 3.67 3.17 2.5 4.608 2.5H55.391C56.83 2.5 58 3.67 58 5.108V16.891C58 18.329 56.83 19.499 55.392 19.499H4.608V19.5Z" fill="#D5251F"/>
<path d="M10.5 34.5C12.981 34.5 15 32.481 15 30C15 27.519 12.981 25.5 10.5 25.5C8.019 25.5 6 27.519 6 30C6 32.481 8.019 34.5 10.5 34.5ZM10.5 27.5C11.878 27.5 13 28.621 13 30C13 31.379 11.878 32.5 10.5 32.5C9.122 32.5 8 31.379 8 30C8 28.621 9.122 27.5 10.5 27.5Z" fill="#D5251F"/>
<path d="M50 29.5C50.5523 29.5 51 29.0523 51 28.5C51 27.9477 50.5523 27.5 50 27.5C49.4477 27.5 49 27.9477 49 28.5C49 29.0523 49.4477 29.5 50 29.5Z" fill="#D5251F"/>
<path d="M46 29.5C46.5523 29.5 47 29.0523 47 28.5C47 27.9477 46.5523 27.5 46 27.5C45.4477 27.5 45 27.9477 45 28.5C45 29.0523 45.4477 29.5 46 29.5Z" fill="#D5251F"/>
<path d="M52 32.5C52.5523 32.5 53 32.0523 53 31.5C53 30.9477 52.5523 30.5 52 30.5C51.4477 30.5 51 30.9477 51 31.5C51 32.0523 51.4477 32.5 52 32.5Z" fill="#D5251F"/>
<path d="M48 32.5C48.5523 32.5 49 32.0523 49 31.5C49 30.9477 48.5523 30.5 48 30.5C47.4477 30.5 47 30.9477 47 31.5C47 32.0523 47.4477 32.5 48 32.5Z" fill="#D5251F"/>
<path d="M42 29.5C42.5523 29.5 43 29.0523 43 28.5C43 27.9477 42.5523 27.5 42 27.5C41.4477 27.5 41 27.9477 41 28.5C41 29.0523 41.4477 29.5 42 29.5Z" fill="#D5251F"/>
<path d="M44 32.5C44.5523 32.5 45 32.0523 45 31.5C45 30.9477 44.5523 30.5 44 30.5C43.4477 30.5 43 30.9477 43 31.5C43 32.0523 43.4477 32.5 44 32.5Z" fill="#D5251F"/>
<path d="M38 29.5C38.5523 29.5 39 29.0523 39 28.5C39 27.9477 38.5523 27.5 38 27.5C37.4477 27.5 37 27.9477 37 28.5C37 29.0523 37.4477 29.5 38 29.5Z" fill="#D5251F"/>
<path d="M40 32.5C40.5523 32.5 41 32.0523 41 31.5C41 30.9477 40.5523 30.5 40 30.5C39.4477 30.5 39 30.9477 39 31.5C39 32.0523 39.4477 32.5 40 32.5Z" fill="#D5251F"/>
<path d="M34 29.5C34.5523 29.5 35 29.0523 35 28.5C35 27.9477 34.5523 27.5 34 27.5C33.4477 27.5 33 27.9477 33 28.5C33 29.0523 33.4477 29.5 34 29.5Z" fill="#D5251F"/>
<path d="M36 32.5C36.5523 32.5 37 32.0523 37 31.5C37 30.9477 36.5523 30.5 36 30.5C35.4477 30.5 35 30.9477 35 31.5C35 32.0523 35.4477 32.5 36 32.5Z" fill="#D5251F"/>
<path d="M10.5 53.5C12.981 53.5 15 51.481 15 49C15 46.519 12.981 44.5 10.5 44.5C8.019 44.5 6 46.519 6 49C6 51.481 8.019 53.5 10.5 53.5ZM10.5 46.5C11.878 46.5 13 47.621 13 49C13 50.379 11.878 51.5 10.5 51.5C9.122 51.5 8 50.379 8 49C8 47.621 9.122 46.5 10.5 46.5Z" fill="#D5251F"/>
<path d="M50 48.5C50.5523 48.5 51 48.0523 51 47.5C51 46.9477 50.5523 46.5 50 46.5C49.4477 46.5 49 46.9477 49 47.5C49 48.0523 49.4477 48.5 50 48.5Z" fill="#D5251F"/>
<path d="M46 48.5C46.5523 48.5 47 48.0523 47 47.5C47 46.9477 46.5523 46.5 46 46.5C45.4477 46.5 45 46.9477 45 47.5C45 48.0523 45.4477 48.5 46 48.5Z" fill="#D5251F"/>
<path d="M52 51.5C52.5523 51.5 53 51.0523 53 50.5C53 49.9477 52.5523 49.5 52 49.5C51.4477 49.5 51 49.9477 51 50.5C51 51.0523 51.4477 51.5 52 51.5Z" fill="#D5251F"/>
<path d="M48 51.5C48.5523 51.5 49 51.0523 49 50.5C49 49.9477 48.5523 49.5 48 49.5C47.4477 49.5 47 49.9477 47 50.5C47 51.0523 47.4477 51.5 48 51.5Z" fill="#D5251F"/>
<path d="M42 48.5C42.5523 48.5 43 48.0523 43 47.5C43 46.9477 42.5523 46.5 42 46.5C41.4477 46.5 41 46.9477 41 47.5C41 48.0523 41.4477 48.5 42 48.5Z" fill="#D5251F"/>
<path d="M44 51.5C44.5523 51.5 45 51.0523 45 50.5C45 49.9477 44.5523 49.5 44 49.5C43.4477 49.5 43 49.9477 43 50.5C43 51.0523 43.4477 51.5 44 51.5Z" fill="#D5251F"/>
<path d="M38 48.5C38.5523 48.5 39 48.0523 39 47.5C39 46.9477 38.5523 46.5 38 46.5C37.4477 46.5 37 46.9477 37 47.5C37 48.0523 37.4477 48.5 38 48.5Z" fill="#D5251F"/>
<path d="M40 51.5C40.5523 51.5 41 51.0523 41 50.5C41 49.9477 40.5523 49.5 40 49.5C39.4477 49.5 39 49.9477 39 50.5C39 51.0523 39.4477 51.5 40 51.5Z" fill="#D5251F"/>
<path d="M34 48.5C34.5523 48.5 35 48.0523 35 47.5C35 46.9477 34.5523 46.5 34 46.5C33.4477 46.5 33 46.9477 33 47.5C33 48.0523 33.4477 48.5 34 48.5Z" fill="#D5251F"/>
<path d="M36 51.5C36.5523 51.5 37 51.0523 37 50.5C37 49.9477 36.5523 49.5 36 49.5C35.4477 49.5 35 49.9477 35 50.5C35 51.0523 35.4477 51.5 36 51.5Z" fill="#D5251F"/>
</svg>
