<svg width="18" height="18" viewBox="0 0 18 18" fill="none" xmlns="http://www.w3.org/2000/svg">
<path d="M9.09889 4.2972C12.1319 4.32696 14.0319 4.13825 14.2885 7.49997H17.987C17.987 2.29214 13.4451 1.59018 9.00261 1.59018C4.55976 1.59018 0.0181885 2.29214 0.0181885 7.49997H3.688C3.97194 4.07418 6.09113 4.26779 9.09889 4.2972Z" fill="#CCCCCC"/>
<path d="M1.85241 9.17418C2.75323 9.17418 3.50281 9.22809 3.66946 8.34198C3.69187 8.22154 3.70482 8.085 3.70482 7.9271H3.66211H0C0 9.24525 0.829401 9.17418 1.85241 9.17418Z" fill="#CCCCCC"/>
<path d="M14.3124 7.9271H14.2777C14.2777 8.08605 14.2914 8.22294 14.3169 8.34198C14.4927 9.15912 15.2412 9.10836 16.1389 9.10836C17.1668 9.10836 18 9.17593 18 7.9271H14.3124Z" fill="#CCCCCC"/>
<path d="M12.5055 7.02943V6.50567C12.5055 6.27145 12.2355 6.25674 11.9022 6.25674H11.3578C11.0249 6.25674 10.7549 6.27145 10.7549 6.50567V6.95696V7.30706H6.90376V6.95696V6.50567C6.90376 6.27145 6.63382 6.25674 6.30087 6.25674H5.75611C5.42316 6.25674 5.15323 6.27145 5.15323 6.50567V7.02943V7.48667C4.27586 8.39834 1.40499 12.2793 1.30066 12.7491L1.30206 15.8843C1.30206 16.1738 1.53768 16.4095 1.82722 16.4095H15.8315C16.121 16.4095 16.3566 16.1738 16.3566 15.8843V12.7334C16.2533 12.2772 13.3832 8.39799 12.5055 7.48632V7.02943ZM6.714 13.171C6.43216 13.171 6.20354 12.9427 6.20354 12.6605C6.20354 12.3783 6.43216 12.1501 6.714 12.1501C6.99583 12.1501 7.22445 12.3783 7.22445 12.6605C7.22445 12.9427 6.99583 13.171 6.714 13.171ZM6.714 11.4205C6.43216 11.4205 6.20354 11.1922 6.20354 10.91C6.20354 10.6278 6.43216 10.3995 6.714 10.3995C6.99583 10.3995 7.22445 10.6278 7.22445 10.91C7.22445 11.1922 6.99583 11.4205 6.714 11.4205ZM6.714 9.67028C6.43216 9.67028 6.20354 9.44201 6.20354 9.15982C6.20354 8.87799 6.43216 8.64937 6.714 8.64937C6.99583 8.64937 7.22445 8.87799 7.22445 9.15982C7.22445 9.44201 6.99583 9.67028 6.714 9.67028ZM8.81463 13.171C8.5328 13.171 8.30418 12.9427 8.30418 12.6605C8.30418 12.3783 8.5328 12.1501 8.81463 12.1501C9.09682 12.1501 9.32509 12.3783 9.32509 12.6605C9.32509 12.9427 9.09682 13.171 8.81463 13.171ZM8.81463 11.4205C8.5328 11.4205 8.30418 11.1922 8.30418 10.91C8.30418 10.6278 8.5328 10.3995 8.81463 10.3995C9.09682 10.3995 9.32509 10.6278 9.32509 10.91C9.32509 11.1922 9.09682 11.4205 8.81463 11.4205ZM8.81463 9.67028C8.5328 9.67028 8.30418 9.44201 8.30418 9.15982C8.30418 8.87799 8.5328 8.64937 8.81463 8.64937C9.09682 8.64937 9.32509 8.87799 9.32509 9.15982C9.32509 9.44201 9.09682 9.67028 8.81463 9.67028ZM10.9153 13.171C10.6331 13.171 10.4048 12.9427 10.4048 12.6605C10.4048 12.3783 10.6331 12.1501 10.9153 12.1501C11.1975 12.1501 11.4257 12.3783 11.4257 12.6605C11.4257 12.9427 11.1975 13.171 10.9153 13.171ZM10.9153 11.4205C10.6331 11.4205 10.4048 11.1922 10.4048 10.91C10.4048 10.6278 10.6331 10.3995 10.9153 10.3995C11.1975 10.3995 11.4257 10.6278 11.4257 10.91C11.4257 11.1922 11.1975 11.4205 10.9153 11.4205ZM10.9153 9.67028C10.6331 9.67028 10.4048 9.44201 10.4048 9.15982C10.4048 8.87799 10.6331 8.64937 10.9153 8.64937C11.1975 8.64937 11.4257 8.87799 11.4257 9.15982C11.4257 9.44201 11.1975 9.67028 10.9153 9.67028Z" fill="#CCCCCC"/>
</svg>
