<svg width="80" height="80" viewBox="0 0 80 80" fill="none" xmlns="http://www.w3.org/2000/svg">
<rect width="80" height="80" rx="7" fill="#292929"/>
<path d="M64.8998 55.0793L55.7679 20.9984C55.5654 20.2425 55.0806 19.6108 54.4029 19.2195C53.7251 18.8281 52.9356 18.7242 52.1797 18.9268L43.3348 21.2968C43.1138 21.3561 42.9058 21.44 42.7121 21.5436C42.2117 20.643 41.2509 20.032 40.1496 20.032H30.9927C30.2429 20.032 29.5583 20.3153 29.0396 20.7803C28.5208 20.3153 27.8363 20.032 27.0865 20.032H17.9297C16.3143 20.032 15 21.3462 15 22.9616V58.2448C15 59.8602 16.3143 61.1745 17.9297 61.1745H27.0866C27.8364 61.1745 28.5209 60.8911 29.0397 60.4261C29.5584 60.8911 30.243 61.1745 30.9928 61.1745H40.1497C41.7651 61.1745 43.0794 59.8602 43.0794 58.2448V47.9408C43.0794 47.4015 42.6422 46.9643 42.1028 46.9643C41.5635 46.9643 41.1263 47.4015 41.1263 47.9408V58.2448C41.1263 58.7833 40.6882 59.2213 40.1497 59.2213H30.9928C30.4543 59.2213 30.0162 58.7833 30.0162 58.2448V22.9616C30.0162 22.4232 30.4543 21.9851 30.9928 21.9851H40.1497C40.6882 21.9851 41.1263 22.4232 41.1263 22.9616V40.0128C41.1263 40.5522 41.5635 40.9894 42.1028 40.9894C42.6422 40.9894 43.0794 40.5522 43.0794 40.0128V31.6625L50.3953 58.9659C50.7456 60.2733 51.9323 61.1376 53.2258 61.1376C53.4761 61.1376 53.7304 61.1052 53.9834 61.0375L62.8283 58.6674C64.3886 58.2493 65.318 56.6396 64.8998 55.0793ZM27.0866 59.2212H17.9297C17.3912 59.2212 16.9531 58.7832 16.9531 58.2447V22.9616C16.9531 22.4232 17.3912 21.9851 17.9297 21.9851H27.0866C27.625 21.9851 28.0631 22.4232 28.0631 22.9616V58.2448C28.0631 58.7833 27.625 59.2212 27.0866 59.2212ZM62.9157 56.3259C62.7854 56.5517 62.5747 56.7133 62.3228 56.7808L53.4779 59.1508C52.9581 59.2903 52.4212 58.9804 52.2818 58.4603L43.1499 24.3794C43.0105 23.8593 43.3203 23.3228 43.8404 23.1833L52.6853 20.8133C52.7694 20.7907 52.8548 20.7796 52.9396 20.7796C53.1087 20.7796 53.2758 20.824 53.4263 20.9109C53.6522 21.0412 53.8138 21.2519 53.8813 21.5038L63.0132 55.5847C63.0808 55.8368 63.0461 56.0999 62.9157 56.3259Z" fill="white"/>
<path d="M22.5081 46.9546C20.3885 46.9546 18.6641 48.679 18.6641 50.7986C18.6641 52.9183 20.3885 54.6428 22.5081 54.6428C24.6277 54.6428 26.3522 52.9183 26.3522 50.7986C26.3522 48.679 24.6277 46.9546 22.5081 46.9546ZM22.5081 52.6896C21.4654 52.6896 20.6172 51.8413 20.6172 50.7986C20.6172 49.756 21.4655 48.9077 22.5081 48.9077C23.5508 48.9077 24.3991 49.7561 24.3991 50.7986C24.3991 51.8414 23.5509 52.6896 22.5081 52.6896Z" fill="white"/>
<path d="M19.9578 38.9634H25.0586C25.598 38.9634 26.0352 38.5262 26.0352 37.9868C26.0352 37.4475 25.598 37.0103 25.0586 37.0103H19.9578C19.4184 37.0103 18.9812 37.4475 18.9812 37.9868C18.9812 38.5262 19.4184 38.9634 19.9578 38.9634Z" fill="white"/>
<path d="M19.9578 35.1396H25.0586C25.598 35.1396 26.0352 34.7024 26.0352 34.1631C26.0352 33.6237 25.598 33.1865 25.0586 33.1865H19.9578C19.4184 33.1865 18.9812 33.6237 18.9812 34.1631C18.9812 34.7024 19.4184 35.1396 19.9578 35.1396Z" fill="white"/>
<path d="M19.9578 31.3164H25.0586C25.598 31.3164 26.0352 30.8792 26.0352 30.3398C26.0352 29.8005 25.598 29.3633 25.0586 29.3633H19.9578C19.4184 29.3633 18.9812 29.8005 18.9812 30.3398C18.9812 30.8792 19.4184 31.3164 19.9578 31.3164Z" fill="white"/>
<path d="M19.9578 27.4927H25.0586C25.598 27.4927 26.0352 27.0555 26.0352 26.5161C26.0352 25.9768 25.598 25.5396 25.0586 25.5396H19.9578C19.4184 25.5396 18.9812 25.9768 18.9812 26.5161C18.9812 27.0555 19.4184 27.4927 19.9578 27.4927Z" fill="white"/>
<path d="M35.5813 54.6428C37.701 54.6428 39.4254 52.9183 39.4254 50.7986C39.4254 48.679 37.701 46.9546 35.5813 46.9546C33.4617 46.9546 31.7373 48.679 31.7373 50.7986C31.7373 52.9183 33.4617 54.6428 35.5813 54.6428ZM35.5813 48.9077C36.624 48.9077 37.4723 49.7561 37.4723 50.7986C37.4723 51.8413 36.6239 52.6896 35.5813 52.6896C34.5388 52.6896 33.6904 51.8413 33.6904 50.7986C33.6904 49.7561 34.5387 48.9077 35.5813 48.9077Z" fill="white"/>
<path d="M32.9695 38.9634H38.1933C38.7327 38.9634 39.1699 38.5262 39.1699 37.9868C39.1699 37.4475 38.7327 37.0103 38.1933 37.0103H32.9695C32.4301 37.0103 31.9929 37.4475 31.9929 37.9868C31.9929 38.5262 32.4301 38.9634 32.9695 38.9634Z" fill="white"/>
<path d="M32.9695 35.1396H38.1933C38.7327 35.1396 39.1699 34.7024 39.1699 34.1631C39.1699 33.6237 38.7327 33.1865 38.1933 33.1865H32.9695C32.4301 33.1865 31.9929 33.6237 31.9929 34.1631C31.9929 34.7024 32.4301 35.1396 32.9695 35.1396Z" fill="white"/>
<path d="M32.9695 31.3164H38.1933C38.7327 31.3164 39.1699 30.8792 39.1699 30.3398C39.1699 29.8005 38.7327 29.3633 38.1933 29.3633H32.9695C32.4301 29.3633 31.9929 29.8005 31.9929 30.3398C31.9929 30.8792 32.4301 31.3164 32.9695 31.3164Z" fill="white"/>
<path d="M32.9695 27.4927H38.1933C38.7327 27.4927 39.1699 27.0555 39.1699 26.5161C39.1699 25.9768 38.7327 25.5396 38.1933 25.5396H32.9695C32.4301 25.5396 31.9929 25.9768 31.9929 26.5161C31.9929 27.0555 32.4301 27.4927 32.9695 27.4927Z" fill="white"/>
<path d="M54.745 46.1118C52.6976 46.6605 51.4782 48.7725 52.0268 50.8198C52.4865 52.5353 54.0436 53.6694 55.7408 53.6694C56.0691 53.6694 56.4029 53.627 56.7348 53.538C58.7822 52.9894 60.0016 50.8773 59.453 48.83C58.9044 46.7827 56.7928 45.5634 54.745 46.1118ZM56.2294 51.6515C55.2222 51.9215 54.1833 51.3215 53.9134 50.3144C53.6436 49.3072 54.2434 48.2683 55.2505 47.9984C55.4138 47.9547 55.578 47.9338 55.7395 47.9338C56.5744 47.9338 57.3404 48.4917 57.5665 49.3356C57.8364 50.3427 57.2365 51.3816 56.2294 51.6515Z" fill="white"/>
<path d="M55.8969 36.5185C55.7572 35.9975 55.2217 35.6883 54.7009 35.828L49.6412 37.1837C49.1202 37.3232 48.811 37.8588 48.9507 38.3797C49.0675 38.816 49.4621 39.1038 49.8933 39.1038C49.9769 39.1038 50.0621 39.0929 50.1466 39.0703L55.2063 37.7146C55.7273 37.575 56.0365 37.0394 55.8969 36.5185Z" fill="white"/>
<path d="M54.2169 34.0213C54.7379 33.8817 55.0471 33.3462 54.9075 32.8252C54.7678 32.3043 54.2327 31.9949 53.7114 32.1346L48.6518 33.4903C48.1308 33.6299 47.8216 34.1654 47.9613 34.6864C48.0782 35.1227 48.4727 35.4104 48.904 35.4104C48.9875 35.4104 49.0727 35.3996 49.1574 35.3769L54.2169 34.0213Z" fill="white"/>
<path d="M53.2274 30.3284C53.7483 30.1888 54.0574 29.6533 53.9179 29.1323C53.7782 28.6114 53.2429 28.302 52.7218 28.4418L47.6621 29.7975C47.1412 29.9371 46.8321 30.4726 46.9716 30.9936C47.0885 31.4299 47.483 31.7176 47.9143 31.7176C47.9979 31.7176 48.083 31.7068 48.1677 31.6841L53.2274 30.3284Z" fill="white"/>
<path d="M52.2377 26.6355C52.7586 26.496 53.0678 25.9604 52.9283 25.4394C52.7886 24.9185 52.2531 24.6092 51.7322 24.7489L46.6725 26.1047C46.1516 26.2442 45.8424 26.7798 45.982 27.3007C46.0989 27.7371 46.4934 28.0248 46.9247 28.0248C47.0083 28.0248 47.0934 28.0139 47.1781 27.9913L52.2377 26.6355Z" fill="white"/>
<path d="M42.1024 43.0581C41.8456 43.0581 41.5936 43.1626 41.412 43.3442C41.2303 43.5259 41.1259 43.7778 41.1259 44.0347C41.1259 44.2915 41.2303 44.5435 41.412 44.7251C41.5936 44.9067 41.8456 45.0112 42.1024 45.0112C42.3602 45.0112 42.6112 44.9067 42.7928 44.7251C42.9755 44.5435 43.079 44.2915 43.079 44.0347C43.079 43.7778 42.9755 43.5259 42.7928 43.3442C42.6112 43.1626 42.3602 43.0581 42.1024 43.0581Z" fill="white"/>
</svg>
