<svg width="80" height="80" viewBox="0 0 80 80" fill="none" xmlns="http://www.w3.org/2000/svg">
<rect width="80" height="80" rx="7" fill="#292929"/>
<g clip-path="url(index.html#clip0)">
<path d="M64.82 54.2425L61.916 45.791C63.3158 42.9294 64.0556 39.747 64.0606 36.545C64.0691 30.9773 61.915 25.7129 57.9949 21.7217C54.074 17.7297 48.8492 15.4825 43.2828 15.3943C37.5108 15.3031 32.0854 17.4986 28.0066 21.5774C24.0736 25.5103 21.8921 30.6951 21.8231 36.2358C17.9467 39.1543 15.6587 43.7046 15.6662 48.5649C15.6698 50.8393 16.1818 53.1002 17.1518 55.1446L15.1515 60.9657C14.8076 61.9664 15.0588 63.0529 15.807 63.8012C16.3336 64.3278 17.0278 64.6082 17.7418 64.6082C18.0422 64.6082 18.3461 64.5586 18.6425 64.4567L24.4637 62.4564C26.5081 63.4265 28.769 63.9384 31.0434 63.942C31.0516 63.942 31.0594 63.942 31.0676 63.942C36.0002 63.9418 40.5852 61.5948 43.4931 57.6234C46.5192 57.5437 49.5133 56.8112 52.22 55.4871L60.6716 58.3912C61.0237 58.5122 61.3849 58.5712 61.7418 58.5712C62.5902 58.5712 63.4152 58.238 64.0411 57.612C64.9302 56.7228 65.2286 55.4317 64.82 54.2425ZM31.0674 60.9658C31.0611 60.9658 31.0543 60.9658 31.048 60.9658C29.0349 60.9628 27.0358 60.4665 25.2671 59.5307C24.9035 59.3385 24.4765 59.3052 24.0876 59.4388L18.1186 61.4898L20.1697 55.5209C20.3032 55.1319 20.27 54.705 20.0777 54.3414C19.1419 52.5726 18.6456 50.5736 18.6425 48.5604C18.6375 45.3222 19.8972 42.253 22.1 39.9547C22.8196 44.3411 24.9101 48.3831 28.1505 51.5659C31.367 54.7252 35.4102 56.7367 39.7727 57.3943C37.4692 59.6647 34.3641 60.9658 31.0674 60.9658ZM61.9364 55.5075C61.8518 55.5922 61.7514 55.6152 61.6385 55.5763L52.5908 52.4674C52.4337 52.4133 52.2702 52.3866 52.1073 52.3866C51.8672 52.3866 51.6279 52.4447 51.4114 52.5593C48.8281 53.9259 45.909 54.6508 42.9693 54.6553C42.9596 54.6553 42.9508 54.6553 42.9412 54.6553C33.0913 54.6553 24.9552 46.6539 24.7992 36.8063C24.7205 31.8468 26.6071 27.1858 30.1111 23.6818C33.6151 20.1777 38.2769 18.2919 43.2357 18.37C53.0928 18.5264 61.0996 26.6775 61.0844 36.5403C61.0798 39.4799 60.3551 42.3992 58.9886 44.9823C58.7962 45.3459 58.763 45.7728 58.8966 46.1618L62.0055 55.2094C62.0442 55.3227 62.021 55.423 61.9364 55.5075Z" fill="white"/>
<path d="M51.806 28.624H34.0755C33.2536 28.624 32.5874 29.2903 32.5874 30.1121C32.5874 30.934 33.2537 31.6002 34.0755 31.6002H51.806C52.6279 31.6002 53.2941 30.9339 53.2941 30.1121C53.2941 29.2903 52.6279 28.624 51.806 28.624Z" fill="white"/>
<path d="M51.806 34.7441H34.0755C33.2536 34.7441 32.5874 35.4105 32.5874 36.2322C32.5874 37.054 33.2537 37.7203 34.0755 37.7203H51.806C52.6279 37.7203 53.2941 37.054 53.2941 36.2322C53.2941 35.4105 52.6279 34.7441 51.806 34.7441Z" fill="white"/>
<path d="M44.9808 40.8643H34.0752C33.2534 40.8643 32.5872 41.5306 32.5872 42.3523C32.5872 43.1742 33.2535 43.8404 34.0752 43.8404H44.9807C45.8026 43.8404 46.4688 43.1741 46.4688 42.3523C46.4688 41.5306 45.8027 40.8643 44.9808 40.8643Z" fill="white"/>
</g>
<defs>
<clipPath id="clip0">
<rect width="50" height="50" fill="white" transform="translate(15 15)"/>
</clipPath>
</defs>
</svg>
