<svg width="80" height="80" viewBox="0 0 80 80" fill="none" xmlns="http://www.w3.org/2000/svg">
<rect width="80" height="80" rx="7" fill="#292929"/>
<g clip-path="url(index.html#clip0)">
<path d="M42.2728 50.2272C42.9004 50.2272 43.4091 49.7185 43.4091 49.0909C43.4091 48.4633 42.9004 47.9546 42.2728 47.9546C41.6452 47.9546 41.1365 48.4633 41.1365 49.0909C41.1365 49.7185 41.6452 50.2272 42.2728 50.2272Z" fill="white"/>
<path d="M22.9547 57.0456C23.5823 57.0456 24.091 56.5369 24.091 55.9093C24.091 55.2817 23.5823 54.7729 22.9547 54.7729C22.3271 54.7729 21.8184 55.2817 21.8184 55.9093C21.8184 56.5369 22.3271 57.0456 22.9547 57.0456Z" fill="white"/>
<path d="M61.5908 19.5454H22.9545C21.0227 19.5454 19.5454 21.0227 19.5454 22.9545V34.3182C19.5454 35 20 35.4545 20.6817 35.4545C21.3635 35.4545 21.8181 34.9999 21.8181 34.3182V22.9546C21.8181 22.2728 22.2727 21.8183 22.9544 21.8183H61.5907C62.2726 21.8183 62.7271 22.2729 62.7271 22.9546V50.2273C62.7271 50.9092 62.2725 51.3637 61.5907 51.3637H34.3181C33.6362 51.3637 33.1817 51.8183 33.1817 52.5C33.1817 53.1817 33.6363 53.6363 34.3181 53.6363H36.5908V57.0454C36.5908 57.7272 36.1362 58.1817 35.4545 58.1817H34.3182C33.6363 58.1817 33.1818 58.6363 33.1818 59.3181C33.1818 59.9998 33.6364 60.4544 34.3182 60.4544H50.2273C50.9091 60.4544 51.3636 59.9998 51.3636 59.3181C51.3636 58.6363 50.909 58.1817 50.2273 58.1817H49.0909C48.4091 58.1817 47.9546 57.7271 47.9546 57.0454V53.6363H61.5909C63.5228 53.6363 65 52.1591 65 50.2272V22.9546C64.9999 21.0228 63.5227 19.5454 61.5908 19.5454ZM38.6362 58.1818C38.7499 57.8409 38.8635 57.5 38.8635 57.0455V53.6364H45.6817V57.0455C45.6817 57.5001 45.7953 57.8409 45.9089 58.1818H38.6362Z" fill="white"/>
<path d="M59.3182 44.5454H34.3182C33.6364 44.5454 33.1819 45 33.1819 45.6817C33.1819 46.3635 33.6365 46.8181 34.3182 46.8181H59.3182C60 46.8181 60.4545 46.3635 60.4545 45.6817C60.4545 45 60 44.5454 59.3182 44.5454Z" fill="white"/>
<path d="M27.5 37.7271H18.4091C16.4772 37.7271 15 39.2044 15 41.1361V57.0452C15 58.9771 16.4772 60.4543 18.4091 60.4543H27.5C29.4318 60.4543 30.9091 58.9771 30.9091 57.0452V41.1361C30.9091 39.2044 29.4318 37.7271 27.5 37.7271ZM28.6363 57.0452C28.6363 57.7271 28.1817 58.1816 27.5 58.1816H18.4091C17.7272 58.1816 17.2728 57.727 17.2728 57.0452V41.1361C17.2728 40.4543 17.7273 39.9998 18.4091 39.9998H27.5C28.1818 39.9998 28.6363 40.4544 28.6363 41.1361V57.0452Z" fill="white"/>
</g>
<defs>
<clipPath id="clip0">
<rect width="50" height="50" fill="white" transform="translate(15 15)"/>
</clipPath>
</defs>
</svg>
