<svg width="80" height="80" viewBox="0 0 80 80" fill="none" xmlns="http://www.w3.org/2000/svg">
<rect width="80" height="80" rx="7" fill="#292929"/>
<path d="M58.4448 25.7219L48.0281 15.3052C47.8328 15.1099 47.5684 15 47.2916 15H25.4166C23.1197 15 21.25 16.8687 21.25 19.1667V60.8334C21.25 63.1313 23.1197 65 25.4167 65H54.5834C56.8803 65 58.75 63.1313 58.75 60.8333V26.4583C58.75 26.1816 58.6401 25.9172 58.4448 25.7219ZM48.3333 18.5563L55.1937 25.4167H50.4166C49.2671 25.4167 48.3333 24.4818 48.3333 23.3334V18.5563ZM56.6667 60.8333C56.6667 61.9817 55.7328 62.9166 54.5834 62.9166H25.4167C24.2672 62.9166 23.3334 61.9817 23.3334 60.8333V19.1667C23.3334 18.0183 24.2673 17.0834 25.4167 17.0834H46.25V23.3334C46.25 25.6313 48.1197 27.5 50.4167 27.5H56.6667V60.8333Z" fill="white"/>
<path d="M51.4583 44.1665H36.875C36.2992 44.1665 35.8333 44.6324 35.8333 45.2082C35.8333 45.784 36.2992 46.2499 36.875 46.2499H51.4583C52.034 46.2499 52.5 45.784 52.5 45.2082C52.5 44.6324 52.034 44.1665 51.4583 44.1665Z" fill="white"/>
<path d="M28.5417 27.4999H41.0417C41.6175 27.4999 42.0834 27.034 42.0834 26.4582C42.0834 25.8824 41.6175 25.4165 41.0417 25.4165H28.5417C27.9659 25.4165 27.5 25.8824 27.5 26.4582C27.5 27.034 27.9659 27.4999 28.5417 27.4999Z" fill="white"/>
<path d="M51.4583 37.9165H28.5417C27.9659 37.9165 27.5 38.3824 27.5 38.9582C27.5 39.534 27.9659 39.9999 28.5417 39.9999H51.4584C52.0342 39.9999 52.5001 39.534 52.5001 38.9582C52.5 38.3824 52.0341 37.9165 51.4583 37.9165Z" fill="white"/>
<path d="M27.5 32.7082C27.5 33.284 27.9659 33.7499 28.5417 33.7499H51.4584C52.0342 33.7499 52.5001 33.284 52.5001 32.7082C52.5001 32.1324 52.0342 31.6665 51.4584 31.6665H28.5417C27.9659 31.6666 27.5 32.1325 27.5 32.7082Z" fill="white"/>
<path d="M42.3946 52.7993C40.8626 54.3069 38.9319 56.0057 38.1669 56.5225C37.9858 56.1125 37.7804 55.4269 37.6562 55.0108C37.2331 53.608 36.9015 52.5002 35.8333 52.5002C34.9198 52.5002 34.5088 53.3354 33.8862 54.5988C33.5811 55.2173 32.9483 56.5052 32.7185 56.6669C32.4926 56.6435 32.1061 56.38 31.6809 55.9833C32.8284 54.5012 33.75 52.7851 33.75 51.4585C33.75 49.1818 31.8335 48.3335 30.625 48.3335C29.3962 48.3335 27.5 50.1229 27.5 52.5002C27.5 53.5541 28.0839 54.8562 28.9119 55.9985C28.5823 56.3281 28.2466 56.6272 27.917 56.8754C27.4572 57.2202 27.3636 57.8733 27.7074 58.3331C27.9129 58.6067 28.2263 58.7502 28.5416 58.7502C28.7593 58.7502 28.979 58.682 29.1662 58.5417C29.5264 58.2722 29.9129 57.9334 30.3015 57.5468C31.1173 58.2731 31.984 58.7502 32.7083 58.7502C34.1162 58.7502 34.9523 57.148 35.6787 55.674C36.1589 57.265 36.6228 58.7502 37.9167 58.7502C38.2646 58.7502 39.3205 58.7502 43.8555 54.2845C44.2664 53.8807 44.2705 53.2215 43.8677 52.8115C43.4647 52.3995 42.8056 52.3975 42.3946 52.7993ZM30.3076 54.3476C29.8845 53.7026 29.5833 53.0333 29.5833 52.5002C29.5833 51.2297 30.5151 50.486 30.625 50.4169C30.7979 50.4169 31.6667 50.4667 31.6667 51.4586C31.6667 52.1228 31.1052 53.2438 30.3076 54.3476Z" fill="white"/>
</svg>
