<svg width="35" height="35" viewBox="0 0 35 35" fill="none" xmlns="http://www.w3.org/2000/svg">
<circle cx="17.5" cy="17.5" r="17.5" fill="white"/>
<path d="M17.5679 26.2192C17.1089 26.32 16.5603 26.2198 16.1997 25.8551L17.5679 26.2192ZM17.5679 26.2192C18.0366 26.1163 18.499 25.7804 18.5883 25.1878M17.5679 26.2192L18.5883 25.1878M18.5883 25.1878C18.9638 22.7013 20.0936 20.3933 21.5091 18.1869M18.5883 25.1878L21.5091 18.1869M21.5091 18.1869C22.4465 16.7257 23.4935 15.3311 24.5219 13.9613M21.5091 18.1869L24.5219 13.9613M24.5219 13.9613C25.0535 13.2532 25.5802 12.5516 26.0842 11.851M24.5219 13.9613L26.0842 11.851M26.0842 11.851C26.3446 11.4891 26.4076 11.099 26.2998 10.7441M26.0842 11.851L26.2998 10.7441M26.2998 10.7441C26.1958 10.4015 25.9456 10.1321 25.6529 9.96252M26.2998 10.7441L25.6529 9.96252M25.6529 9.96252C25.0731 9.62665 24.1931 9.6214 23.6628 10.359L25.6529 9.96252ZM23.6628 10.3591C23.1875 11.0197 22.6855 11.6926 22.1749 12.377C21.2662 13.5949 20.3305 14.8491 19.4707 16.1348C18.2325 17.9865 17.126 19.9391 16.4323 22.0271C15.0597 20.6302 13.6582 19.2458 12.1061 18.0031C11.3995 17.4371 10.5501 17.6699 10.0756 18.1412C9.83595 18.3792 9.66221 18.7029 9.65061 19.06C9.63857 19.4307 9.80325 19.7889 10.1507 20.0672C11.9259 21.4891 13.5027 23.1016 15.1023 24.7374C15.466 25.1094 15.8309 25.4825 16.1996 25.8549L23.6628 10.3591Z" fill="#D5251F" stroke="#D4251F" stroke-width="0.7"/>
</svg>
