<svg width="48" height="38" viewBox="0 0 48 38" fill="none" xmlns="http://www.w3.org/2000/svg">
<path d="M39.8906 17.6094C39.8906 19.0156 40.6198 20.7865 42.0781 22.9219C43.4844 25.0573 44.1875 27.2188 44.1875 29.4062C44.1875 31.5938 43.4062 33.4688 41.8438 35.0312C40.2812 36.5938 38.3542 37.375 36.0625 37.375C33.7708 37.375 31.8438 36.4896 30.2812 34.7188C28.7708 32.9479 28.0156 30.7865 28.0156 28.2344C28.0156 23.9115 29.9167 19.0417 33.7188 13.625C37.5208 8.20833 41.9219 3.78125 46.9219 0.34375L47.3906 0.65625C42.3906 7.0625 39.8906 12.7135 39.8906 17.6094ZM12.8594 17.6094C12.8073 19.0156 13.5104 20.7865 14.9688 22.9219C16.4271 25.0573 17.1562 27.2188 17.1562 29.4062C17.1562 31.5938 16.401 33.4688 14.8906 35.0312C13.3802 36.5938 11.4271 37.375 9.03125 37.375C6.63542 37.375 4.70833 36.4896 3.25 34.7188C1.73958 32.9479 0.984375 30.7865 0.984375 28.2344C0.984375 23.9115 2.88542 19.0417 6.6875 13.625C10.4896 8.20833 14.8906 3.78125 19.8906 0.34375L20.3594 0.65625C15.3594 7.0625 12.8594 12.7135 12.8594 17.6094Z" fill="#DDDDDD"/>
</svg>
