<svg width="100" height="80" viewBox="0 0 100 80" fill="none" xmlns="http://www.w3.org/2000/svg">
<path d="M0.5 65V15C0.5 6.99187 6.99187 0.5 15 0.5H62.5C67.064 0.5 71.3616 2.64881 74.1 6.3L99.375 40L74.1 73.7C71.3616 77.3512 67.064 79.5 62.5 79.5H15C6.99187 79.5 0.5 73.0081 0.5 65Z" fill="white" stroke="#D4251F"/>
<path d="M56.1845 53.6506C55.8285 53.6506 55.54 53.9391 55.54 54.2951V60.3549C55.54 60.5511 55.3803 60.7108 55.1841 60.7108H51.7193V48.0181C51.7193 47.6621 51.4308 47.3735 51.0748 47.3735C50.7189 47.3735 50.4303 47.6621 50.4303 48.0181V60.7108H43.4535L45.4767 58.4851C45.6977 58.2419 45.802 57.8955 45.7555 57.5581C45.7546 57.5515 45.7536 57.545 45.7524 57.5385L43.8255 46.1546L44.3446 45.3731C44.6317 45.5769 44.8528 45.7732 45.2674 45.7732C45.6892 45.7732 46.0836 45.5371 46.2776 45.1485V45.1484L48.31 41.075L52.94 42.8681C53.1075 42.9399 55.5398 44.0353 55.5398 46.9276V51.2872C55.5397 51.6431 55.8283 51.9317 56.1843 51.9317C56.5403 51.9317 56.8288 51.6432 56.8288 51.2872V46.9276C56.8288 43.1168 53.5659 41.7316 53.427 41.6744C53.423 41.6727 53.4188 41.6711 53.4147 41.6695L45.7089 38.6852V36.878C46.9328 35.9261 47.7814 34.5151 47.9945 32.9053C48.6047 32.8624 49.171 32.6345 49.6334 32.2368C50.2373 31.7175 50.5838 30.9617 50.5838 30.1635C50.5838 29.5011 50.3448 28.8686 49.9189 28.3757V25.9881C49.9188 21.5835 46.3354 18 41.9307 18C37.5261 18 33.9427 21.5835 33.9427 25.9881V28.4383C33.5122 28.9262 33.2781 29.5267 33.2781 30.1634C33.2781 30.9619 33.6244 31.7176 34.2285 32.237C34.6906 32.6345 35.2565 32.8621 35.8665 32.9052C36.0813 34.5451 36.9547 36.0087 38.2828 36.9734V38.6852L30.5853 41.6694C30.5813 41.671 30.5773 41.6726 30.5732 41.6742C30.4343 41.7314 27.1714 43.1166 27.1714 46.9274V60.3547C27.1714 61.2618 27.9093 61.9997 28.8164 61.9997H34.9572C35.3132 61.9997 35.6018 61.7112 35.6018 61.3552C35.6018 60.9993 35.3132 60.7107 34.9572 60.7107H33.5705V48.0181C33.5705 47.6621 33.2819 47.3735 32.9259 47.3735C32.57 47.3735 32.2814 47.6621 32.2814 48.0181V60.7108H28.8165C28.6203 60.7108 28.4606 60.5512 28.4606 60.355V46.9275C28.4606 44.0255 30.9092 42.9326 31.0596 42.8683L35.686 41.0748L37.7186 45.1484C37.9131 45.538 38.3079 45.7732 38.7289 45.7732C39.1414 45.7732 39.3604 45.5799 39.6517 45.3731L40.1708 46.1546L38.244 57.5386C38.2429 57.545 38.2419 57.5514 38.241 57.558C38.1944 57.8952 38.2987 58.2418 38.5198 58.4852L40.543 60.7109H37.9653C37.6094 60.7109 37.3208 60.9995 37.3208 61.3555C37.3208 61.7114 37.6094 62 37.9653 62H55.1842C56.0912 62 56.8292 61.262 56.8292 60.355V54.2952C56.829 53.9391 56.5404 53.6506 56.1845 53.6506ZM47.1027 40.6075L45.2079 44.4051C45.1608 44.3716 44.1566 43.6582 42.9291 42.7865C43.4617 42.129 42.8386 42.8982 45.2696 39.8976L47.1027 40.6075ZM43.2929 44.6263L42.8015 45.3659H41.1942L40.7028 44.6263L41.9979 43.7065L43.2929 44.6263ZM39.5718 38.8932V37.687C40.3549 38.0026 41.1917 38.149 42.009 38.149C42.854 38.149 43.6827 37.9689 44.4197 37.6466V38.8985L41.9979 41.8878L39.5718 38.8932ZM49.2946 30.1635C49.2945 30.5857 49.1117 30.9852 48.7928 31.2595C48.582 31.4408 48.3274 31.5567 48.0485 31.6021V28.7252C48.7893 28.8455 49.2946 29.4599 49.2946 30.1635ZM35.8133 31.6021C35.0641 31.4805 34.5672 30.8611 34.5672 30.1634C34.5672 29.4744 35.1384 28.9135 35.8133 28.7576V31.6021ZM35.8479 27.4442C35.6426 27.4677 35.4073 27.5233 35.2319 27.583V25.9881C35.2319 22.2943 38.237 19.2891 41.9308 19.2891C45.6247 19.2891 48.6297 22.2943 48.6297 25.9881V27.5387C48.4424 27.4817 48.2481 27.4441 48.0486 27.4264C48.0486 26.8045 48.054 26.9244 46.0195 24.7371C45.6453 24.3351 45.0264 24.2508 44.5553 24.5586C42.3098 26.0254 39.5705 26.7624 37.0431 26.5809C36.4887 26.5394 35.9838 26.9045 35.8479 27.4442ZM37.1024 32.1096V28.0884V27.8765C39.8846 28.0395 42.8016 27.2129 45.1581 25.7038C46.0912 26.7056 46.5965 27.2311 46.7595 27.431C46.7595 27.9367 46.7595 31.5307 46.7595 32.1095C46.7595 34.726 44.626 36.8598 42.0091 36.8598C39.0706 36.8598 37.1024 34.5803 37.1024 32.1096ZM38.7881 44.4051L36.8932 40.6075L38.7231 39.8988L41.0641 42.7884C39.8736 43.6338 38.8961 44.3283 38.7881 44.4051ZM39.5276 57.6775L41.3932 46.6549H42.6024L44.468 57.6775L41.9978 60.3951L39.5276 57.6775Z" fill="#D4251F"/>
</svg>
