<svg width="100" height="80" viewBox="0 0 100 80" fill="none" xmlns="http://www.w3.org/2000/svg">
<path d="M0.5 65V15C0.5 6.99187 6.99187 0.5 15 0.5H62.5C67.064 0.5 71.3616 2.64881 74.1 6.3L99.375 40L74.1 73.7C71.3616 77.3512 67.064 79.5 62.5 79.5H15C6.99187 79.5 0.5 73.0081 0.5 65Z" fill="white" stroke="#D4251F"/>
<g clip-path="url(service-onetime.html#clip0)">
<path d="M32.3163 26.5175C32.3163 25.7961 31.7294 25.2092 31.0082 25.2092H28.234C27.5126 25.2092 26.9258 25.7961 26.9258 26.5175V29.2917C26.9258 30.0131 27.5127 30.5999 28.234 30.5999H31.0082C31.7296 30.5999 32.3164 30.0131 32.3164 29.2917V26.5175H32.3163ZM31.0274 29.2916C31.0274 29.3023 31.0187 29.3109 31.0082 29.3109H28.234C28.2234 29.3109 28.2147 29.3022 28.2147 29.2916V26.5175C28.2147 26.5068 28.2234 26.4982 28.234 26.4982H31.0082C31.0188 26.4982 31.0275 26.5069 31.0275 26.5175V29.2916H31.0274Z" fill="#D4251F"/>
<path d="M39.2134 26.5175C39.2134 25.7961 38.6265 25.2092 37.9052 25.2092H35.131C34.4096 25.2092 33.8228 25.7961 33.8228 26.5175V29.2917C33.8228 30.0131 34.4097 30.5999 35.131 30.5999H37.9052C38.6266 30.5999 39.2134 30.0131 39.2134 29.2917V26.5175ZM37.9245 29.2916C37.9245 29.3023 37.9158 29.3109 37.9052 29.3109H35.131C35.1203 29.3109 35.1116 29.3022 35.1116 29.2916V26.5175C35.1116 26.5068 35.1203 26.4982 35.131 26.4982H37.9052C37.9158 26.4982 37.9245 26.5069 37.9245 26.5175V29.2916Z" fill="#D4251F"/>
<path d="M32.3163 33.6458C32.3163 32.9244 31.7294 32.3375 31.0082 32.3375H28.234C27.5126 32.3375 26.9258 32.9244 26.9258 33.6458V36.42C26.9258 37.1413 27.5127 37.7282 28.234 37.7282H31.0082C31.7296 37.7282 32.3164 37.1413 32.3164 36.42V33.6458H32.3163ZM31.0274 36.4199C31.0274 36.4306 31.0187 36.4391 31.0082 36.4391H28.234C28.2234 36.4391 28.2147 36.4305 28.2147 36.4199V33.6458C28.2147 33.6351 28.2234 33.6265 28.234 33.6265H31.0082C31.0188 33.6265 31.0275 33.6352 31.0275 33.6458V36.4199H31.0274Z" fill="#D4251F"/>
<path d="M39.2134 33.6458C39.2134 32.9244 38.6265 32.3375 37.9052 32.3375H35.131C34.4096 32.3375 33.8228 32.9244 33.8228 33.6458V36.42C33.8228 37.1413 34.4097 37.7282 35.131 37.7282H37.9052C38.6266 37.7282 39.2134 37.1413 39.2134 36.42V33.6458ZM37.9245 36.4199C37.9245 36.4306 37.9158 36.4391 37.9052 36.4391H35.131C35.1203 36.4391 35.1116 36.4305 35.1116 36.4199V33.6458C35.1116 33.6351 35.1203 33.6265 35.131 33.6265H37.9052C37.9158 33.6265 37.9245 33.6352 37.9245 33.6458V36.4199Z" fill="#D4251F"/>
<path d="M31.0082 39.4659H28.234C27.5126 39.4659 26.9258 40.0527 26.9258 40.7741V43.5483C26.9258 44.2697 27.5127 44.8566 28.234 44.8566H31.0082C31.7296 44.8566 32.3164 44.2697 32.3164 43.5483V40.7741C32.3163 40.0527 31.7295 39.4659 31.0082 39.4659ZM31.0274 43.5483C31.0274 43.559 31.0187 43.5676 31.0082 43.5676H28.234C28.2234 43.5676 28.2147 43.5589 28.2147 43.5483V40.7741C28.2147 40.7635 28.2234 40.7549 28.234 40.7549H31.0082C31.0188 40.7549 31.0275 40.7635 31.0275 40.7741V43.5483H31.0274Z" fill="#D4251F"/>
<path d="M37.9052 39.4659H35.131C34.4096 39.4659 33.8228 40.0527 33.8228 40.7741V43.5483C33.8228 44.2697 34.4097 44.8566 35.131 44.8566H37.9052C38.6266 44.8566 39.2134 44.2697 39.2134 43.5483V40.7741C39.2134 40.0527 38.6266 39.4659 37.9052 39.4659ZM37.9245 43.5483C37.9245 43.559 37.9158 43.5676 37.9052 43.5676H35.131C35.1203 43.5676 35.1116 43.5589 35.1116 43.5483V40.7741C35.1116 40.7635 35.1203 40.7549 35.131 40.7549H37.9052C37.9158 40.7549 37.9245 40.7635 37.9245 40.7741V43.5483Z" fill="#D4251F"/>
<path d="M63.9492 57.9017H62.9927V52.4558C62.9927 50.2863 61.5388 48.3443 59.4571 47.7331L55.5538 46.5872C55.4438 46.484 55.317 46.3991 55.1784 46.3374L54.368 45.9763C54.1387 45.8742 53.8943 45.8287 53.6526 45.8363V44.0191C54.9353 43.0843 55.8288 41.6405 56.0224 39.9764C56.6577 39.8194 57.1302 39.2444 57.1302 38.5613V36.8042V33.4322C57.1302 32.248 56.1848 31.2805 55.0091 31.2446C54.9456 30.0943 53.9897 29.1779 52.8238 29.1779H47.5025C47.0123 29.1779 46.5417 29.2631 46.104 29.4183C46.108 29.3765 46.1104 29.3343 46.1104 29.2915V26.5174C46.1104 25.7961 45.5236 25.2092 44.8023 25.2092H42.0281C41.3067 25.2092 40.7198 25.7961 40.7198 26.5174V29.2917C40.7198 30.013 41.3068 30.5999 42.0281 30.5999H44.3571C43.9231 31.091 43.6015 31.6836 43.4343 32.3376H42.0281C41.3067 32.3376 40.7198 32.9245 40.7198 33.6459V36.4201C40.7198 37.1415 41.3068 37.7283 42.0281 37.7283H43.3041V38.5614C43.3041 38.9029 43.4221 39.2174 43.6195 39.4661H42.028C41.3066 39.4661 40.7197 40.0529 40.7197 40.7743V43.5485C40.7197 44.2699 41.3067 44.8567 42.028 44.8567H44.8022C45.5236 44.8567 46.1103 44.2698 46.1103 43.5485V43.4493C46.3193 43.6557 46.5438 43.8461 46.7815 44.0194V45.833C46.5419 45.8272 46.3 45.8733 46.0738 45.9749L45.279 46.3318C45.1412 46.3936 45.0153 46.4783 44.9061 46.5811L40.9794 47.7336C38.8976 48.3446 37.4436 50.2866 37.4436 52.4563V52.8939C37.4436 53.2498 37.7321 53.5383 38.0881 53.5383C38.444 53.5383 38.7325 53.2498 38.7325 52.8939V52.4563C38.7325 50.8549 39.8057 49.4213 41.3424 48.9703L44.5577 48.0266C44.6236 48.2089 44.7295 48.3798 44.8751 48.5256L47.0767 50.7302C47.0789 50.7323 47.081 50.7345 47.0832 50.7365C47.3558 51.0019 47.7088 51.1361 48.063 51.136C48.1457 51.136 48.2284 51.1284 48.3102 51.1137L48.7673 51.8988L47.7033 57.9017H42.7658V56.5015C42.7658 56.1456 42.4773 55.8571 42.1214 55.8571C41.7654 55.8571 41.4769 56.1457 41.4769 56.5015V57.9017H38.7328V55.9065C38.7328 55.5506 38.4443 55.2621 38.0883 55.2621C37.7324 55.2621 37.4439 55.5506 37.4439 55.9065V57.9017H34.7616V50.3811H34.8426C35.1985 50.3811 35.487 50.0925 35.487 49.7366C35.487 49.3807 35.1985 49.0922 34.8426 49.0922H27.0833C26.7273 49.0922 26.4388 49.3808 26.4388 49.7366C26.4388 50.0926 26.7273 50.3811 27.0833 50.3811H27.1642V57.9017H24.8302V24.1534C24.8302 23.6166 25.267 23.18 25.8037 23.18H47.2324C47.7692 23.18 48.2058 23.6166 48.2058 24.1534V26.7667C48.2058 27.1227 48.4943 27.4112 48.8502 27.4112C49.2062 27.4112 49.4946 27.1226 49.4946 26.7667V24.1534C49.4946 23.0039 48.6327 22.0526 47.5214 21.9102V19.5855C47.5214 18.7112 46.8101 18 45.9359 18H27.1001C26.2259 18 25.5147 18.7112 25.5147 19.5855V21.9102C24.4033 22.0526 23.5414 23.0039 23.5414 24.1534V57.9659C22.6572 58.1931 22.002 58.9968 22.002 59.9508C22.002 61.0807 22.9211 62 24.0511 62H63.9492C65.0792 62 65.9984 61.0807 65.9984 59.9508C65.9984 58.8209 65.0792 57.9017 63.9492 57.9017ZM27.1001 19.289H45.9359C46.0994 19.289 46.2325 19.422 46.2325 19.5855V21.891H26.8036V19.5855C26.8036 19.4219 26.9367 19.289 27.1001 19.289ZM61.7038 52.4558V57.9017H58.9576V56.5015C58.9576 56.1456 58.6691 55.8571 58.3131 55.8571C57.9572 55.8571 57.6687 56.1457 57.6687 56.5015V57.9017H52.7339L51.6682 51.8922L52.1316 51.0618C52.2178 51.0782 52.3051 51.0871 52.3925 51.0871C52.7442 51.0871 53.0956 50.9545 53.3698 50.6911L55.5724 48.5462C55.7238 48.3988 55.8336 48.2222 55.9009 48.0325L59.0942 48.97C60.6306 49.421 61.7038 50.8544 61.7038 52.4558ZM49.8137 51.1342L49.4079 50.4372L50.272 49.7153L51.0402 50.3722L50.615 51.1341H49.8137V51.1342ZM53.8434 47.1536L54.654 47.5148C54.695 47.533 54.707 47.5895 54.6731 47.6227L52.4737 49.7645C52.4304 49.8058 52.3636 49.8078 52.3181 49.769L51.2975 48.8963L53.4938 47.1958C53.5939 47.1182 53.7279 47.1021 53.8434 47.1536ZM52.8239 30.4669C53.32 30.4669 53.7235 30.8704 53.7235 31.3665C53.7235 32.0094 54.2466 32.5325 54.8895 32.5325H54.9415C55.4377 32.5325 55.8412 32.9361 55.8412 33.4322V36.1597H55.4187C55.1816 36.1597 54.9886 35.9669 54.9886 35.7298V35.1417C54.9886 34.1135 54.1446 33.3611 53.2155 33.3611C53.0275 33.3611 52.8375 33.3914 52.6516 33.4528C51.0824 33.9715 49.3537 33.9717 47.7823 33.4524C46.6302 33.0717 45.4456 33.9279 45.4456 35.1414V35.7298C45.4456 35.9669 45.2527 36.1597 45.0156 36.1597H44.593V33.3763C44.593 31.7721 45.8982 30.4669 47.5025 30.4669H52.8239ZM42.0089 29.2916V26.5174C42.0089 26.5068 42.0176 26.4982 42.0282 26.4982H44.8025C44.813 26.4982 44.8217 26.5069 44.8217 26.5174V29.2917C44.8217 29.3023 44.813 29.3109 44.8025 29.3109H42.0282C42.0176 29.3108 42.0089 29.3022 42.0089 29.2916ZM42.0089 36.4199V33.6458C42.0089 33.6351 42.0176 33.6265 42.0282 33.6265H43.3042V36.4393H42.0282C42.0176 36.4392 42.0089 36.4306 42.0089 36.4199ZM44.8216 43.5484C44.8216 43.559 44.8129 43.5676 44.8024 43.5676H42.0281C42.0175 43.5676 42.0088 43.559 42.0088 43.5484V40.7741C42.0088 40.7635 42.0175 40.7549 42.0281 40.7549H44.5573C44.6271 41.0257 44.7154 41.289 44.8215 41.5428V43.5484H44.8216ZM45.6708 39.5858C45.6403 39.1058 45.2409 38.7298 44.7617 38.7298C44.6688 38.7298 44.5932 38.6541 44.5932 38.5612V37.4487H45.0158C45.9636 37.4487 46.7347 36.6776 46.7347 35.7298V35.1414C46.7347 34.8109 47.0568 34.5702 47.3802 34.677C49.2105 35.2817 51.2263 35.2815 53.0562 34.6766C53.373 34.572 53.6998 34.807 53.6998 35.1417V35.7298C53.6998 36.6776 54.4709 37.4487 55.4188 37.4487H55.8413V38.5612C55.8413 38.6541 55.7657 38.7298 55.6728 38.7298C55.1935 38.7298 54.7942 39.1057 54.7637 39.586C54.6129 41.9779 52.6159 43.8515 50.2172 43.8515C47.8186 43.8515 45.8216 41.9778 45.6708 39.5858ZM50.2173 45.1404C50.9731 45.1404 51.6976 44.9947 52.3638 44.7303V46.4404L50.2699 48.0618L48.0707 46.4185V44.7304C48.7369 44.9947 49.4614 45.1404 50.2173 45.1404ZM45.7875 47.6146C45.7526 47.5797 45.7685 47.5247 45.8072 47.5074L46.6019 47.1506C46.7156 47.0997 46.848 47.1142 46.9481 47.1888L49.2378 48.8998L48.1373 49.819C48.0922 49.8565 48.0268 49.8547 47.9841 49.8149L45.7875 47.6146ZM49.9835 52.4231H50.4532L51.4248 57.9017H49.0125L49.9835 52.4231ZM28.4532 50.3811H33.4725V57.9017H28.4532V50.3811ZM63.9492 60.711H24.0511C23.6319 60.711 23.2909 60.37 23.2909 59.9508C23.2909 59.5316 23.6319 59.1907 24.0511 59.1907H63.9492C64.3685 59.1907 64.7095 59.5317 64.7095 59.9508C64.7095 60.3699 64.3684 60.711 63.9492 60.711Z" fill="#D4251F"/>
</g>
<defs>
<clipPath id="clip0">
<rect width="44" height="44" fill="white" transform="translate(22 18)"/>
</clipPath>
</defs>
</svg>
