<svg width="16" height="20" viewBox="0 0 16 20" fill="none" xmlns="http://www.w3.org/2000/svg">
<path fill-rule="evenodd" clip-rule="evenodd" d="M0.208374 8.45795C0.208374 4.2414 3.73193 0.833336 7.99403 0.833336C12.2681 0.833336 15.7917 4.2414 15.7917 8.45795C15.7917 10.5827 15.019 12.5553 13.7471 14.2273C12.3439 16.0716 10.6145 17.6784 8.66787 18.9397C8.22234 19.2312 7.82026 19.2532 7.33129 18.9397C5.37355 17.6784 3.64412 16.0716 2.253 14.2273C0.980192 12.5553 0.208374 10.5827 0.208374 8.45795ZM5.42808 8.69536C5.42808 10.1079 6.58073 11.2189 7.99403 11.2189C9.40826 11.2189 10.572 10.1079 10.572 8.69536C10.572 7.29382 9.40826 6.12877 7.99403 6.12877C6.58073 6.12877 5.42808 7.29382 5.42808 8.69536Z"/>
</svg>
