<svg width="132" height="109" viewBox="0 0 132 109" fill="none" xmlns="http://www.w3.org/2000/svg">
<path d="M96.9309 97.1751V95.872C96.9309 95.813 96.9196 95.7596 96.8946 95.7097C96.8707 95.6609 96.8299 95.6223 96.7709 95.5939C96.7209 95.57 96.6596 95.5485 96.5892 95.5303C96.5166 95.511 96.4553 95.5008 96.4042 95.4974V95.301H98.0377V95.4974C97.9866 95.4997 97.923 95.5076 97.8481 95.5224C97.7732 95.5371 97.7176 95.5507 97.679 95.5644C97.6165 95.5871 97.5745 95.6245 97.553 95.6756C97.5325 95.7278 97.5212 95.7846 97.5212 95.8447V98.6815C97.5212 98.7462 97.5325 98.8007 97.553 98.8449C97.5745 98.8892 97.6165 98.9278 97.679 98.9618C97.7108 98.9789 97.7675 98.9948 97.8481 99.0118C97.9287 99.0277 97.9923 99.0368 98.0377 99.039V99.2365H96.4042V99.039C96.4485 99.0356 96.5132 99.0299 96.596 99.022C96.68 99.0152 96.7379 99.0038 96.7697 98.9891C96.8242 98.9675 96.8651 98.9335 96.8912 98.8881C96.9173 98.8427 96.9298 98.7836 96.9298 98.7121V97.4112C96.7584 97.4986 96.5801 97.5736 96.3963 97.636C96.2124 97.6984 96.0171 97.7302 95.8071 97.7302C95.5722 97.7302 95.3792 97.7041 95.2282 97.6496C95.0772 97.5963 94.9614 97.5202 94.8797 97.4226C94.8025 97.3318 94.7503 97.2251 94.7219 97.1002C94.6947 96.9753 94.6799 96.8369 94.6799 96.6859V95.872C94.6799 95.813 94.6686 95.7596 94.6436 95.7097C94.6198 95.6609 94.5778 95.6223 94.5199 95.5939C94.4699 95.57 94.4086 95.5485 94.3382 95.5303C94.2667 95.511 94.2054 95.5008 94.1532 95.4974V95.301H95.7867V95.4974C95.7356 95.4997 95.6732 95.5076 95.6017 95.5224C95.5301 95.5371 95.4734 95.5507 95.4348 95.5644C95.3724 95.5871 95.3304 95.6245 95.3088 95.6756C95.2884 95.7278 95.277 95.7846 95.277 95.8447V96.5542C95.277 96.6473 95.2815 96.7392 95.2906 96.83C95.2986 96.922 95.3281 97.0094 95.378 97.0957C95.4246 97.1774 95.4972 97.2444 95.5982 97.2977C95.6993 97.3499 95.8366 97.376 96.0126 97.376C96.1477 97.376 96.302 97.3579 96.4746 97.3216C96.6483 97.2852 96.8004 97.2364 96.9309 97.1751ZM92.8841 99.2365H91.2563V99.039C91.2995 99.0356 91.3653 99.0299 91.4516 99.022C91.5379 99.0152 91.5969 99.0038 91.6275 98.9891C91.6831 98.9675 91.724 98.9335 91.749 98.8881C91.7751 98.8427 91.7876 98.7836 91.7876 98.7121V96.2579L89.8851 98.6315V98.6962C89.8851 98.7609 89.8964 98.8131 89.9169 98.8529C89.9373 98.8926 89.9804 98.9289 90.0429 98.963C90.0747 98.98 90.1325 98.9959 90.2177 99.0129C90.3028 99.0288 90.3698 99.0379 90.4175 99.0402V99.2377H88.7897V99.0402C88.8339 99.0368 88.8987 99.0311 88.9827 99.0231C89.0667 99.0163 89.1245 99.005 89.1563 98.9902C89.2108 98.9687 89.2517 98.9346 89.2789 98.8892C89.305 98.8438 89.3175 98.7848 89.3175 98.7132V95.8731C89.3175 95.8141 89.305 95.7607 89.2812 95.7108C89.2562 95.662 89.2153 95.6234 89.1563 95.595C89.1064 95.5712 89.0451 95.5496 88.9747 95.5314C88.9032 95.5121 88.8419 95.5019 88.7897 95.4985V95.3021H90.4175V95.4985C90.3652 95.5008 90.3005 95.5087 90.2245 95.5235C90.1473 95.5383 90.0905 95.5519 90.0542 95.5655C89.9918 95.5882 89.9498 95.6257 89.9282 95.6767C89.9066 95.729 89.8964 95.7857 89.8964 95.8459V98.2388L91.7989 95.8674C91.7989 95.8016 91.7864 95.746 91.7626 95.7028C91.7376 95.6597 91.6968 95.6245 91.6377 95.5961C91.5912 95.5746 91.5276 95.553 91.447 95.5337C91.3653 95.5144 91.3017 95.5031 91.2563 95.4997V95.3033H92.8841V95.4997C92.8331 95.5019 92.7695 95.5099 92.6946 95.5246C92.6196 95.5394 92.5629 95.553 92.5254 95.5666C92.463 95.5893 92.421 95.6268 92.3994 95.6779C92.379 95.7301 92.3676 95.7868 92.3676 95.847V98.6837C92.3676 98.7484 92.379 98.8029 92.3994 98.8472C92.421 98.8915 92.463 98.9301 92.5254 98.9641C92.5572 98.9811 92.614 98.997 92.6946 99.0141C92.7752 99.03 92.8387 99.039 92.8841 99.0413V99.2365ZM87.3356 99.2365H85.701V99.039C85.7452 99.0356 85.8099 99.0299 85.8939 99.022C85.9779 99.0152 86.0358 99.0038 86.0676 98.9891C86.1232 98.9675 86.1641 98.9335 86.1902 98.8881C86.2152 98.8427 86.2288 98.7836 86.2288 98.7121V97.3113H84.3785V98.6815C84.3785 98.7462 84.3887 98.8007 84.4103 98.8449C84.4319 98.8892 84.4739 98.9278 84.5374 98.9618C84.5692 98.9789 84.6248 98.9948 84.7054 99.0118C84.786 99.0277 84.8496 99.0368 84.8961 99.039V99.2365H83.2627V99.039C83.3069 99.0356 83.3716 99.0299 83.4556 99.022C83.5396 99.0152 83.5975 99.0038 83.6293 98.9891C83.6838 98.9675 83.7247 98.9335 83.7519 98.8881C83.778 98.8427 83.7905 98.7836 83.7905 98.7121V95.872C83.7905 95.813 83.778 95.7596 83.7542 95.7097C83.7292 95.6609 83.6883 95.6223 83.6293 95.5939C83.5794 95.57 83.5181 95.5485 83.4477 95.5303C83.3762 95.511 83.3149 95.5008 83.2627 95.4974V95.301H84.8961V95.4974C84.8439 95.4997 84.7803 95.5076 84.7054 95.5224C84.6305 95.5371 84.5749 95.5507 84.5374 95.5644C84.4739 95.5871 84.4319 95.6245 84.4103 95.6756C84.3899 95.7278 84.3785 95.7846 84.3785 95.8447V97.065H86.2288V95.872C86.2288 95.813 86.2163 95.7596 86.1925 95.7097C86.1675 95.6609 86.1266 95.6223 86.0676 95.5939C86.0177 95.57 85.9575 95.5485 85.886 95.5303C85.8145 95.511 85.7532 95.5008 85.701 95.4974V95.301H87.3356V95.4974C87.2833 95.4997 87.2198 95.5076 87.1448 95.5224C87.0699 95.5371 87.0143 95.5507 86.9768 95.5644C86.9133 95.5871 86.8713 95.6245 86.8508 95.6756C86.8293 95.7278 86.8191 95.7846 86.8191 95.8447V98.6815C86.8191 98.7462 86.8293 98.8007 86.8508 98.8449C86.8713 98.8892 86.9133 98.9278 86.9768 98.9618C87.0086 98.9789 87.0643 98.9948 87.1448 99.0118C87.2254 99.0277 87.289 99.0368 87.3356 99.039V99.2365ZM80.6314 97.6281L80.0355 96.1024L79.4509 97.6281H80.6314ZM82.2183 99.2365H80.5792V99.039C80.7234 99.0299 80.8425 99.0118 80.9379 98.9834C81.0332 98.9562 81.0809 98.9221 81.0809 98.8812C81.0809 98.8642 81.0787 98.8449 81.0752 98.8211C81.0718 98.7961 81.0662 98.7757 81.0582 98.7564L80.7313 97.8744H79.3532C79.301 98.0026 79.2601 98.1162 79.2261 98.2126C79.1932 98.308 79.1648 98.3977 79.1387 98.4783C79.1148 98.5577 79.0978 98.6236 79.0887 98.6724C79.0808 98.7223 79.0751 98.7632 79.0751 98.795C79.0751 98.8688 79.133 98.9266 79.2488 98.9675C79.3657 99.0084 79.4963 99.0322 79.6427 99.039V99.2365H78.1625V99.039C78.2113 99.0356 78.2703 99.0254 78.3418 99.0072C78.4133 98.9902 78.4735 98.9664 78.52 98.9369C78.5938 98.8869 78.6506 98.8347 78.6914 98.7802C78.7323 98.7257 78.772 98.6508 78.8106 98.5543C79.0081 98.0617 79.2272 97.5066 79.4656 96.8902C79.704 96.275 79.9163 95.7267 80.1036 95.2454H80.3249L81.6371 98.6406C81.6644 98.7121 81.6962 98.7711 81.7314 98.8154C81.7677 98.8597 81.8154 98.9028 81.8789 98.9448C81.9209 98.9709 81.9765 98.9925 82.0446 99.0106C82.1139 99.0288 82.1706 99.0379 82.2172 99.0402V99.2365H82.2183ZM76.3519 96.9424C76.4155 96.8539 76.4564 96.7619 76.4768 96.6666C76.4972 96.5712 76.5074 96.4861 76.5074 96.41C76.5074 96.3045 76.4949 96.1966 76.4711 96.0877C76.4461 95.9787 76.403 95.8833 76.3417 95.8016C76.277 95.7142 76.1919 95.6472 76.0874 95.5984C75.9819 95.5496 75.8502 95.5269 75.6935 95.5269H75.3031V97.2659H75.5857C75.7855 97.2659 75.9478 97.2342 76.0727 97.1729C76.1964 97.1116 76.2895 97.0355 76.3519 96.9424ZM77.1953 96.2716C77.1953 96.477 77.1545 96.6586 77.0739 96.8164C76.9933 96.9742 76.8832 97.1047 76.7401 97.208C76.5994 97.3125 76.4461 97.3885 76.277 97.4362C76.109 97.4839 75.9308 97.5077 75.7423 97.5077H75.3008V98.7008C75.3008 98.7655 75.311 98.8222 75.3326 98.871C75.3541 98.9187 75.3973 98.9573 75.4654 98.9823C75.4983 98.9959 75.5573 99.0073 75.6413 99.0186C75.7253 99.03 75.8025 99.0368 75.8718 99.039V99.2365H74.1827V99.039C74.2269 99.0356 74.2916 99.0288 74.3756 99.0186C74.4596 99.0107 74.5187 98.9982 74.5516 98.9823C74.6072 98.9584 74.6469 98.9233 74.6719 98.8767C74.6969 98.8302 74.7094 98.7711 74.7094 98.6996V95.8595C74.7094 95.7948 74.7003 95.7369 74.681 95.6847C74.6628 95.6325 74.6197 95.5939 74.5516 95.5678C74.4812 95.5439 74.412 95.5258 74.3427 95.5167C74.2723 95.5065 74.2133 95.4997 74.1634 95.4963V95.2999H75.9603C76.3269 95.2999 76.6243 95.3873 76.8525 95.5655C77.0807 95.7426 77.1953 95.9775 77.1953 96.2716ZM72.9658 96.4021H72.7569C72.7388 96.3306 72.7138 96.2534 72.682 96.1717C72.6502 96.0899 72.6037 95.998 72.5412 95.8947C72.4811 95.7982 72.4209 95.7187 72.3596 95.6563C72.2983 95.5927 72.2257 95.5564 72.1451 95.5451C72.0826 95.536 72.0043 95.5292 71.9135 95.5246C71.8227 95.5212 71.7342 95.519 71.6513 95.519H71.086V98.6747C71.086 98.7382 71.1008 98.7927 71.1303 98.8404C71.1598 98.8869 71.204 98.9255 71.2631 98.955C71.2994 98.9721 71.3675 98.9891 71.4651 99.0084C71.5616 99.0265 71.6411 99.0368 71.7024 99.039V99.2365H69.9361V99.039C69.9917 99.0356 70.0655 99.0299 70.1574 99.0209C70.2505 99.0129 70.3096 99.0016 70.3379 98.9891C70.3936 98.9653 70.4333 98.9289 70.4583 98.8824C70.4832 98.8358 70.4957 98.7791 70.4957 98.7121V95.872C70.4957 95.8118 70.4855 95.7573 70.4651 95.7097C70.4446 95.662 70.4015 95.6245 70.3368 95.5939C70.2869 95.57 70.2199 95.5485 70.1347 95.5303C70.0507 95.511 69.9838 95.5008 69.9338 95.4974V95.301H72.9646V96.4021H72.9658ZM67.6045 98.5566C67.7078 98.3886 67.7839 98.1979 67.8304 97.9856C67.8781 97.7722 67.9008 97.535 67.9008 97.2728C67.9008 97.0026 67.8747 96.7551 67.8225 96.5292C67.7691 96.3033 67.6931 96.1104 67.5909 95.9514C67.4899 95.7937 67.3616 95.6722 67.2083 95.5837C67.0551 95.4951 66.8792 95.452 66.6805 95.452C66.4592 95.452 66.2707 95.5031 66.1152 95.6041C65.9597 95.7051 65.8326 95.8413 65.7349 96.0116C65.643 96.1739 65.5737 96.3646 65.5283 96.5826C65.4829 96.8017 65.4602 97.0298 65.4602 97.2705C65.4602 97.5361 65.4852 97.7768 65.5329 97.9913C65.5805 98.2058 65.6555 98.3965 65.7599 98.5634C65.8598 98.7257 65.9858 98.8529 66.1368 98.9448C66.2889 99.0368 66.4705 99.0822 66.6805 99.0822C66.878 99.0822 67.0574 99.0356 67.2163 98.9425C67.3752 98.8529 67.5046 98.7235 67.6045 98.5566ZM68.0188 95.7664C68.1925 95.9469 68.3287 96.166 68.4263 96.4225C68.5251 96.6779 68.5728 96.9617 68.5728 97.2728C68.5728 97.5849 68.524 97.8687 68.4229 98.1241C68.3231 98.3795 68.1846 98.5963 68.0075 98.7768C67.8349 98.9539 67.6352 99.0913 67.4081 99.1866C67.1811 99.2831 66.9382 99.3319 66.6816 99.3319C66.4081 99.3319 66.1549 99.2797 65.9234 99.1775C65.6918 99.0753 65.492 98.9323 65.3263 98.7484C65.1594 98.5691 65.0289 98.3523 64.9335 98.0957C64.8393 97.8403 64.7905 97.5656 64.7905 97.2739C64.7905 96.9538 64.8404 96.6689 64.9403 96.418C65.0402 96.1671 65.1776 95.9503 65.3535 95.7676C65.5272 95.5871 65.7293 95.4474 65.9597 95.351C66.1901 95.2556 66.4308 95.2068 66.6816 95.2068C66.9427 95.2068 67.189 95.2556 67.4195 95.3532C67.6499 95.452 67.8497 95.5893 68.0188 95.7664ZM57.9138 99.3285C57.6788 99.3285 57.4541 99.282 57.2384 99.1889C57.0227 99.0969 56.832 98.9641 56.6663 98.7893C56.5017 98.6156 56.37 98.4034 56.2724 98.1536C56.1736 97.9028 56.1259 97.6212 56.1259 97.3068C56.1259 96.9924 56.1736 96.7075 56.2701 96.4509C56.3655 96.1955 56.4994 95.9753 56.6697 95.7891C56.8377 95.6064 57.0363 95.4656 57.2656 95.3646C57.4949 95.2647 57.7401 95.2147 58.0001 95.2147C58.1942 95.2147 58.3701 95.2386 58.5279 95.2863C58.6846 95.3351 58.8344 95.402 58.9763 95.4894L59.0898 95.301H59.3123L59.3373 96.704H59.1102C59.0807 96.5678 59.0365 96.4191 58.9763 96.2591C58.9173 96.099 58.848 95.9639 58.7686 95.8527C58.68 95.7267 58.5733 95.6279 58.453 95.5576C58.3304 95.486 58.1908 95.4508 58.033 95.4508C57.8536 95.4508 57.6868 95.4906 57.5324 95.57C57.378 95.6495 57.2441 95.7676 57.1317 95.9219C57.025 96.0718 56.9398 96.2613 56.8786 96.494C56.8184 96.7256 56.7877 96.9822 56.7877 97.2682C56.7877 97.5202 56.8195 97.7495 56.8831 97.9606C56.9467 98.1706 57.0375 98.3545 57.1555 98.5135C57.2736 98.6701 57.4143 98.7938 57.5755 98.8824C57.7367 98.9709 57.9183 99.0163 58.1181 99.0163C58.268 99.0163 58.4053 98.9925 58.5313 98.946C58.6573 98.8983 58.7674 98.8358 58.8594 98.7587C58.9525 98.6769 59.0331 98.585 59.1034 98.4805C59.1738 98.3772 59.2317 98.2649 59.276 98.1423L59.4837 98.241C59.3248 98.6315 59.1148 98.9108 58.8514 99.0776C58.5892 99.2445 58.277 99.3285 57.9138 99.3285ZM49.7079 98.5566C49.8112 98.3886 49.8872 98.1979 49.9338 97.9856C49.9814 97.7722 50.0041 97.535 50.0041 97.2728C50.0041 97.0026 49.978 96.7551 49.9258 96.5292C49.8725 96.3033 49.7964 96.1104 49.6942 95.9514C49.5932 95.7937 49.4649 95.6722 49.3117 95.5837C49.1585 95.4951 48.9825 95.452 48.7839 95.452C48.5625 95.452 48.3741 95.5031 48.2186 95.6041C48.063 95.7051 47.9359 95.8413 47.8383 96.0116C47.7463 96.1739 47.6771 96.3646 47.6317 96.5826C47.5863 96.8017 47.5636 97.0298 47.5636 97.2705C47.5636 97.5361 47.5886 97.7768 47.6362 97.9913C47.6839 98.2058 47.7588 98.3965 47.8633 98.5634C47.9631 98.7257 48.0891 98.8529 48.2401 98.9448C48.3922 99.0368 48.5739 99.0822 48.7839 99.0822C48.9814 99.0822 49.1607 99.0356 49.3196 98.9425C49.4786 98.8529 49.608 98.7235 49.7079 98.5566ZM50.1222 95.7664C50.2959 95.9469 50.4321 96.166 50.5297 96.4225C50.6285 96.6779 50.6761 96.9617 50.6761 97.2728C50.6761 97.5849 50.6273 97.8687 50.5263 98.1241C50.4264 98.3795 50.2879 98.5963 50.1108 98.7768C49.9383 98.9539 49.7385 99.0913 49.5115 99.1866C49.2845 99.2831 49.0415 99.3319 48.785 99.3319C48.5114 99.3319 48.2583 99.2797 48.0267 99.1775C47.7951 99.0753 47.5954 98.9323 47.4296 98.7484C47.2628 98.5691 47.1322 98.3523 47.0369 98.0957C46.9426 97.8403 46.8938 97.5656 46.8938 97.2739C46.8938 96.9538 46.9438 96.6689 47.0437 96.418C47.1436 96.1671 47.2809 95.9503 47.4569 95.7676C47.6305 95.5871 47.8326 95.4474 48.063 95.351C48.2935 95.2556 48.5341 95.2068 48.785 95.2068C49.0461 95.2068 49.2924 95.2556 49.5228 95.3532C49.7533 95.452 49.953 95.5893 50.1222 95.7664ZM44.8324 98.0662C44.8324 97.8335 44.7541 97.6417 44.5974 97.4918C44.4408 97.342 44.2183 97.2671 43.9277 97.2671C43.8097 97.2671 43.7086 97.2682 43.628 97.2705C43.5463 97.2739 43.4861 97.2762 43.4453 97.2784V98.6644C43.4453 98.7825 43.493 98.8688 43.586 98.9289C43.6803 98.988 43.8119 99.0175 43.9799 99.0175C44.2558 99.0175 44.4669 98.9369 44.6122 98.7757C44.7586 98.6156 44.8324 98.3784 44.8324 98.0662ZM44.4487 96.8096C44.518 96.7301 44.5657 96.6427 44.5918 96.5485C44.619 96.4555 44.6326 96.3419 44.6326 96.2137C44.6326 95.9968 44.5725 95.8277 44.4544 95.704C44.3364 95.5814 44.1502 95.519 43.8937 95.519C43.8346 95.519 43.7597 95.5212 43.6712 95.5235C43.5815 95.5258 43.5054 95.528 43.4453 95.5303V97.0423H43.7972C43.9493 97.0423 44.0787 97.023 44.1865 96.9833C44.2955 96.9458 44.3829 96.8879 44.4487 96.8096ZM45.1173 97.4022C45.232 97.4794 45.3273 97.5826 45.4034 97.7086C45.4795 97.8346 45.5169 97.9868 45.5169 98.1661C45.5169 98.3489 45.4772 98.5078 45.3977 98.6429C45.3183 98.7779 45.215 98.8892 45.0878 98.9766C44.9641 99.0606 44.8233 99.1264 44.6678 99.1707C44.5112 99.215 44.3511 99.2365 44.1843 99.2365H42.3204V99.039C42.3646 99.0356 42.4305 99.0277 42.5145 99.0152C42.5996 99.0027 42.6609 98.9891 42.6984 98.9721C42.7551 98.946 42.796 98.9119 42.821 98.8676C42.8448 98.8245 42.8573 98.7677 42.8573 98.6996V95.8697C42.8573 95.8073 42.8471 95.7517 42.8255 95.7028C42.8051 95.6552 42.7619 95.6166 42.6995 95.5859C42.6439 95.5587 42.5826 95.5371 42.5133 95.5224C42.4452 95.5076 42.3885 95.4985 42.3419 95.4951V95.2987H44.1581C44.2989 95.2987 44.4328 95.3124 44.5611 95.3407C44.6894 95.368 44.812 95.4179 44.9289 95.4872C45.0379 95.5519 45.1276 95.6393 45.1979 95.7505C45.2695 95.8618 45.3035 95.9968 45.3035 96.1558C45.3035 96.2954 45.2774 96.418 45.2286 96.5258C45.1786 96.6337 45.1083 96.7279 45.0175 96.8051C44.9323 96.8789 44.8347 96.9413 44.7246 96.9912C44.6145 97.0423 44.4953 97.082 44.3682 97.1093V97.1343C44.4817 97.1479 44.6077 97.1763 44.7473 97.2194C44.8846 97.2648 45.0084 97.325 45.1173 97.4022ZM41.1103 96.3692H40.9196C40.9026 96.3022 40.873 96.2239 40.8299 96.1319C40.7868 96.0411 40.738 95.9537 40.6846 95.872C40.629 95.7868 40.5677 95.7131 40.503 95.6484C40.4383 95.5848 40.3747 95.5485 40.3123 95.5394C40.2555 95.5314 40.184 95.5258 40.0966 95.5224C40.0092 95.519 39.9286 95.5167 39.8548 95.5167H39.6936V98.6644C39.6936 98.7257 39.7073 98.7825 39.7322 98.8336C39.7572 98.8835 39.8037 98.9232 39.8684 98.9505C39.9014 98.9641 39.9706 98.9811 40.0773 99.0038C40.1829 99.0254 40.2657 99.0379 40.3259 99.0402V99.2377H38.4677V99.0402C38.5199 99.0368 38.5982 99.0288 38.7049 99.0186C38.8105 99.0073 38.8843 98.9936 38.924 98.9766C38.9853 98.9516 39.0296 98.9176 39.0591 98.8722C39.0875 98.8268 39.1011 98.7666 39.1011 98.6905V95.5167H38.9399C38.882 95.5167 38.8116 95.519 38.7265 95.5212C38.6425 95.5246 38.5608 95.5292 38.4836 95.5394C38.4223 95.5473 38.3587 95.5825 38.2929 95.6484C38.227 95.7142 38.1669 95.788 38.1112 95.872C38.0556 95.9548 38.0068 96.0434 37.9648 96.1376C37.9217 96.2318 37.8933 96.3079 37.8763 96.3692H37.6822V95.301H41.1103V96.3692ZM35.0963 99.3285C34.8613 99.3285 34.6366 99.282 34.4209 99.1889C34.2052 99.0969 34.0145 98.9641 33.8477 98.7893C33.6831 98.6156 33.5514 98.4034 33.4538 98.1536C33.355 97.9028 33.3073 97.6212 33.3073 97.3068C33.3073 96.9924 33.355 96.7075 33.4515 96.4509C33.5468 96.1955 33.6808 95.9753 33.8511 95.7891C34.0191 95.6064 34.2177 95.4656 34.447 95.3646C34.6763 95.2647 34.9215 95.2147 35.1814 95.2147C35.3756 95.2147 35.5515 95.2386 35.7093 95.2863C35.8659 95.3351 36.0158 95.402 36.1577 95.4894L36.2712 95.301H36.4937L36.5186 96.704H36.2916C36.2621 96.5678 36.2178 96.4191 36.1577 96.2591C36.0986 96.099 36.0294 95.9639 35.9499 95.8527C35.8614 95.7267 35.7547 95.6279 35.6344 95.5576C35.5118 95.486 35.3722 95.4508 35.2155 95.4508C35.0361 95.4508 34.8693 95.4906 34.7149 95.57C34.5605 95.6495 34.4266 95.7676 34.3142 95.9219C34.2075 96.0718 34.1224 96.2613 34.0611 96.494C34.0009 96.7256 33.9702 96.9822 33.9702 97.2682C33.9702 97.5202 34.002 97.7495 34.0656 97.9606C34.1292 98.1706 34.22 98.3545 34.338 98.5135C34.4561 98.6701 34.5968 98.7938 34.758 98.8824C34.9204 98.9709 35.1009 99.0163 35.3006 99.0163C35.4505 99.0163 35.5878 98.9925 35.7138 98.946C35.8398 98.8983 35.9499 98.8358 36.0407 98.7587C36.1338 98.6769 36.2144 98.585 36.2848 98.4805C36.3552 98.3772 36.4131 98.2649 36.4573 98.1423L36.6651 98.241C36.5062 98.6315 36.2962 98.9108 36.0328 99.0776C35.7717 99.2445 35.4596 99.3285 35.0963 99.3285ZM32.0598 98.0764L31.9849 99.2365H28.7179V99.039C28.7736 99.0356 28.8473 99.0277 28.9393 99.0152C29.0324 99.0027 29.0914 98.9902 29.1198 98.9777C29.1788 98.9493 29.2197 98.913 29.2435 98.8688C29.2674 98.8245 29.2787 98.7689 29.2787 98.7008V95.8708C29.2787 95.8107 29.2685 95.7562 29.2481 95.7085C29.2276 95.6608 29.1845 95.6234 29.1198 95.5927C29.0698 95.5689 29.0029 95.5473 28.9177 95.5292C28.8337 95.5099 28.7668 95.4997 28.7168 95.4963V95.2999H31.7624V96.2489H31.5547C31.5172 96.1081 31.4377 95.9594 31.3151 95.8016C31.1926 95.6438 31.0745 95.5564 30.9644 95.5428C30.9065 95.5349 30.8384 95.5292 30.7589 95.5258C30.6795 95.5224 30.5898 95.5201 30.4876 95.5201H29.869V97.0843H30.3128C30.4547 97.0843 30.5591 97.0707 30.6238 97.0435C30.6886 97.0173 30.7464 96.9719 30.7975 96.9095C30.8384 96.855 30.8736 96.7846 30.902 96.695C30.9303 96.6053 30.9496 96.5213 30.9587 96.4418H31.1676V97.9811H30.9587C30.9508 97.8925 30.9315 97.7983 30.8986 97.6984C30.8668 97.5997 30.8327 97.5282 30.7975 97.4839C30.7408 97.4124 30.6749 97.3647 30.6023 97.3431C30.5296 97.3216 30.432 97.3102 30.3128 97.3102H29.869V98.4919C29.869 98.61 29.8769 98.7042 29.894 98.7723C29.911 98.8404 29.9428 98.8926 29.9916 98.9278C30.0393 98.963 30.1051 98.9857 30.188 98.9959C30.272 99.005 30.39 99.0106 30.5433 99.0106C30.6034 99.0106 30.684 99.0106 30.785 99.0106C30.8849 99.0106 30.9689 99.0072 31.037 98.9993C31.1074 98.9914 31.1801 98.9789 31.255 98.9596C31.3299 98.9391 31.3833 98.913 31.415 98.8801C31.499 98.7916 31.5887 98.6565 31.6818 98.4771C31.776 98.2967 31.835 98.1638 31.8612 98.0787H32.0598V98.0764ZM26.476 99.2365H21.5995V99.039C21.6437 99.0356 21.7096 99.0299 21.7958 99.022C21.8821 99.0152 21.9411 99.0038 21.9752 98.9891C22.0308 98.9675 22.0717 98.9335 22.0978 98.8881C22.125 98.8427 22.1387 98.7836 22.1387 98.7121V95.872C22.1387 95.813 22.1262 95.7596 22.1023 95.7097C22.0774 95.6609 22.0365 95.6223 21.9775 95.5939C21.9275 95.57 21.8662 95.5485 21.7958 95.5303C21.7243 95.511 21.663 95.5008 21.6108 95.4974V95.301H23.2159V95.4974C23.1648 95.4997 23.1035 95.5076 23.0332 95.5224C22.9628 95.5371 22.9083 95.5507 22.8697 95.5644C22.8073 95.5871 22.7664 95.6245 22.7494 95.6756C22.7312 95.7278 22.7233 95.7846 22.7233 95.8447V98.7212C22.7233 98.8211 22.7539 98.8926 22.8152 98.9357C22.8754 98.9789 22.9571 99.0016 23.0581 99.0016C23.116 99.0016 23.1773 99.0027 23.2443 99.005C23.3101 99.0084 23.3953 99.0095 23.4963 99.0095C23.561 99.0095 23.6291 99.0084 23.7006 99.0061C23.7721 99.0038 23.8414 99.0027 23.9072 99.0004C23.9924 98.9982 24.0525 98.9823 24.0866 98.9528C24.1206 98.9232 24.1376 98.8642 24.1376 98.7791V95.872C24.1376 95.813 24.1274 95.7596 24.107 95.7097C24.0866 95.6609 24.0468 95.6223 23.9878 95.5939C23.9379 95.57 23.8788 95.5485 23.8119 95.5303C23.7449 95.511 23.6847 95.5008 23.6325 95.4974V95.301H25.216V95.4974C25.1638 95.4997 25.1037 95.5076 25.0321 95.5224C24.9618 95.5371 24.9084 95.5507 24.8698 95.5644C24.8062 95.5871 24.7665 95.6245 24.7484 95.6756C24.7302 95.7278 24.7222 95.7846 24.7222 95.8447V98.7212C24.7222 98.82 24.7529 98.8903 24.8119 98.9346C24.8721 98.9789 24.9538 99.0004 25.0582 99.0004C25.115 99.0004 25.1752 99.0016 25.2353 99.0038C25.2966 99.0073 25.3738 99.0084 25.4658 99.0084C25.5327 99.0084 25.6008 99.0073 25.6712 99.005C25.7416 99.0027 25.8199 99.0016 25.9073 98.9993C25.9925 98.997 26.0526 98.9811 26.0867 98.9516C26.1207 98.9221 26.1378 98.8631 26.1378 98.778V95.8708C26.1378 95.8118 26.1287 95.7585 26.1071 95.7085C26.0878 95.6597 26.047 95.6211 25.9879 95.5927C25.938 95.5689 25.879 95.5473 25.812 95.5292C25.745 95.5099 25.6848 95.4997 25.6326 95.4963V95.2999H27.2377V95.4963C27.1866 95.4985 27.1231 95.5065 27.0482 95.5212C26.9732 95.536 26.9176 95.5496 26.8801 95.5632C26.8166 95.5859 26.7746 95.6234 26.753 95.6745C26.7326 95.7267 26.7212 95.7834 26.7212 95.8436V98.7314C26.7212 98.8347 26.7473 98.9062 26.7984 98.946C26.8495 98.9857 26.9324 99.0061 27.047 99.0061H27.2797V100.163H27.072C27.0527 100.09 27.0289 100.011 26.9993 99.9244C26.9698 99.837 26.9233 99.7349 26.8609 99.6191C26.8052 99.5158 26.7473 99.4284 26.686 99.3591C26.6293 99.2888 26.5578 99.2479 26.476 99.2365ZM20.2169 98.0764C20.2169 98.2739 20.1771 98.4488 20.0988 98.5975C20.0205 98.7473 19.9149 98.8688 19.7821 98.9641C19.6561 99.0549 19.5142 99.1219 19.3564 99.1673C19.1986 99.2127 19.0352 99.2354 18.8672 99.2354H17.0033V99.0379C17.0476 99.0345 17.1134 99.0265 17.1974 99.0141C17.2825 99.0016 17.3438 98.9879 17.3813 98.9709C17.438 98.9448 17.4789 98.9108 17.5039 98.8665C17.5277 98.8233 17.5402 98.7666 17.5402 98.6985V95.8686C17.5402 95.8062 17.53 95.7505 17.5073 95.7017C17.4869 95.654 17.4437 95.6154 17.3813 95.5848C17.3257 95.5576 17.2644 95.536 17.1951 95.5212C17.127 95.5065 17.0703 95.4974 17.0237 95.494V95.2976H19.9796V96.2591H19.7719C19.7333 96.1138 19.6527 95.9594 19.5301 95.8005C19.4064 95.6404 19.2906 95.5519 19.1816 95.5383C19.1249 95.5303 19.0556 95.5246 18.9762 95.5212C18.8967 95.5178 18.807 95.5155 18.7049 95.5155H18.1316V96.9685C18.2213 96.9663 18.3121 96.9651 18.4029 96.964C18.4937 96.9617 18.5811 96.9617 18.6663 96.9617C18.8751 96.9617 19.0738 96.981 19.2622 97.0185C19.4495 97.0559 19.6152 97.1195 19.7605 97.208C19.9024 97.2954 20.0148 97.4101 20.0965 97.5531C20.1749 97.6996 20.2169 97.8744 20.2169 98.0764ZM19.529 98.0299C19.529 97.7779 19.445 97.5781 19.2758 97.4283C19.1067 97.2796 18.8831 97.2046 18.6038 97.2046C18.4756 97.2046 18.3745 97.2069 18.2996 97.2092C18.2247 97.2126 18.1679 97.2137 18.1293 97.216V98.6588C18.1293 98.7814 18.1657 98.871 18.2372 98.9289C18.3087 98.988 18.4517 99.0175 18.664 99.0175C18.9455 99.0175 19.16 98.9323 19.3076 98.7632C19.4552 98.5941 19.529 98.3489 19.529 98.0299ZM14.6467 98.5566C14.75 98.3886 14.8261 98.1979 14.8726 97.9856C14.9203 97.7722 14.943 97.535 14.943 97.2728C14.943 97.0026 14.9169 96.7551 14.8647 96.5292C14.8113 96.3033 14.7353 96.1104 14.6331 95.9514C14.5321 95.7937 14.4038 95.6722 14.2506 95.5837C14.0973 95.4951 13.9214 95.452 13.7227 95.452C13.5014 95.452 13.3129 95.5031 13.1574 95.6041C13.0019 95.7051 12.8748 95.8413 12.7771 96.0116C12.6852 96.1739 12.616 96.3646 12.5705 96.5826C12.5251 96.8017 12.5024 97.0298 12.5024 97.2705C12.5024 97.5361 12.5274 97.7768 12.5751 97.9913C12.6228 98.2058 12.6977 98.3965 12.8021 98.5634C12.902 98.7257 13.0269 98.8529 13.179 98.9448C13.3311 99.0368 13.5127 99.0822 13.7227 99.0822C13.9202 99.0822 14.0996 99.0356 14.2585 98.9425C14.4186 98.8529 14.548 98.7235 14.6467 98.5566ZM15.061 95.7664C15.2347 95.9469 15.3709 96.166 15.4686 96.4225C15.5673 96.6779 15.615 96.9617 15.615 97.2728C15.615 97.5849 15.5662 97.8687 15.4652 98.1241C15.3653 98.3795 15.2268 98.5963 15.0497 98.7768C14.8772 98.9539 14.6774 99.0913 14.4503 99.1866C14.2233 99.2831 13.9804 99.3319 13.7239 99.3319C13.4503 99.3319 13.1971 99.2797 12.9656 99.1775C12.734 99.0753 12.5342 98.9323 12.3685 98.7484C12.2016 98.5691 12.0711 98.3523 11.9757 98.0957C11.8815 97.8403 11.8327 97.5656 11.8327 97.2739C11.8327 96.9538 11.8826 96.6689 11.9825 96.418C12.0824 96.1671 12.2198 95.9503 12.3957 95.7676C12.5694 95.5871 12.7715 95.4474 13.0019 95.351C13.2323 95.2556 13.473 95.2068 13.7239 95.2068C13.9849 95.2068 14.2313 95.2556 14.4617 95.3532C14.6933 95.452 14.8919 95.5893 15.061 95.7664Z" fill="#1B1B1B"/>
<path d="M76.0455 107.915H74.4108V107.717C74.4551 107.714 74.5198 107.708 74.6038 107.7C74.6878 107.693 74.7457 107.682 74.7764 107.667C74.832 107.646 74.8729 107.612 74.899 107.566C74.9239 107.521 74.9375 107.462 74.9375 107.39V105.99H73.0873V107.36C73.0873 107.424 73.0975 107.479 73.1191 107.523C73.1406 107.567 73.1826 107.606 73.2462 107.64C73.278 107.657 73.3336 107.673 73.4142 107.69C73.4948 107.706 73.5584 107.715 73.6049 107.717V107.915H71.9714V107.717C72.0157 107.714 72.0804 107.708 72.1644 107.7C72.2484 107.693 72.3063 107.682 72.3381 107.667C72.3926 107.646 72.4334 107.612 72.4595 107.566C72.4856 107.521 72.4981 107.462 72.4981 107.39V104.55C72.4981 104.491 72.4857 104.438 72.4618 104.389C72.4368 104.34 72.396 104.302 72.337 104.273C72.287 104.249 72.2257 104.228 72.1553 104.21C72.0838 104.19 72.0225 104.18 71.9703 104.177V103.979H73.6038V104.177C73.5515 104.179 73.488 104.187 73.4131 104.202C73.3381 104.216 73.2825 104.23 73.2451 104.244C73.1815 104.266 73.1406 104.304 73.1179 104.355C73.0975 104.407 73.0861 104.464 73.0861 104.524V105.744H74.9364V104.551C74.9364 104.492 74.9239 104.439 74.9001 104.39C74.8751 104.341 74.8343 104.303 74.7752 104.274C74.7253 104.25 74.6651 104.229 74.5936 104.211C74.5221 104.191 74.4608 104.181 74.4086 104.178V103.98H76.0432V104.178C75.991 104.18 75.9274 104.188 75.8525 104.203C75.7776 104.218 75.7219 104.231 75.6845 104.245C75.6209 104.268 75.5801 104.305 75.5585 104.356C75.5369 104.408 75.5267 104.465 75.5267 104.525V107.362C75.5267 107.427 75.5369 107.481 75.5585 107.525C75.5789 107.57 75.6209 107.608 75.6845 107.642C75.7163 107.659 75.7719 107.675 75.8525 107.692C75.9331 107.708 75.9966 107.717 76.0432 107.719V107.915H76.0455ZM70.6671 106.755L70.5922 107.915H67.3253V107.717C67.3809 107.714 67.4547 107.706 67.5466 107.693C67.6397 107.681 67.6988 107.668 67.7271 107.657C67.7862 107.629 67.827 107.592 67.8509 107.548C67.8747 107.504 67.8861 107.448 67.8861 107.379V104.549C67.8861 104.489 67.8758 104.434 67.8554 104.388C67.835 104.34 67.7918 104.303 67.7271 104.272C67.6772 104.248 67.6102 104.227 67.5251 104.208C67.4411 104.189 67.3741 104.179 67.3242 104.176V103.978H70.3697V104.927H70.162C70.1246 104.786 70.0451 104.638 69.9225 104.48C69.7999 104.322 69.6819 104.235 69.5717 104.221C69.5139 104.213 69.4457 104.207 69.3663 104.204C69.2868 104.201 69.1971 104.198 69.095 104.198H68.4763V105.762H68.9202C69.0621 105.762 69.1665 105.749 69.2312 105.722C69.2959 105.696 69.3538 105.65 69.4049 105.588C69.4457 105.533 69.4809 105.463 69.5093 105.373C69.5377 105.283 69.557 105.199 69.5661 105.119H69.7749V106.658H69.5661C69.5581 106.57 69.5388 106.475 69.5059 106.375C69.4741 106.277 69.4401 106.205 69.4049 106.161C69.3481 106.088 69.2823 106.042 69.2096 106.02C69.137 105.999 69.0394 105.987 68.9202 105.987H68.4763V107.169C68.4763 107.287 68.4843 107.381 68.5013 107.449C68.5183 107.517 68.5501 107.57 68.5989 107.605C68.6466 107.64 68.7124 107.663 68.7953 107.673C68.8793 107.682 68.9974 107.688 69.1506 107.688C69.2108 107.688 69.2914 107.688 69.3924 107.688C69.4923 107.688 69.5763 107.684 69.6444 107.676C69.7148 107.668 69.7874 107.656 69.8623 107.637C69.9373 107.616 69.9906 107.59 70.0224 107.557C70.1064 107.469 70.1961 107.334 70.2892 107.154C70.3834 106.974 70.4424 106.841 70.4685 106.756H70.6671V106.755ZM65.248 106.744C65.248 106.512 65.1697 106.32 65.013 106.17C64.8564 106.02 64.6339 105.945 64.3433 105.945C64.2252 105.945 64.1242 105.946 64.0436 105.949C63.9619 105.952 63.9017 105.954 63.8608 105.957V107.343C63.8608 107.46 63.9085 107.547 64.0016 107.607C64.0958 107.666 64.2275 107.696 64.3955 107.696C64.6713 107.696 64.8825 107.615 65.0278 107.454C65.1742 107.294 65.248 107.058 65.248 106.744ZM64.8643 105.489C64.9336 105.409 64.9812 105.322 65.0073 105.228C65.0346 105.135 65.0482 105.021 65.0482 104.893C65.0482 104.676 64.988 104.507 64.87 104.383C64.7519 104.261 64.5658 104.198 64.3092 104.198C64.2502 104.198 64.1753 104.201 64.0867 104.203C63.9971 104.205 63.921 104.207 63.8608 104.21V105.722H64.2127C64.3648 105.722 64.4943 105.701 64.6021 105.663C64.7111 105.624 64.7985 105.566 64.8643 105.489ZM65.5329 106.081C65.6476 106.159 65.7429 106.262 65.819 106.388C65.895 106.514 65.9325 106.666 65.9325 106.845C65.9325 107.028 65.8927 107.187 65.8133 107.322C65.7338 107.457 65.6305 107.569 65.5034 107.656C65.3797 107.74 65.2389 107.806 65.0834 107.85C64.9267 107.894 64.7667 107.916 64.5998 107.916H62.7359V107.718C62.7802 107.715 62.846 107.707 62.93 107.694C63.0152 107.682 63.0765 107.668 63.1139 107.651C63.1707 107.625 63.2115 107.591 63.2365 107.547C63.2603 107.503 63.2728 107.447 63.2728 107.379V104.549C63.2728 104.487 63.2626 104.431 63.2411 104.382C63.2206 104.334 63.1775 104.296 63.1151 104.265C63.0594 104.238 62.9981 104.216 62.9289 104.202C62.8608 104.187 62.804 104.178 62.7575 104.174V103.977H64.5737C64.7145 103.977 64.8484 103.991 64.9767 104.019C65.105 104.046 65.2276 104.096 65.3445 104.165C65.4534 104.23 65.5431 104.317 65.6135 104.429C65.685 104.54 65.7191 104.675 65.7191 104.834C65.7191 104.974 65.693 105.096 65.6441 105.204C65.5942 105.312 65.5238 105.406 65.433 105.483C65.3479 105.557 65.2503 105.619 65.1401 105.669C65.03 105.72 64.9108 105.76 64.7837 105.787V105.812C64.8972 105.826 65.0232 105.854 65.1628 105.898C65.3002 105.943 65.4239 106.003 65.5329 106.081ZM61.5259 105.047H61.3351C61.3181 104.98 61.2886 104.902 61.2455 104.81C61.2012 104.719 61.1535 104.632 61.1002 104.55C61.0445 104.465 60.9833 104.391 60.9186 104.327C60.8538 104.263 60.7903 104.226 60.7278 104.218C60.6711 104.21 60.5996 104.204 60.5122 104.201C60.4248 104.197 60.3442 104.195 60.2704 104.195H60.1092V107.343C60.1092 107.404 60.1228 107.46 60.1478 107.512C60.1728 107.562 60.2193 107.601 60.284 107.629C60.3169 107.642 60.3862 107.659 60.4929 107.682C60.5984 107.704 60.6813 107.716 60.7415 107.718V107.916H58.8832V107.718C58.9355 107.715 59.0138 107.707 59.1205 107.697C59.2261 107.685 59.2998 107.672 59.3396 107.655C59.4009 107.63 59.4451 107.596 59.4746 107.55C59.503 107.505 59.5166 107.445 59.5166 107.369V104.195H59.3555C59.2976 104.195 59.2272 104.197 59.1421 104.199C59.0581 104.203 58.9763 104.207 58.8991 104.218C58.8378 104.226 58.7743 104.261 58.7084 104.327C58.6426 104.392 58.5824 104.466 58.5268 104.55C58.4712 104.633 58.4224 104.722 58.3804 104.816C58.3372 104.91 58.3089 104.986 58.2918 105.047H58.0977V103.979H61.5259V105.047ZM55.5119 108.007C55.2769 108.007 55.0521 107.96 54.8365 107.867C54.6208 107.775 54.4301 107.642 54.2632 107.467C54.0986 107.294 53.9669 107.082 53.8693 106.831C53.7706 106.58 53.7229 106.298 53.7229 105.984C53.7229 105.669 53.7706 105.384 53.8671 105.128C53.9624 104.873 54.0963 104.652 54.2666 104.466C54.4346 104.283 54.6333 104.143 54.8637 104.042C55.093 103.942 55.3382 103.892 55.5981 103.892C55.7923 103.892 55.9682 103.916 56.126 103.963C56.2838 104.012 56.4325 104.079 56.5744 104.166L56.6879 103.978H56.9104L56.9353 105.381H56.7083C56.6788 105.245 56.6345 105.096 56.5744 104.936C56.5153 104.776 56.4461 104.641 56.3666 104.53C56.2781 104.404 56.1714 104.305 56.0511 104.235C55.9285 104.163 55.7888 104.128 55.6322 104.128C55.4528 104.128 55.286 104.168 55.1316 104.247C54.9772 104.327 54.8433 104.445 54.7309 104.599C54.6242 104.749 54.5391 104.938 54.4778 105.171C54.4176 105.403 54.3869 105.659 54.3869 105.944C54.3869 106.196 54.4187 106.425 54.4823 106.637C54.5459 106.847 54.6367 107.03 54.7547 107.189C54.8728 107.347 55.0135 107.47 55.1747 107.558C55.3371 107.647 55.5175 107.691 55.7173 107.691C55.8672 107.691 56.0045 107.667 56.1305 107.621C56.2565 107.573 56.3666 107.511 56.4574 107.433C56.5505 107.352 56.6311 107.26 56.7015 107.156C56.7719 107.053 56.8298 106.941 56.874 106.818L57.0818 106.917C56.9229 107.307 56.7129 107.587 56.4495 107.754C56.1873 107.923 55.8751 108.007 55.5119 108.007ZM52.5616 105.047H52.3709C52.3539 104.98 52.3244 104.902 52.2813 104.81C52.237 104.719 52.1893 104.632 52.136 104.55C52.0803 104.465 52.019 104.391 51.9543 104.327C51.8896 104.263 51.8261 104.226 51.7636 104.218C51.7069 104.21 51.6354 104.204 51.548 104.201C51.4606 104.197 51.38 104.195 51.3062 104.195H51.145V107.343C51.145 107.404 51.1586 107.46 51.1836 107.512C51.2085 107.562 51.2551 107.601 51.3198 107.629C51.3527 107.642 51.4219 107.659 51.5287 107.682C51.6342 107.704 51.7171 107.716 51.7773 107.718V107.916H49.919V107.718C49.9712 107.715 50.0496 107.707 50.1574 107.697C50.263 107.685 50.3368 107.672 50.3765 107.655C50.4378 107.63 50.4821 107.596 50.5116 107.55C50.5399 107.505 50.5536 107.445 50.5536 107.369V104.195H50.3924C50.3345 104.195 50.2641 104.197 50.179 104.199C50.095 104.203 50.0132 104.207 49.9361 104.218C49.8748 104.226 49.8112 104.261 49.7453 104.327C49.6795 104.392 49.6193 104.466 49.5637 104.55C49.5081 104.633 49.4593 104.722 49.4173 104.816C49.3742 104.91 49.3458 104.986 49.3287 105.047H49.1346V103.979H52.5628V105.047H52.5616ZM48.0597 106.755L47.9847 107.915H44.7178V107.717C44.7734 107.714 44.8472 107.706 44.9392 107.693C45.0322 107.681 45.0913 107.668 45.1196 107.657C45.1787 107.629 45.2207 107.592 45.2434 107.548C45.2672 107.504 45.2786 107.448 45.2786 107.379V104.549C45.2786 104.489 45.2683 104.434 45.2479 104.388C45.2275 104.34 45.1843 104.303 45.1196 104.272C45.0697 104.248 45.0027 104.227 44.9176 104.208C44.8336 104.189 44.7666 104.179 44.7167 104.176V103.978H47.7623V104.927H47.5545C47.5171 104.786 47.4376 104.638 47.315 104.48C47.1924 104.322 47.0744 104.235 46.9643 104.221C46.9064 104.213 46.8383 104.207 46.7588 104.204C46.6793 104.201 46.5897 104.198 46.4875 104.198H45.8688V105.762H46.3127C46.4546 105.762 46.559 105.749 46.6237 105.722C46.6884 105.696 46.7463 105.65 46.7974 105.588C46.8382 105.533 46.8734 105.463 46.9018 105.373C46.9302 105.283 46.9495 105.199 46.9586 105.119H47.1674V106.658H46.9586C46.9506 106.57 46.9313 106.475 46.8984 106.375C46.8666 106.277 46.8326 106.205 46.7974 106.161C46.7406 106.088 46.6748 106.042 46.6021 106.02C46.5295 105.999 46.4319 105.987 46.3127 105.987H45.8688V107.169C45.8688 107.287 45.8768 107.381 45.8938 107.449C45.9108 107.517 45.9426 107.57 45.9914 107.605C46.0391 107.64 46.1049 107.663 46.1878 107.673C46.2718 107.682 46.3899 107.688 46.5431 107.688C46.6044 107.688 46.6839 107.688 46.7849 107.688C46.8848 107.688 46.9688 107.684 47.0369 107.676C47.1073 107.668 47.1799 107.656 47.2548 107.637C47.3298 107.616 47.3831 107.59 47.4149 107.557C47.4989 107.469 47.5886 107.334 47.6817 107.154C47.7759 106.974 47.8349 106.841 47.8599 106.756H48.0597V106.755ZM42.6405 106.744C42.6405 106.512 42.5622 106.32 42.4055 106.17C42.2489 106.02 42.0264 105.945 41.7358 105.945C41.6177 105.945 41.5167 105.946 41.4361 105.949C41.3544 105.952 41.2942 105.954 41.2534 105.957V107.343C41.2534 107.46 41.301 107.547 41.3941 107.607C41.4883 107.666 41.6189 107.696 41.788 107.696C42.0638 107.696 42.275 107.615 42.4203 107.454C42.5667 107.294 42.6405 107.058 42.6405 106.744ZM42.2568 105.489C42.3261 105.409 42.3737 105.322 42.3998 105.228C42.4271 105.135 42.4407 105.021 42.4407 104.893C42.4407 104.676 42.3805 104.507 42.2625 104.383C42.1444 104.261 41.9583 104.198 41.7017 104.198C41.6427 104.198 41.5678 104.201 41.4792 104.203C41.3896 104.205 41.3135 104.207 41.2534 104.21V105.722H41.6052C41.7574 105.722 41.8868 105.701 41.9946 105.663C42.1036 105.624 42.191 105.566 42.2568 105.489ZM42.9254 106.081C43.0401 106.159 43.1354 106.262 43.2115 106.388C43.2875 106.514 43.325 106.666 43.325 106.845C43.325 107.028 43.2853 107.187 43.2058 107.322C43.1263 107.457 43.023 107.569 42.8959 107.656C42.7722 107.74 42.6314 107.806 42.4759 107.85C42.3192 107.894 42.1592 107.916 41.9923 107.916H40.1284V107.718C40.1727 107.715 40.2385 107.707 40.3225 107.694C40.4077 107.682 40.469 107.668 40.5064 107.651C40.5632 107.625 40.604 107.591 40.629 107.547C40.6529 107.503 40.6653 107.447 40.6653 107.379V104.549C40.6653 104.487 40.6551 104.431 40.6336 104.382C40.6131 104.334 40.57 104.296 40.5076 104.265C40.4519 104.238 40.3906 104.216 40.3214 104.202C40.2533 104.187 40.1965 104.178 40.15 104.174V103.977H41.9662C42.107 103.977 42.2409 103.991 42.3692 104.019C42.4975 104.046 42.6201 104.096 42.737 104.165C42.846 104.23 42.9356 104.317 43.006 104.429C43.0775 104.54 43.1116 104.675 43.1116 104.834C43.1116 104.974 43.0855 105.096 43.0367 105.204C42.9867 105.312 42.9163 105.406 42.8255 105.483C42.7404 105.557 42.6428 105.619 42.5327 105.669C42.4225 105.72 42.3034 105.76 42.1762 105.787V105.812C42.2897 105.826 42.4157 105.854 42.5554 105.898C42.6927 105.943 42.8164 106.003 42.9254 106.081ZM38.9184 105.047H38.7277C38.7106 104.98 38.6811 104.902 38.638 104.81C38.5948 104.719 38.546 104.632 38.4927 104.55C38.4371 104.465 38.3758 104.391 38.3111 104.327C38.2464 104.263 38.1828 104.226 38.1204 104.218C38.0636 104.21 37.9921 104.204 37.9047 104.201C37.8173 104.197 37.7367 104.195 37.6629 104.195H37.5017V107.343C37.5017 107.404 37.5153 107.46 37.5403 107.512C37.5653 107.562 37.6118 107.601 37.6765 107.629C37.7094 107.642 37.7787 107.659 37.8854 107.682C37.9909 107.704 38.0738 107.716 38.134 107.718V107.916H36.2757V107.718C36.328 107.715 36.4063 107.707 36.513 107.697C36.6186 107.685 36.6923 107.672 36.7321 107.655C36.7934 107.63 36.8376 107.596 36.8672 107.55C36.8955 107.505 36.9092 107.445 36.9092 107.369V104.195H36.748C36.6901 104.195 36.6197 104.197 36.5346 104.199C36.4506 104.203 36.3688 104.207 36.2916 104.218C36.2303 104.226 36.1668 104.261 36.1009 104.327C36.0351 104.392 35.9749 104.466 35.9193 104.55C35.8637 104.633 35.8149 104.722 35.7729 104.816C35.7297 104.91 35.7014 104.986 35.6843 105.047H35.4902V103.979H38.9184V105.047ZM33.3573 107.235C33.4606 107.067 33.5367 106.876 33.5832 106.664C33.6309 106.45 33.6536 106.213 33.6536 105.951C33.6536 105.681 33.6275 105.433 33.5752 105.207C33.5219 104.982 33.4458 104.789 33.3437 104.63C33.2426 104.473 33.1144 104.35 32.9611 104.262C32.8079 104.174 32.6319 104.13 32.4333 104.13C32.2119 104.13 32.0235 104.181 31.868 104.282C31.7125 104.383 31.5853 104.52 31.4877 104.69C31.3958 104.852 31.3265 105.043 31.2811 105.261C31.2357 105.48 31.213 105.709 31.213 105.949C31.213 106.214 31.238 106.455 31.2857 106.669C31.3333 106.884 31.4083 107.075 31.5127 107.242C31.6126 107.404 31.7374 107.531 31.8896 107.623C32.0417 107.715 32.2233 107.76 32.4333 107.76C32.6308 107.76 32.8102 107.714 32.9691 107.621C33.128 107.531 33.2574 107.402 33.3573 107.235ZM33.7705 104.446C33.9442 104.626 34.0804 104.845 34.178 105.102C34.2768 105.357 34.3244 105.641 34.3244 105.952C34.3244 106.264 34.2756 106.549 34.1746 106.803C34.0747 107.059 33.9362 107.276 33.7591 107.456C33.5866 107.633 33.3868 107.771 33.1598 107.866C32.9328 107.962 32.6898 108.011 32.4333 108.011C32.1597 108.011 31.9066 107.959 31.675 107.857C31.4435 107.755 31.2437 107.612 31.0779 107.428C30.9111 107.25 30.7805 107.032 30.6852 106.775C30.591 106.52 30.5421 106.245 30.5421 105.953C30.5421 105.633 30.5921 105.348 30.692 105.097C30.7919 104.846 30.9292 104.63 31.1052 104.447C31.2789 104.266 31.4809 104.127 31.7113 104.03C31.9418 103.935 32.1824 103.886 32.4333 103.886C32.6944 103.886 32.9407 103.935 33.1711 104.033C33.4027 104.13 33.6025 104.268 33.7705 104.446ZM122.97 94.6597C122.954 94.6211 122.932 94.5689 122.91 94.503C122.885 94.4372 122.873 94.3793 122.873 94.3271C122.873 94.2317 122.904 94.1625 122.967 94.1193C123.028 94.0762 123.095 94.0546 123.167 94.0546C123.249 94.0546 123.315 94.0853 123.366 94.1432C123.417 94.2033 123.442 94.2783 123.442 94.3702C123.442 94.4315 123.423 94.503 123.385 94.5836C123.348 94.6653 123.291 94.7357 123.215 94.7947C123.127 94.8629 123.02 94.9173 122.895 94.9593C122.77 95.0013 122.598 95.0218 122.377 95.0218C122.181 95.0218 122.014 95.0002 121.878 94.9559C121.739 94.9128 121.629 94.8583 121.549 94.7936C121.469 94.73 121.411 94.6608 121.375 94.5847C121.339 94.5087 121.322 94.4372 121.322 94.3679C121.322 94.276 121.347 94.1999 121.399 94.1409C121.449 94.0819 121.515 94.0524 121.594 94.0524C121.668 94.0524 121.736 94.0728 121.799 94.1137C121.86 94.1545 121.892 94.2249 121.892 94.3237C121.892 94.3815 121.88 94.4394 121.859 94.4973C121.836 94.5552 121.816 94.6074 121.794 94.6563C121.871 94.73 121.964 94.7777 122.071 94.7993C122.178 94.8197 122.281 94.8311 122.379 94.8311C122.469 94.8311 122.572 94.8186 122.687 94.7959C122.8 94.7777 122.894 94.73 122.97 94.6597ZM124.39 99.2366H122.762V99.039C122.805 99.0356 122.871 99.03 122.957 99.022C123.044 99.0152 123.103 99.0039 123.133 98.9891C123.189 98.9675 123.23 98.9335 123.255 98.8881C123.281 98.8427 123.293 98.7836 123.293 98.7121V96.2579L121.391 98.6315V98.6962C121.391 98.7609 121.402 98.8131 121.423 98.8529C121.443 98.8926 121.486 98.9289 121.549 98.963C121.581 98.98 121.638 98.9959 121.724 99.0129C121.809 99.0288 121.876 99.0379 121.923 99.0402V99.2377H120.296V99.0402C120.34 99.0368 120.405 99.0311 120.489 99.0231C120.573 99.0163 120.63 99.005 120.662 98.9902C120.717 98.9687 120.758 98.9346 120.784 98.8892C120.81 98.8438 120.822 98.7848 120.822 98.7133V95.8731C120.822 95.8141 120.81 95.7608 120.786 95.7108C120.761 95.662 120.72 95.6234 120.661 95.595C120.611 95.5712 120.55 95.5496 120.479 95.5314C120.408 95.5122 120.347 95.5019 120.294 95.4985V95.3022H121.922V95.4985C121.87 95.5008 121.805 95.5088 121.729 95.5235C121.653 95.5383 121.596 95.5519 121.559 95.5655C121.497 95.5882 121.455 95.6257 121.433 95.6767C121.411 95.729 121.401 95.7857 121.401 95.8459V98.2388L123.304 95.8675C123.304 95.8016 123.291 95.746 123.267 95.7029C123.242 95.6597 123.202 95.6245 123.143 95.5962C123.096 95.5746 123.032 95.553 122.952 95.5337C122.87 95.5144 122.807 95.5031 122.761 95.4997V95.3033H124.389V95.4997C124.338 95.5019 124.274 95.5099 124.199 95.5246C124.124 95.5394 124.068 95.553 124.031 95.5666C123.969 95.5893 123.927 95.6268 123.905 95.6779C123.885 95.7301 123.874 95.7869 123.874 95.847V98.6837C123.874 98.7484 123.885 98.8029 123.905 98.8472C123.927 98.8915 123.969 98.9301 124.031 98.9641C124.063 98.9811 124.119 98.997 124.199 99.0141C124.28 99.03 124.343 99.039 124.389 99.0413V99.2366H124.39ZM117.933 98.5566C118.037 98.3886 118.113 98.1979 118.159 97.9856C118.207 97.7722 118.23 97.535 118.23 97.2728C118.23 97.0026 118.203 96.7551 118.151 96.5292C118.098 96.3033 118.022 96.1104 117.92 95.9515C117.819 95.7937 117.69 95.6722 117.537 95.5837C117.384 95.4951 117.208 95.452 117.009 95.452C116.788 95.452 116.6 95.5031 116.444 95.6041C116.289 95.7051 116.161 95.8414 116.064 96.0116C115.972 96.1739 115.903 96.3646 115.857 96.5826C115.812 96.8017 115.789 97.0298 115.789 97.2705C115.789 97.5361 115.814 97.7768 115.862 97.9913C115.909 98.2058 115.984 98.3966 116.089 98.5634C116.189 98.7257 116.315 98.8529 116.466 98.9448C116.618 99.0368 116.799 99.0822 117.009 99.0822C117.207 99.0822 117.386 99.0356 117.545 98.9426C117.704 98.8529 117.833 98.7235 117.933 98.5566ZM118.347 95.7664C118.52 95.9469 118.656 96.166 118.754 96.4225C118.853 96.678 118.9 96.9617 118.9 97.2728C118.9 97.5849 118.852 97.8687 118.751 98.1241C118.651 98.3795 118.512 98.5963 118.335 98.7768C118.163 98.9539 117.963 99.0913 117.736 99.1866C117.509 99.2831 117.266 99.3319 117.009 99.3319C116.736 99.3319 116.483 99.2797 116.251 99.1775C116.019 99.0754 115.82 98.9323 115.654 98.7485C115.487 98.5691 115.357 98.3523 115.261 98.0957C115.167 97.8403 115.118 97.5656 115.118 97.2739C115.118 96.9538 115.168 96.6689 115.268 96.418C115.368 96.1671 115.506 95.9503 115.681 95.7676C115.855 95.5871 116.057 95.4475 116.287 95.351C116.518 95.2556 116.758 95.2068 117.009 95.2068C117.27 95.2068 117.517 95.2556 117.747 95.3532C117.979 95.452 118.179 95.5893 118.347 95.7664ZM113.712 99.2366H112.077V99.039C112.121 99.0356 112.186 99.03 112.27 99.022C112.354 99.0152 112.412 99.0039 112.444 98.9891C112.499 98.9675 112.54 98.9335 112.566 98.8881C112.591 98.8427 112.605 98.7836 112.605 98.7121V97.3114H110.755V98.6815C110.755 98.7462 110.765 98.8007 110.786 98.8449C110.808 98.8892 110.85 98.9278 110.914 98.9619C110.945 98.9789 111.001 98.9948 111.082 99.0118C111.162 99.0277 111.226 99.0368 111.272 99.039V99.2366H109.639V99.039C109.683 99.0356 109.748 99.03 109.832 99.022C109.916 99.0152 109.974 99.0039 110.006 98.9891C110.06 98.9675 110.101 98.9335 110.127 98.8881C110.153 98.8427 110.166 98.7836 110.166 98.7121V95.872C110.166 95.813 110.153 95.7596 110.129 95.7097C110.104 95.6609 110.063 95.6223 110.004 95.5939C109.954 95.57 109.893 95.5485 109.823 95.5303C109.751 95.511 109.69 95.5008 109.638 95.4974V95.301H111.271V95.4974C111.219 95.4997 111.155 95.5076 111.08 95.5224C111.006 95.5371 110.95 95.5507 110.912 95.5644C110.849 95.5871 110.807 95.6245 110.785 95.6756C110.765 95.7278 110.754 95.7846 110.754 95.8447V97.065H112.604V95.872C112.604 95.813 112.591 95.7596 112.568 95.7097C112.543 95.6609 112.502 95.6223 112.443 95.5939C112.393 95.57 112.333 95.5485 112.261 95.5303C112.19 95.511 112.128 95.5008 112.076 95.4974V95.301H113.711V95.4974C113.658 95.4997 113.595 95.5076 113.52 95.5224C113.445 95.5371 113.389 95.5507 113.352 95.5644C113.288 95.5871 113.246 95.6245 113.226 95.6756C113.204 95.7278 113.194 95.7846 113.194 95.8447V98.6815C113.194 98.7462 113.204 98.8007 113.226 98.8449C113.246 98.8892 113.288 98.9278 113.352 98.9619C113.384 98.9789 113.439 98.9948 113.52 99.0118C113.6 99.0277 113.664 99.0368 113.711 99.039V99.2366H113.712ZM108.181 99.2366H106.547V99.039C106.591 99.0356 106.656 99.03 106.74 99.022C106.824 99.0152 106.882 99.0039 106.912 98.9891C106.968 98.9675 107.009 98.9335 107.035 98.8881C107.06 98.8427 107.073 98.7836 107.073 98.7121V97.3114H105.223V98.6815C105.223 98.7462 105.233 98.8007 105.255 98.8449C105.277 98.8892 105.319 98.9278 105.382 98.9619C105.414 98.9789 105.469 98.9948 105.55 99.0118C105.631 99.0277 105.694 99.0368 105.741 99.039V99.2366H104.107V99.039C104.152 99.0356 104.216 99.03 104.3 99.022C104.384 99.0152 104.442 99.0039 104.474 98.9891C104.528 98.9675 104.569 98.9335 104.595 98.8881C104.622 98.8427 104.634 98.7836 104.634 98.7121V95.872C104.634 95.813 104.622 95.7596 104.598 95.7097C104.573 95.6609 104.532 95.6223 104.473 95.5939C104.423 95.57 104.362 95.5485 104.291 95.5303C104.22 95.511 104.158 95.5008 104.106 95.4974V95.301H105.74V95.4974C105.687 95.4997 105.624 95.5076 105.549 95.5224C105.474 95.5371 105.418 95.5507 105.381 95.5644C105.317 95.5871 105.275 95.6245 105.254 95.6756C105.233 95.7278 105.222 95.7846 105.222 95.8447V97.065H107.072V95.872C107.072 95.813 107.06 95.7596 107.036 95.7097C107.011 95.6609 106.97 95.6223 106.911 95.5939C106.861 95.57 106.801 95.5485 106.729 95.5303C106.658 95.511 106.597 95.5008 106.544 95.4974V95.301H108.179V95.4974C108.127 95.4997 108.063 95.5076 107.988 95.5224C107.913 95.5371 107.858 95.5507 107.82 95.5644C107.757 95.5871 107.715 95.6245 107.694 95.6756C107.673 95.7278 107.663 95.7846 107.663 95.8447V98.6815C107.663 98.7462 107.673 98.8007 107.694 98.8449C107.715 98.8892 107.757 98.9278 107.82 98.9619C107.852 98.9789 107.908 98.9948 107.988 99.0118C108.069 99.0277 108.133 99.0368 108.179 99.039V99.2366H108.181ZM102.803 98.0764L102.728 99.2366H99.4612V99.039C99.5168 99.0356 99.5906 99.0277 99.6825 99.0152C99.7756 99.0027 99.8346 98.9902 99.863 98.9777C99.922 98.9494 99.964 98.913 99.9867 98.8688C100.011 98.8245 100.022 98.7689 100.022 98.7008V95.8709C100.022 95.8107 100.012 95.7562 99.9913 95.7085C99.9708 95.6609 99.9277 95.6234 99.863 95.5927C99.8131 95.5689 99.7461 95.5474 99.6609 95.5292C99.577 95.5099 99.51 95.4997 99.46 95.4963V95.2999H102.506V96.2489H102.298C102.26 96.1081 102.181 95.9594 102.058 95.8016C101.936 95.6438 101.818 95.5564 101.708 95.5428C101.65 95.5349 101.582 95.5292 101.502 95.5258C101.423 95.5224 101.333 95.5201 101.231 95.5201H100.612V97.0843H101.056C101.198 97.0843 101.302 97.0707 101.367 97.0435C101.432 97.0174 101.49 96.9719 101.541 96.9095C101.582 96.855 101.617 96.7846 101.645 96.695C101.674 96.6053 101.693 96.5213 101.702 96.4418H101.911V97.9811H101.702C101.694 97.8926 101.675 97.7983 101.642 97.6984C101.61 97.5997 101.576 97.5282 101.541 97.4839C101.484 97.4124 101.418 97.3647 101.345 97.3431C101.273 97.3216 101.175 97.3102 101.056 97.3102H100.612V98.4919C100.612 98.61 100.62 98.7042 100.637 98.7723C100.654 98.8404 100.686 98.8926 100.735 98.9278C100.782 98.963 100.848 98.9857 100.931 98.9959C101.015 99.005 101.133 99.0107 101.286 99.0107C101.347 99.0107 101.427 99.0107 101.528 99.0107C101.628 99.0107 101.712 99.0073 101.78 98.9993C101.851 98.9914 101.923 98.9789 101.998 98.9596C102.073 98.9392 102.126 98.913 102.158 98.8801C102.242 98.7916 102.332 98.6565 102.425 98.4771C102.519 98.2967 102.578 98.1638 102.604 98.0787H102.803V98.0764Z" fill="#1B1B1B"/>
<path d="M106.272 107.235C106.368 107.072 106.44 106.883 106.487 106.665C106.533 106.448 106.556 106.21 106.556 105.951C106.556 105.685 106.531 105.437 106.481 105.209C106.431 104.98 106.357 104.787 106.26 104.63C106.161 104.471 106.038 104.347 105.889 104.262C105.74 104.174 105.568 104.131 105.374 104.131C105.156 104.131 104.972 104.181 104.824 104.282C104.674 104.382 104.552 104.52 104.456 104.691C104.372 104.842 104.306 105.028 104.262 105.248C104.217 105.468 104.196 105.702 104.196 105.95C104.196 106.215 104.219 106.456 104.264 106.671C104.309 106.885 104.381 107.076 104.478 107.243C104.574 107.405 104.696 107.532 104.845 107.624C104.993 107.716 105.169 107.761 105.374 107.761C105.576 107.761 105.752 107.714 105.905 107.618C106.057 107.524 106.18 107.396 106.272 107.235ZM106.685 104.446C106.852 104.623 106.984 104.84 107.08 105.096C107.178 105.352 107.226 105.638 107.226 105.952C107.226 106.261 107.177 106.542 107.08 106.799C106.984 107.054 106.85 107.273 106.677 107.455C106.509 107.632 106.314 107.769 106.09 107.865C105.868 107.961 105.631 108.01 105.38 108.01C105.114 108.01 104.87 107.96 104.648 107.859C104.425 107.759 104.233 107.621 104.07 107.444C103.908 107.263 103.782 107.051 103.691 106.808C103.602 106.565 103.553 106.295 103.548 105.995H102.777V107.36C102.777 107.424 102.787 107.479 102.809 107.523C102.829 107.567 102.872 107.606 102.935 107.64C102.966 107.657 103.022 107.673 103.103 107.69C103.183 107.706 103.247 107.715 103.293 107.717V107.915H101.666V107.717C101.71 107.714 101.775 107.708 101.859 107.7C101.943 107.693 102 107.682 102.032 107.667C102.087 107.646 102.128 107.612 102.154 107.566C102.18 107.521 102.192 107.462 102.192 107.39V104.55C102.192 104.491 102.18 104.438 102.156 104.389C102.131 104.34 102.09 104.302 102.031 104.273C101.981 104.249 101.92 104.228 101.849 104.21C101.778 104.19 101.717 104.18 101.664 104.177V103.979H103.292V104.177C103.24 104.179 103.176 104.187 103.102 104.202C103.027 104.216 102.971 104.23 102.934 104.244C102.871 104.266 102.828 104.304 102.808 104.355C102.786 104.407 102.776 104.464 102.776 104.524V105.75H103.552C103.575 105.462 103.638 105.204 103.743 104.977C103.847 104.749 103.98 104.554 104.144 104.391C104.306 104.229 104.494 104.104 104.708 104.018C104.921 103.93 105.145 103.887 105.378 103.887C105.636 103.887 105.878 103.936 106.103 104.036C106.329 104.131 106.523 104.269 106.685 104.446ZM100.332 106.755C100.332 106.952 100.292 107.127 100.214 107.276C100.135 107.425 100.03 107.547 99.897 107.642C99.771 107.733 99.6291 107.8 99.4714 107.845C99.3136 107.891 99.1501 107.914 98.9821 107.914H97.1182V107.716C97.1625 107.713 97.2283 107.705 97.3123 107.692C97.3975 107.68 97.4588 107.666 97.4962 107.649C97.553 107.623 97.5938 107.589 97.6188 107.545C97.6427 107.5 97.6551 107.445 97.6551 107.377V104.558C97.6551 104.496 97.6449 104.44 97.6234 104.391C97.6029 104.344 97.5598 104.304 97.4974 104.274C97.4554 104.253 97.3952 104.231 97.3191 104.21C97.2419 104.189 97.1784 104.177 97.1284 104.173V103.976H98.796V104.173C98.7437 104.176 98.6756 104.184 98.5928 104.201C98.5088 104.218 98.4475 104.232 98.4111 104.245C98.3476 104.266 98.3056 104.305 98.2817 104.358C98.259 104.412 98.2477 104.468 98.2477 104.531V105.648C98.3374 105.646 98.4282 105.644 98.519 105.643C98.6098 105.641 98.6972 105.641 98.7823 105.641C98.9912 105.641 99.1899 105.66 99.3783 105.698C99.5656 105.735 99.7313 105.799 99.8766 105.887C100.019 105.975 100.131 106.089 100.213 106.232C100.29 106.379 100.332 106.553 100.332 106.755ZM99.6428 106.709C99.6428 106.457 99.5588 106.257 99.3885 106.108C99.2194 105.959 98.9958 105.884 98.7165 105.884C98.5882 105.884 98.4872 105.886 98.4123 105.888C98.3374 105.892 98.2806 105.893 98.242 105.895V107.338C98.242 107.461 98.2783 107.55 98.3498 107.608C98.4214 107.667 98.5644 107.697 98.7767 107.697C99.0582 107.697 99.2727 107.612 99.4203 107.443C99.569 107.273 99.6428 107.028 99.6428 106.709ZM95.907 105.047H95.7163C95.6993 104.98 95.6698 104.902 95.6266 104.81C95.5824 104.719 95.5347 104.632 95.4813 104.55C95.4257 104.465 95.3644 104.391 95.2997 104.327C95.235 104.263 95.1715 104.226 95.109 104.218C95.0523 104.21 94.9807 104.204 94.8933 104.201C94.8059 104.197 94.7253 104.195 94.6516 104.195H94.4904V107.343C94.4904 107.404 94.504 107.46 94.529 107.512C94.5539 107.562 94.6005 107.601 94.6652 107.629C94.6981 107.642 94.7673 107.659 94.874 107.682C94.9796 107.704 95.0625 107.716 95.1226 107.718V107.916H93.2644V107.718C93.3166 107.715 93.395 107.707 93.5028 107.697C93.6084 107.685 93.6821 107.672 93.7219 107.655C93.7832 107.63 93.8274 107.596 93.857 107.55C93.8853 107.505 93.899 107.445 93.899 107.369V104.195H93.7378C93.6799 104.195 93.6095 104.197 93.5244 104.199C93.4404 104.203 93.3586 104.207 93.2814 104.218C93.2201 104.226 93.1566 104.261 93.0907 104.327C93.0249 104.392 92.9647 104.466 92.9091 104.55C92.8535 104.633 92.8047 104.722 92.7627 104.816C92.7195 104.91 92.69 104.986 92.6741 105.047H92.48V103.979H95.9082V105.047H95.907ZM89.8942 108.007C89.6592 108.007 89.4344 107.96 89.2188 107.867C89.0031 107.775 88.8124 107.642 88.6455 107.467C88.4809 107.294 88.3492 107.082 88.2516 106.831C88.1529 106.58 88.1052 106.298 88.1052 105.984C88.1052 105.669 88.1529 105.384 88.2493 105.128C88.3447 104.873 88.4787 104.652 88.6489 104.466C88.8169 104.283 89.0156 104.143 89.246 104.042C89.4753 103.942 89.7205 103.892 89.9804 103.892C90.1746 103.892 90.3505 103.916 90.5083 103.963C90.6661 104.012 90.8148 104.079 90.9567 104.166L91.0702 103.978H91.2927L91.3176 105.381H91.0906C91.0611 105.245 91.0168 105.096 90.9567 104.936C90.8976 104.776 90.8284 104.641 90.7489 104.53C90.6604 104.404 90.5537 104.305 90.4334 104.235C90.3108 104.163 90.1712 104.128 90.0145 104.128C89.8351 104.128 89.6683 104.168 89.5139 104.247C89.3595 104.327 89.2256 104.445 89.1132 104.599C89.0065 104.749 88.9214 104.938 88.8601 105.171C88.7999 105.403 88.7693 105.659 88.7693 105.944C88.7693 106.196 88.801 106.425 88.8646 106.637C88.9282 106.847 89.019 107.03 89.137 107.189C89.2551 107.347 89.3958 107.47 89.557 107.558C89.7194 107.647 89.8999 107.691 90.0996 107.691C90.2495 107.691 90.3868 107.667 90.5128 107.621C90.6388 107.573 90.7489 107.511 90.8398 107.433C90.9328 107.352 91.0134 107.26 91.0838 107.156C91.1542 107.053 91.2121 106.941 91.2563 106.818L91.4641 106.917C91.3052 107.307 91.0952 107.587 90.8318 107.754C90.5684 107.923 90.2563 108.007 89.8942 108.007ZM85.7974 107.235C85.9007 107.067 85.9768 106.876 86.0233 106.664C86.071 106.45 86.0937 106.213 86.0937 105.951C86.0937 105.681 86.0676 105.433 86.0154 105.207C85.962 104.982 85.886 104.789 85.7838 104.63C85.6828 104.473 85.5545 104.35 85.4013 104.262C85.248 104.174 85.0721 104.13 84.8734 104.13C84.6521 104.13 84.4637 104.181 84.3081 104.282C84.1526 104.383 84.0255 104.52 83.9279 104.69C83.8359 104.852 83.7667 105.043 83.7213 105.261C83.6759 105.48 83.6532 105.709 83.6532 105.949C83.6532 106.214 83.6781 106.455 83.7258 106.669C83.7735 106.884 83.8484 107.075 83.9528 107.242C84.0527 107.404 84.1787 107.531 84.3297 107.623C84.4818 107.715 84.6634 107.76 84.8734 107.76C85.071 107.76 85.2503 107.714 85.4092 107.621C85.5681 107.531 85.6976 107.402 85.7974 107.235ZM86.2106 104.446C86.3843 104.626 86.5205 104.845 86.6182 105.102C86.7169 105.357 86.7646 105.641 86.7646 105.952C86.7646 106.264 86.7158 106.549 86.6147 106.803C86.5148 107.059 86.3764 107.276 86.1993 107.456C86.0267 107.633 85.827 107.771 85.5999 107.866C85.3729 107.962 85.13 108.011 84.8734 108.011C84.5999 108.011 84.3467 107.959 84.1152 107.857C83.8836 107.755 83.6838 107.612 83.5181 107.428C83.3512 107.25 83.2207 107.032 83.1253 106.775C83.0311 106.52 82.9823 106.245 82.9823 105.953C82.9823 105.633 83.0322 105.348 83.1321 105.097C83.232 104.846 83.3694 104.63 83.5453 104.447C83.719 104.266 83.9211 104.127 84.1515 104.03C84.3819 103.935 84.6226 103.886 84.8734 103.886C85.1345 103.886 85.3808 103.935 85.6124 104.033C85.8429 104.13 86.0426 104.268 86.2106 104.446ZM81.5759 107.915H79.9413V107.717C79.9855 107.714 80.0502 107.708 80.1342 107.7C80.2182 107.693 80.2761 107.682 80.3079 107.667C80.3635 107.646 80.4044 107.612 80.4305 107.566C80.4555 107.521 80.4691 107.462 80.4691 107.39V105.99H78.6188V107.36C78.6188 107.424 78.629 107.479 78.6506 107.523C78.6722 107.567 78.7142 107.606 78.7777 107.64C78.8095 107.657 78.8651 107.673 78.9457 107.69C79.0263 107.706 79.0899 107.715 79.1364 107.717V107.915H77.503V107.717C77.5472 107.714 77.6119 107.708 77.6959 107.7C77.7799 107.693 77.8378 107.682 77.8696 107.667C77.9241 107.646 77.965 107.612 77.9911 107.566C78.0172 107.521 78.0297 107.462 78.0297 107.39V104.55C78.0297 104.491 78.0172 104.438 77.9933 104.389C77.9684 104.34 77.9275 104.302 77.8685 104.273C77.8185 104.249 77.7572 104.228 77.6869 104.21C77.6153 104.19 77.554 104.18 77.5018 104.177V103.979H79.1353V104.177C79.0831 104.179 79.0195 104.187 78.9446 104.202C78.8697 104.216 78.8141 104.23 78.7766 104.244C78.713 104.266 78.6722 104.304 78.6495 104.355C78.629 104.407 78.6177 104.464 78.6177 104.524V105.744H80.468V104.551C80.468 104.492 80.4555 104.439 80.4316 104.39C80.4067 104.341 80.3658 104.303 80.3068 104.274C80.2568 104.25 80.1967 104.229 80.1251 104.211C80.0536 104.191 79.9923 104.181 79.9401 104.178V103.98H81.5747V104.178C81.5225 104.18 81.4589 104.188 81.384 104.203C81.3091 104.218 81.2535 104.231 81.216 104.245C81.1524 104.268 81.1104 104.305 81.09 104.356C81.0684 104.408 81.0582 104.465 81.0582 104.525V107.362C81.0582 107.427 81.0684 107.481 81.09 107.525C81.1104 107.57 81.1524 107.608 81.216 107.642C81.2478 107.659 81.3034 107.675 81.384 107.692C81.4646 107.708 81.5282 107.717 81.5747 107.719V107.915H81.5759Z" fill="#1B1B1B"/>
<path fill-rule="evenodd" clip-rule="evenodd" d="M49.3866 59.3056C47.7066 52.0475 42.9311 46.0415 30.3242 43.1968C40.688 46.1709 46.626 50.909 46.6305 57.2181C46.534 59.8108 43.5758 60.1888 40.2101 60.2512C43.1615 60.8767 46.1867 61.0299 49.264 60.8404C52.3187 60.6519 55.3473 59.1479 58.5643 59.3851C64.5612 59.8278 69.7692 61.5737 74.5153 61.5918C80.2602 61.6123 85.1096 60.5078 88.851 58.007C82.7121 61.1264 74.891 61.6622 64.2354 57.8493C66.8565 58.4214 69.2811 58.4339 71.1677 56.9037C67.8009 58.2965 63.7257 56.8027 60.3748 55.9059C55.1486 54.5074 51.6762 57.3714 49.3866 59.3056Z" fill="#D5251F"/>
<path fill-rule="evenodd" clip-rule="evenodd" d="M66.0778 5.26039C83.0436 5.26039 96.797 18.4019 96.797 34.6129C96.797 40.25 95.1329 45.5137 92.2496 49.985C88.6455 50.086 85.0085 49.7988 81.4362 50.2881C80.8607 50.3675 80.8936 51.5776 80.3136 51.6207C75.9524 51.9431 71.5026 52.1123 67.1982 51.3404C65.2083 50.9839 63.9267 48.6819 61.9379 48.3243L36.9069 43.8337C35.9034 40.9334 35.3586 37.8344 35.3586 34.6129C35.3586 18.4019 49.1119 5.26039 66.0778 5.26039Z" fill="#D5251F"/>
<path fill-rule="evenodd" clip-rule="evenodd" d="M82.5634 46.3559L82.4942 43.0266C80.8028 41.9346 79.0763 41.2626 77.3145 40.9731C77.94 42.3205 78.7879 43.7769 79.8981 45.3616C75.58 41.5634 71.3936 39.5678 67.4025 40.2364C67.7033 41.3727 68.1029 42.5691 68.6046 43.8257C61.7324 36.6471 56.2032 35.1782 52.7035 42.3353C51.2562 40.4714 50.8634 38.2181 51.0689 35.7424C49.8974 38.217 49.0086 40.8017 48.5478 43.5544C46.0811 43.0107 43.997 43.7667 42.1331 45.2707C46.4784 37.0432 51.3845 30.8056 56.815 26.4331C56.202 27.2765 55.6004 28.1244 55.0192 28.9803C59.3293 28.02 64.0379 28.096 68.877 28.5115C68.6965 28.7453 68.5285 28.9871 68.3696 29.2346C71.5491 29.2596 74.5119 29.6092 77.0534 30.59C76.8559 30.9623 76.68 31.3448 76.5267 31.7376C78.4429 31.817 80.3601 32.0146 82.2762 32.5344L82.2479 31.1768C83.9948 30.2437 85.7418 29.3095 87.4877 28.3764C87.3696 36.8219 89.6047 42.1616 92.5016 46.6272C89.1893 46.5364 85.8758 46.4456 82.5634 46.3559Z" fill="white"/>
<path fill-rule="evenodd" clip-rule="evenodd" d="M91.9919 53.1293C74.0419 54.7821 57.8673 52.7003 43.0049 47.86C59.3918 52.3064 75.7617 53.9557 92.1111 52.6106C92.0714 52.7831 92.0316 52.9557 91.9919 53.1293Z" fill="#D5251F"/>
<path fill-rule="evenodd" clip-rule="evenodd" d="M39.2305 39.763C36.7014 37.9184 33.3732 37.5268 29.5182 38.091C30.558 37.3645 36.6821 37.3327 38.966 38.9968C41.7766 31.4947 48.8565 21.9118 54.32 17.5812C47.911 23.9153 42.5065 31.0202 39.2305 39.763Z" fill="#D5251F"/>
<path fill-rule="evenodd" clip-rule="evenodd" d="M40.5643 36.5415C45.5169 31.5821 50.7942 27.466 56.4064 24.2195C50.8578 29.1449 45.8382 34.5141 43.3068 41.9732C40.6721 40.3851 38.0363 40.9674 35.4005 42.1536C36.2984 41.098 37.2077 40.0718 38.1294 39.0751C38.512 39.2772 38.8786 39.5054 39.2317 39.7619C39.6426 38.6642 40.0876 37.5904 40.5643 36.5415ZM29.6579 38.0115L29.4365 38.0433C37.4688 29.801 45.7235 22.8857 54.2371 17.5336C54.0157 17.7526 53.7967 17.9717 53.5776 18.1919C48.2333 22.7632 41.6518 31.8295 38.966 38.998C36.7684 37.3951 31.0166 37.3645 29.6579 38.0115Z" fill="white"/>
<path fill-rule="evenodd" clip-rule="evenodd" d="M41.7755 45.9314C41.9707 45.5613 42.1671 45.1958 42.3646 44.8337C43.997 43.7758 46.5908 42.8938 48.6692 43.3512C49.6148 37.6937 52.3721 32.7456 55.6696 28.0075C56.1884 27.5455 56.7128 27.1017 57.2429 26.6749C53.4016 31.9567 50.0405 37.4269 48.9757 43.7962C46.509 43.2536 43.6394 44.4262 41.7755 45.9314Z" fill="#D5251F"/>
<path fill-rule="evenodd" clip-rule="evenodd" d="M82.5044 43.7951L82.4885 43.022C83.5657 43.7179 84.6282 44.5829 85.6748 45.6283C82.5294 40.4771 81.9379 36.2941 84.8167 33.4312C83.9676 33.0555 83.1185 32.7615 82.2694 32.5299L82.2637 32.2529C83.3103 32.4993 84.3558 32.8205 85.4024 33.2405C82.3443 35.9944 82.8744 40.6507 86.5239 46.4593L85.8519 46.4411C84.794 45.533 83.6577 44.6135 82.5044 43.7951Z" fill="#D5251F"/>
<path fill-rule="evenodd" clip-rule="evenodd" d="M68.3617 29.2301C68.5399 29.2312 68.7181 29.2335 68.8952 29.238C67.1141 32.01 66.7089 35.6084 67.8962 40.1626C67.7294 40.1808 67.5625 40.2035 67.3957 40.2319C66.1811 35.6425 66.5772 32.0191 68.3617 29.2301Z" fill="#D5251F"/>
<path fill-rule="evenodd" clip-rule="evenodd" d="M76.5199 31.733C76.7095 31.741 76.8979 31.7501 77.0864 31.7603C76.1249 34.2576 76.1204 37.2249 77.9434 41.0889C77.7323 41.0423 77.5211 41.0026 77.3089 40.9674C75.5358 37.1488 75.5573 34.2099 76.5199 31.733Z" fill="#D5251F"/>
<path fill-rule="evenodd" clip-rule="evenodd" d="M62.2625 24.2252C62.4305 25.3308 62.7189 26.4614 63.0923 27.6079C63.6327 26.6783 64.2627 25.9415 64.9903 25.4114C64.1094 24.9313 63.1968 24.5203 62.2625 24.2252ZM53.6059 19.3861C52.2233 20.6665 52.0304 23.3534 51.9793 26.2072C54.7581 23.8018 57.8968 22.2784 62.174 23.5396L62.1751 23.5487C63.2376 23.862 64.3705 24.3489 65.5862 25.0357L65.5942 25.0312C66.298 25.4296 67.0301 25.8939 67.7918 26.4331C67.4763 25.7792 67.2038 25.1481 66.9757 24.5385L66.9722 24.5396C65.6589 21.023 65.8303 18.2476 67.701 16.3224C66.3275 16.3382 65.0346 16.4064 63.8154 16.5244C63.9698 16.3042 64.1355 16.0862 64.3126 15.8706L69.1597 15.7151L68.1471 16.7571C66.1141 18.848 66.6147 21.8732 67.5977 24.4386C70.2698 24.1991 73.7797 25.7554 78.2715 29.4139C77.7152 28.3151 77.251 27.2504 76.8798 26.2208H76.8764C75.991 23.7655 75.6357 21.5077 75.823 19.4542C76.008 19.4077 76.2202 19.3668 76.4564 19.3293C76.2418 21.4282 76.5994 23.7416 77.5132 26.2628C79.9129 26.533 82.5169 27.7407 84.4035 30.0235C81.5111 25.4319 81.7064 21.9436 83.8734 19.1591C79.9901 19.0274 77.1942 19.1012 75.823 19.4451C75.9535 18.016 76.3463 16.6856 77.0069 15.4551C72.7751 15.5902 68.5444 15.7264 64.3126 15.8615C64.1344 16.0772 63.9698 16.2951 63.8154 16.5153C59.5711 16.924 56.2372 17.9263 53.6059 19.3861Z" fill="white"/>
<path fill-rule="evenodd" clip-rule="evenodd" d="M64.9494 15.2928C65.0198 15.4381 65.0936 15.5822 65.1708 15.7275C60.3442 12.8045 57.1226 13.1542 55.5482 16.857C55.0669 15.4971 54.9897 14.0918 55.5936 12.6104C57.3008 10.389 59.822 9.07561 63.3126 8.84744L63.3137 8.84404C63.5498 8.82928 63.7904 8.81793 64.0356 8.81226C63.6224 10.8033 63.8574 12.7478 64.6554 14.6514C64.6838 14.6685 64.9211 15.2769 64.9494 15.2928ZM63.7246 7.59538C66.0187 5.16731 69.2584 4.63039 72.7592 4.61337C71.128 7.74976 71.6048 11.1143 74.4313 14.732C68.6103 10.2437 65.9359 10.6989 65.0936 14.0339L65.0891 14.026C64.3319 12.1598 64.114 10.255 64.5181 8.30598C64.1514 8.31393 63.795 8.33322 63.4476 8.36387C63.5282 8.11414 63.6202 7.8576 63.7246 7.59538Z" fill="white"/>
<path fill-rule="evenodd" clip-rule="evenodd" d="M83.753 50.8659C84.1583 50.8659 84.4863 51.1939 84.4863 51.5992C84.4863 52.0044 84.1583 52.3325 83.753 52.3325C83.3478 52.3325 83.0197 52.0044 83.0197 51.5992C83.0197 51.1939 83.3478 50.8659 83.753 50.8659Z" fill="#D5251F"/>
<path fill-rule="evenodd" clip-rule="evenodd" d="M86.5296 50.8659C86.9349 50.8659 87.2629 51.1939 87.2629 51.5992C87.2629 52.0044 86.9349 52.3325 86.5296 52.3325C86.1244 52.3325 85.7963 52.0044 85.7963 51.5992C85.7952 51.1939 86.1244 50.8659 86.5296 50.8659Z" fill="#D5251F"/>
<path fill-rule="evenodd" clip-rule="evenodd" d="M89.3493 50.8659C89.7546 50.8659 90.0826 51.1939 90.0826 51.5992C90.0826 52.0044 89.7546 52.3325 89.3493 52.3325C88.9441 52.3325 88.616 52.0044 88.616 51.5992C88.616 51.1939 88.9441 50.8659 89.3493 50.8659Z" fill="#D5251F"/>
<path fill-rule="evenodd" clip-rule="evenodd" d="M68.9712 2.97535C68.8407 2.18983 69.0359 1.4361 68.9065 0.650582C72.7081 3.17968 74.7832 0.0455498 76.5324 0.000144133C77.5824 -0.0270993 79.5439 3.81876 81.1831 2.16259C79.5871 4.72347 77.7709 1.39069 76.8741 1.28513C75.8241 1.20453 74.5845 2.6507 73.2655 2.94924C71.9124 3.2546 70.4594 3.2773 68.9712 2.97535Z" fill="#D5251F"/>
<path d="M123.619 82.6533H127.772C128.054 82.6533 128.255 82.6033 128.377 82.5023C128.498 82.4035 128.561 82.2526 128.561 82.046V74.7266H125.91C125.874 76.351 125.65 77.8368 125.243 79.1888C124.836 80.5419 124.294 81.6963 123.619 82.6533ZM122.52 82.6533C123.155 81.811 123.711 80.7065 124.185 79.3386C124.655 77.9708 124.892 76.8493 124.892 75.9752C124.892 75.6438 124.849 75.3963 124.767 75.2351C124.682 75.0739 124.55 74.949 124.372 74.8605C124.25 74.7947 124.049 74.7356 123.774 74.68C123.498 74.6278 123.274 74.5915 123.099 74.5711V73.9331H131.75V74.5711C131.563 74.5835 131.402 74.5971 131.263 74.6164C131.125 74.6357 130.997 74.6596 130.882 74.6857C130.701 74.7356 130.57 74.8367 130.483 74.9888C130.395 75.1398 130.352 75.327 130.352 75.5541V81.7088C130.352 82.0471 130.418 82.2911 130.549 82.4353C130.681 82.5795 130.96 82.6521 131.381 82.6521H132V86.2165H131.306C131.171 85.566 130.944 84.9542 130.623 84.3753C130.301 83.7964 129.956 83.4717 129.584 83.3922H123.985C123.64 83.4513 123.288 83.7736 122.932 84.356C122.574 84.9417 122.334 85.5592 122.203 86.2165H121.512V82.6521H122.52V82.6533ZM117.973 81.8904C118.23 81.4931 118.42 81.0323 118.542 80.5033C118.663 79.9777 118.726 79.392 118.726 78.7404C118.726 78.2671 118.673 77.7801 118.571 77.2874C118.466 76.7902 118.308 76.3634 118.088 75.9956C117.871 75.6245 117.585 75.3214 117.23 75.0909C116.878 74.8605 116.453 74.7424 115.96 74.7424C115.484 74.7424 115.08 74.848 114.747 75.058C114.412 75.2646 114.123 75.5155 113.879 75.805V81.4205C113.938 81.5919 114.03 81.7724 114.161 81.9597C114.293 82.1436 114.44 82.3048 114.602 82.4399C114.799 82.601 115.016 82.7327 115.246 82.8315C115.477 82.9302 115.76 82.979 116.094 82.979C116.453 82.979 116.802 82.8837 117.133 82.6964C117.47 82.5046 117.749 82.2378 117.973 81.8904ZM119.545 75.0603C119.923 75.5109 120.216 76.0331 120.426 76.6257C120.633 77.2205 120.738 77.8981 120.738 78.6644C120.738 79.4136 120.613 80.1015 120.364 80.719C120.111 81.3399 119.781 81.8666 119.37 82.3036C118.94 82.7475 118.46 83.0892 117.933 83.3264C117.408 83.5636 116.848 83.6817 116.26 83.6817C115.688 83.6817 115.218 83.6193 114.853 83.491C114.487 83.3627 114.188 83.2117 113.955 83.0369H113.879V85.8873C113.879 86.1177 113.924 86.3118 114.014 86.4662C114.102 86.6206 114.241 86.733 114.428 86.8011C114.582 86.8601 114.803 86.9157 115.089 86.9713C115.375 87.0236 115.609 87.0565 115.796 87.0599V87.708H110.489V87.0599C110.687 87.0497 110.881 87.0338 111.065 87.0145C111.252 86.9952 111.42 86.9623 111.567 86.9191C111.758 86.8533 111.893 86.742 111.972 86.5808C112.048 86.4197 112.086 86.2324 112.086 86.0121V75.9082C112.086 75.7141 112.037 75.5302 111.942 75.3498C111.847 75.1693 111.722 75.024 111.567 74.9161C111.453 74.8401 111.292 74.781 111.084 74.7379C110.88 74.6948 110.68 74.6687 110.489 74.6562V74.0319L113.724 73.8185L113.859 73.9331V75.0047L113.939 75.0217C114.27 74.6369 114.685 74.3179 115.178 74.058C115.674 73.8014 116.165 73.6732 116.655 73.6732C117.243 73.6732 117.786 73.798 118.276 74.0477C118.769 74.3009 119.19 74.6369 119.545 75.0603ZM107.495 78.6053C107.495 78.1252 107.445 77.6155 107.349 77.0797C107.254 76.5439 107.11 76.0899 106.916 75.7153C106.711 75.318 106.442 74.999 106.106 74.7583C105.771 74.5188 105.364 74.3962 104.884 74.3962C104.391 74.3962 103.967 74.5177 103.618 74.7617C103.266 75.0047 102.983 75.3407 102.763 75.7641C102.559 76.1557 102.415 76.6029 102.333 77.1024C102.248 77.6053 102.208 78.0889 102.208 78.5588C102.208 79.1741 102.257 79.7428 102.356 80.2683C102.455 80.7905 102.616 81.2582 102.833 81.6691C103.049 82.08 103.325 82.4024 103.654 82.6362C103.986 82.8735 104.397 82.9881 104.884 82.9881C105.686 82.9881 106.321 82.5999 106.791 81.8246C107.261 81.0448 107.495 79.9732 107.495 78.6053ZM109.487 78.5849C109.487 79.2524 109.381 79.9096 109.171 80.5544C108.958 81.2025 108.655 81.7485 108.263 82.1981C107.823 82.7111 107.306 83.0926 106.725 83.3457C106.139 83.5954 105.485 83.7203 104.759 83.7203C104.154 83.7203 103.578 83.6056 103.032 83.3786C102.486 83.1516 102.003 82.8167 101.579 82.382C101.162 81.9506 100.83 81.425 100.583 80.8075C100.336 80.1855 100.211 79.4919 100.211 78.72C100.211 77.2375 100.643 76.024 101.507 75.0796C102.372 74.1363 103.502 73.6629 104.903 73.6629C106.231 73.6629 107.33 74.1136 108.192 75.0081C109.057 75.9026 109.487 77.0956 109.487 78.5849ZM91.2121 82.3343V75.0217C91.0475 74.8866 90.8477 74.772 90.6105 74.6766C90.3766 74.5813 90.1167 74.5313 89.834 74.5313C89.4696 74.5313 89.137 74.6108 88.8374 74.772C88.5377 74.9332 88.2789 75.1863 88.0518 75.5348C87.835 75.8731 87.667 76.3078 87.549 76.8402C87.4275 77.3692 87.3685 77.9946 87.3685 78.7109C87.3685 79.4442 87.4275 80.0685 87.549 80.5816C87.667 81.0947 87.835 81.5192 88.0518 81.8541C88.2652 82.1856 88.5218 82.433 88.8283 82.5908C89.1336 82.7452 89.4696 82.8247 89.834 82.8247C90.1428 82.8247 90.4095 82.7793 90.6366 82.6805C90.8613 82.584 91.0543 82.4682 91.2121 82.3343ZM96.8481 78.6349C96.8481 77.9152 96.7924 77.2965 96.6732 76.7778C96.5586 76.2556 96.394 75.8276 96.1738 75.495C95.9502 75.1534 95.6868 74.9093 95.3883 74.7583C95.092 74.6074 94.7537 74.5313 94.3825 74.5313C94.0567 74.5313 93.7945 74.5779 93.5936 74.6664C93.3927 74.7549 93.1986 74.873 93.0056 75.0217V82.3343C93.2065 82.4887 93.3904 82.6101 93.5641 82.6964C93.7389 82.7815 94.0113 82.8247 94.3825 82.8247C94.7446 82.8247 95.0761 82.7452 95.3848 82.5852C95.6936 82.424 95.9536 82.1674 96.1647 81.8155C96.4019 81.4307 96.5756 80.9732 96.6846 80.4477C96.7958 79.9198 96.8481 79.3148 96.8481 78.6349ZM98.8141 78.6349C98.8141 79.4045 98.7029 80.1015 98.4815 80.7258C98.2579 81.3467 97.9616 81.8632 97.5904 82.2741C97.2056 82.7055 96.7652 83.0301 96.2748 83.2538C95.7822 83.474 95.2452 83.5852 94.6606 83.5852C94.3451 83.5852 94.0522 83.5455 93.7764 83.4638C93.5005 83.3854 93.2565 83.2923 93.0533 83.1913H93.0045V85.8873C93.0045 86.1177 93.0499 86.3118 93.1395 86.4662C93.2315 86.6206 93.37 86.733 93.5539 86.8011C93.7082 86.8601 93.9194 86.9157 94.1816 86.9713C94.445 87.0236 94.6584 87.0565 94.8264 87.0599V87.708H89.5196V87.0599C89.7171 87.0497 89.9271 87.0338 90.1439 87.0145C90.3641 86.9952 90.5446 86.9623 90.6933 86.9191C90.8874 86.8533 91.0225 86.742 91.0974 86.5808C91.1769 86.4197 91.2121 86.2324 91.2121 86.0121V83.1913H91.1667C90.9328 83.3003 90.7001 83.3922 90.4629 83.4706C90.2256 83.5466 89.9237 83.5852 89.5559 83.5852C88.994 83.5852 88.4582 83.4762 87.9542 83.2628C87.4479 83.046 87.0075 82.7304 86.6295 82.3127C86.2515 81.895 85.9518 81.3819 85.7316 80.7769C85.5148 80.1684 85.4058 79.4817 85.4058 78.7086C85.4058 77.9719 85.5114 77.2954 85.7214 76.6767C85.9348 76.0615 86.2345 75.5325 86.6193 75.0887C86.978 74.6709 87.4218 74.3452 87.944 74.1159C88.4662 73.8854 89.0031 73.7708 89.5548 73.7708C89.8635 73.7708 90.153 73.8071 90.4231 73.8854C90.6933 73.9615 90.9396 74.0534 91.1667 74.1647H91.2121V71.3404C91.2121 71.1168 91.1689 70.9227 91.0838 70.7615C90.9953 70.6037 90.867 70.4652 90.6922 70.3472C90.5775 70.2711 90.4197 70.2121 90.2154 70.1701C90.0145 70.1304 89.8147 70.1008 89.6138 70.0884V69.464L92.8694 69.2506L93.0045 69.3687V74.1658H93.0533C93.2213 74.0739 93.4642 73.9853 93.7866 73.899C94.1056 73.8139 94.3984 73.7708 94.6618 73.7708C95.2464 73.7708 95.789 73.8763 96.2896 74.0931C96.7924 74.3066 97.2295 74.6255 97.6109 75.0501C97.9889 75.4678 98.2851 75.9775 98.4951 76.5825C98.7097 77.1876 98.8141 77.872 98.8141 78.6349ZM76.3576 82.3343V75.0217C76.193 74.8866 75.9921 74.772 75.756 74.6766C75.5221 74.5813 75.2622 74.5313 74.9795 74.5313C74.614 74.5313 74.2826 74.6108 73.9829 74.772C73.6832 74.9332 73.4244 75.1863 73.1974 75.5348C72.9806 75.8731 72.8125 76.3078 72.6945 76.8402C72.573 77.3692 72.514 77.9946 72.514 78.7109C72.514 79.4442 72.573 80.0685 72.6945 80.5816C72.8125 81.0947 72.9806 81.5192 73.1974 81.8541C73.4108 82.1856 73.6673 82.433 73.9727 82.5908C74.2792 82.7452 74.614 82.8247 74.9784 82.8247C75.2872 82.8247 75.5539 82.7793 75.781 82.6805C76.0057 82.584 76.1998 82.4682 76.3576 82.3343ZM81.9936 78.6349C81.9936 77.9152 81.938 77.2965 81.8188 76.7778C81.7041 76.2556 81.5395 75.8276 81.3193 75.495C81.0957 75.1534 80.8323 74.9093 80.5338 74.7583C80.2375 74.6074 79.8992 74.5313 79.5281 74.5313C79.2023 74.5313 78.94 74.5779 78.7391 74.6664C78.5382 74.7549 78.3441 74.873 78.1511 75.0217V82.3343C78.3521 82.4887 78.5359 82.6101 78.7096 82.6964C78.8844 82.7815 79.1569 82.8247 79.5281 82.8247C79.8902 82.8247 80.2216 82.7452 80.5304 82.5852C80.8391 82.424 81.0991 82.1674 81.3102 81.8155C81.5475 81.4307 81.7212 80.9732 81.8301 80.4477C81.9402 79.9198 81.9936 79.3148 81.9936 78.6349ZM83.9597 78.6349C83.9597 79.4045 83.8473 80.1015 83.6271 80.7258C83.4034 81.3467 83.1072 81.8632 82.736 82.2741C82.3512 82.7055 81.9107 83.0301 81.4203 83.2538C80.9277 83.474 80.3908 83.5852 79.8062 83.5852C79.4906 83.5852 79.1977 83.5455 78.9219 83.4638C78.6461 83.3854 78.402 83.2923 78.1988 83.1913H78.15V85.8873C78.15 86.1177 78.1965 86.3118 78.2851 86.4662C78.377 86.6206 78.5155 86.733 78.6994 86.8011C78.8538 86.8601 79.0649 86.9157 79.3271 86.9713C79.5905 87.0236 79.8039 87.0565 79.9719 87.0599V87.708H74.6651V87.0599C74.8626 87.0497 75.0726 87.0338 75.2894 87.0145C75.5097 86.9952 75.6901 86.9623 75.8388 86.9191C76.033 86.8533 76.168 86.742 76.243 86.5808C76.3224 86.4197 76.3576 86.2324 76.3576 86.0121V83.1913H76.3111C76.0772 83.3003 75.8445 83.3922 75.6073 83.4706C75.37 83.5466 75.0681 83.5852 74.7003 83.5852C74.1384 83.5852 73.6026 83.4762 73.0986 83.2628C72.5923 83.046 72.1519 82.7304 71.7739 82.3127C71.3959 81.895 71.0962 81.3819 70.876 80.7769C70.6592 80.1684 70.5502 79.4817 70.5502 78.7086C70.5502 77.9719 70.6558 77.2954 70.8658 76.6767C71.0792 76.0615 71.3789 75.5325 71.7637 75.0887C72.1224 74.6709 72.5662 74.3452 73.0884 74.1159C73.6117 73.8854 74.1475 73.7708 74.6992 73.7708C75.0079 73.7708 75.2974 73.8071 75.5675 73.8854C75.8377 73.9615 76.084 74.0534 76.3111 74.1647H76.3576V71.3404C76.3576 71.1168 76.3145 70.9227 76.2293 70.7615C76.1408 70.6037 76.0125 70.4652 75.8377 70.3472C75.7231 70.2711 75.5653 70.2121 75.361 70.1701C75.16 70.1304 74.9602 70.1008 74.7593 70.0884V69.464L78.0149 69.2506L78.15 69.3687V74.1658H78.1988C78.3668 74.0739 78.6097 73.9853 78.9321 73.899C79.2511 73.8139 79.5439 73.7708 79.8062 73.7708C80.3908 73.7708 80.9334 73.8763 81.434 74.0931C81.9368 74.3066 82.3738 74.6255 82.7553 75.0501C83.1333 75.4678 83.4295 75.9775 83.6395 76.5825C83.8541 77.1876 83.9597 77.872 83.9597 78.6349ZM66.2174 78.1706C65.6714 78.3318 65.1912 78.4896 64.7803 78.6439C64.3694 78.7983 63.988 78.989 63.6361 79.2229C63.3137 79.4397 63.0606 79.6996 62.8733 79.9993C62.6894 80.2956 62.594 80.6509 62.594 81.0618C62.594 81.5942 62.7359 81.9892 63.0151 82.2389C63.2944 82.4887 63.6497 82.6135 64.0776 82.6135C64.5351 82.6135 64.9358 82.5011 65.2843 82.2821C65.6294 82.0618 65.9222 81.7985 66.1595 81.4965L66.2174 78.1706ZM69.5774 83.2571C69.2743 83.365 69.0121 83.4547 68.7851 83.5239C68.5546 83.5898 68.2981 83.6261 68.0086 83.6261C67.5058 83.6261 67.1073 83.508 66.8088 83.2742C66.5091 83.0369 66.3184 82.6953 66.2367 82.248H66.1777C65.7599 82.7078 65.3127 83.063 64.8325 83.3071C64.3558 83.55 63.7802 83.6715 63.1059 83.6715C62.3919 83.6715 61.8073 83.4547 61.3465 83.0176C60.8856 82.5806 60.6563 82.0085 60.6563 81.3047C60.6563 80.9369 60.7085 80.6111 60.8107 80.3217C60.9163 80.0322 61.0672 79.7723 61.2738 79.5396C61.435 79.3489 61.645 79.1775 61.9084 79.0265C62.1717 78.8755 62.4215 78.754 62.6519 78.6644C62.9414 78.5554 63.5271 78.3522 64.408 78.0559C65.2922 77.7597 65.8882 77.5304 66.197 77.3624V76.4088C66.197 76.3271 66.1811 76.1659 66.1447 75.9287C66.1084 75.6914 66.0335 75.4655 65.9177 75.2544C65.7894 75.0137 65.6089 74.8072 65.3717 74.6323C65.1379 74.4553 64.8064 74.3667 64.375 74.3667C64.0788 74.3667 63.8063 74.4155 63.5532 74.5177C63.3001 74.6164 63.1196 74.722 63.0174 74.8299C63.0174 74.9581 63.0469 75.1454 63.1094 75.3986C63.1718 75.6483 63.2013 75.8787 63.2013 76.0921C63.2013 76.3158 63.0991 76.5201 62.8994 76.7074C62.695 76.8947 62.4158 76.9866 62.0548 76.9866C61.7358 76.9866 61.4986 76.872 61.3476 76.6449C61.1966 76.4179 61.1206 76.1614 61.1206 75.8787C61.1206 75.5825 61.2262 75.2998 61.4328 75.0308C61.6428 74.7617 61.9129 74.5211 62.2478 74.3111C62.5373 74.1306 62.8857 73.9785 63.2967 73.8502C63.7076 73.7254 64.1094 73.6629 64.4999 73.6629C65.0391 73.6629 65.5091 73.7027 65.9132 73.7753C66.3139 73.848 66.676 74.0091 67.0052 74.2521C67.3344 74.4893 67.5807 74.8106 67.7521 75.2192C67.9235 75.6267 68.0086 76.1534 68.0086 76.7937C68.0086 77.7143 67.9984 78.5259 67.9791 79.2365C67.9598 79.9471 67.9496 80.7224 67.9496 81.5647C67.9496 81.8144 67.9927 82.0119 68.0813 82.1595C68.1664 82.307 68.3015 82.4319 68.4786 82.5375C68.5773 82.5931 68.7283 82.626 68.936 82.6328C69.146 82.6396 69.3606 82.643 69.5774 82.643V83.2571ZM56.4188 81.8904C56.6754 81.4931 56.8661 81.0323 56.9875 80.5033C57.109 79.9777 57.1714 79.392 57.1714 78.7404C57.1714 78.2671 57.1192 77.7801 57.0171 77.2874C56.9115 76.7902 56.7537 76.3634 56.5335 75.9956C56.3167 75.6245 56.0306 75.3214 55.6753 75.0909C55.3234 74.8605 54.8989 74.7424 54.4062 74.7424C53.9295 74.7424 53.5254 74.848 53.1928 75.058C52.8579 75.2646 52.5684 75.5155 52.3244 75.805V81.4205C52.3834 81.5919 52.4753 81.7724 52.607 81.9597C52.7387 82.1436 52.8863 82.3048 53.0475 82.4399C53.245 82.601 53.4618 82.7327 53.6922 82.8315C53.9227 82.9302 54.2053 82.979 54.5402 82.979C54.8989 82.979 55.2474 82.8837 55.5788 82.6964C55.916 82.5046 56.1952 82.2378 56.4188 81.8904ZM57.991 75.0603C58.369 75.5109 58.6619 76.0331 58.8719 76.6257C59.0785 77.2205 59.184 77.8981 59.184 78.6644C59.184 79.4136 59.0592 80.1015 58.8094 80.719C58.5563 81.3399 58.2271 81.8666 57.8162 82.3036C57.386 82.7475 56.9058 83.0892 56.3791 83.3264C55.8535 83.5636 55.2939 83.6817 54.7059 83.6817C54.1338 83.6817 53.6638 83.6193 53.2983 83.491C52.9339 83.3627 52.6343 83.2117 52.4004 83.0369H52.3244V85.8873C52.3244 86.1177 52.3709 86.3118 52.4595 86.4662C52.548 86.6206 52.6865 86.733 52.8738 86.8011C53.0282 86.8601 53.2484 86.9157 53.5344 86.9713C53.8205 87.0236 54.0543 87.0565 54.2416 87.0599V87.708H48.9348V87.0599C49.1324 87.0497 49.3265 87.0338 49.5104 87.0145C49.6977 86.9952 49.8657 86.9623 50.0132 86.9191C50.2039 86.8533 50.339 86.742 50.4173 86.5808C50.4934 86.4197 50.532 86.2324 50.532 86.0121V75.9082C50.532 75.7141 50.4832 75.5302 50.3878 75.3498C50.2925 75.1693 50.1676 75.024 50.0132 74.9161C49.8986 74.8401 49.7374 74.781 49.5297 74.7379C49.3253 74.6948 49.1255 74.6687 48.9348 74.6562V74.0319L52.17 73.8185L52.3051 73.9331V75.0047L52.3845 75.0217C52.716 74.6369 53.1303 74.3179 53.6241 74.058C54.1202 73.8014 54.6106 73.6732 55.1009 73.6732C55.6889 73.6732 56.2315 73.798 56.7219 74.0477C57.2146 74.3009 57.6357 74.6369 57.991 75.0603ZM48.4626 73.4722H47.7986C47.7395 73.2384 47.6374 72.966 47.4864 72.647C47.3354 72.3314 47.1674 72.0283 46.9801 71.7457C46.786 71.4494 46.576 71.1929 46.349 70.9692C46.122 70.749 45.9017 70.6208 45.6883 70.5912C45.4908 70.5651 45.2411 70.5458 44.9391 70.5322C44.6361 70.5197 44.3568 70.5129 44.1003 70.5129H43.5418V81.4455C43.5418 81.6589 43.5883 81.853 43.6769 82.0312C43.7654 82.206 43.9232 82.3434 44.1502 82.4387C44.2649 82.4841 44.5055 82.5443 44.8767 82.6226C45.2445 82.6987 45.5305 82.7407 45.7383 82.7475V83.4308H39.2839V82.7475C39.4643 82.7338 39.7379 82.7077 40.1091 82.6714C40.4769 82.6317 40.73 82.5829 40.8719 82.5261C41.0853 82.441 41.2397 82.3218 41.3419 82.164C41.4406 82.0062 41.4894 81.7962 41.4894 81.5329V70.5118H40.931C40.73 70.5118 40.4837 70.5186 40.1886 70.5277C39.8957 70.5379 39.6131 70.5572 39.344 70.5901C39.1306 70.6162 38.9104 70.7411 38.6834 70.9681C38.4563 71.1985 38.2463 71.4551 38.0522 71.7445C37.8581 72.034 37.6901 72.3394 37.5426 72.6651C37.395 72.9909 37.2928 73.2565 37.2338 73.4711H36.5595V69.7626H48.4626V73.4722ZM27.551 82.6533H31.7034C31.986 82.6533 32.187 82.6033 32.3084 82.5023C32.4299 82.4035 32.4923 82.2526 32.4923 82.046V74.7266H29.8417C29.8054 76.351 29.5818 77.8368 29.1743 79.1888C28.7679 80.5419 28.2253 81.6963 27.551 82.6533ZM26.4522 82.6533C27.0868 81.811 27.643 80.7065 28.1163 79.3386C28.5863 77.9708 28.8235 76.8493 28.8235 75.9752C28.8235 75.6438 28.7804 75.3963 28.6987 75.2351C28.6135 75.0739 28.4819 74.949 28.3036 74.8605C28.1822 74.7947 27.9813 74.7356 27.7054 74.68C27.4296 74.6278 27.2059 74.5915 27.0311 74.5711V73.9331H35.6821V74.5711C35.4948 74.5835 35.3336 74.5971 35.1951 74.6164C35.0566 74.6357 34.9283 74.6596 34.8137 74.6857C34.6332 74.7356 34.5015 74.8367 34.4164 74.9888C34.3278 75.1398 34.2847 75.327 34.2847 75.5541V81.7088C34.2847 82.0471 34.3505 82.2911 34.4822 82.4353C34.6139 82.5795 34.8931 82.6521 35.3143 82.6521H35.9329V86.2165H35.2393C35.1043 85.566 34.8772 84.9542 34.556 84.3753C34.2336 83.7964 33.8885 83.4717 33.5173 83.3922H27.9177C27.5726 83.4513 27.2207 83.7736 26.8654 84.356C26.5067 84.9417 26.2672 85.5592 26.1355 86.2165H25.4453V82.6521H26.4522V82.6533ZM24.7007 83.432H20.058V82.7974C20.2055 82.7838 20.3576 82.7713 20.512 82.7577C20.6664 82.7441 20.8015 82.718 20.9161 82.6782C21.0966 82.6226 21.2351 82.5205 21.3305 82.3752C21.4258 82.231 21.4758 82.0437 21.4758 81.8133V74.7243H18.8354C18.8354 76.2897 18.7264 77.6371 18.5062 78.7688C18.2894 79.8994 18.0068 80.82 17.6617 81.534C17.32 82.2344 16.9352 82.7577 16.5038 83.1028C16.0725 83.4513 15.632 83.6261 15.1848 83.6261C14.7205 83.6261 14.3732 83.5046 14.1325 83.264C13.8953 83.021 13.7772 82.7418 13.7772 82.4194C13.7772 82.189 13.8533 81.9722 14.0042 81.7656C14.1552 81.5613 14.3754 81.4568 14.6649 81.4568C14.9351 81.4568 15.178 81.5351 15.3948 81.6907C15.615 81.845 15.825 82.0584 16.0327 82.3354C16.1837 82.1935 16.3687 81.9313 16.5753 81.5499C16.7853 81.1685 16.976 80.6951 17.1475 80.1298C17.3416 79.5214 17.4994 78.8868 17.6208 78.233C17.7423 77.5792 17.8047 76.8254 17.8047 75.9775C17.8047 75.646 17.7616 75.3986 17.6798 75.2374C17.5947 75.0762 17.463 74.9513 17.2814 74.8628C17.1599 74.7969 16.9624 74.7379 16.6866 74.6823C16.4107 74.6301 16.1837 74.5937 16.0123 74.5733V73.9354H24.6632V74.5733C24.4759 74.5858 24.3147 74.5994 24.1763 74.6187C24.0378 74.638 23.9095 74.6619 23.7948 74.688C23.6144 74.7379 23.4827 74.8389 23.3941 74.991C23.309 75.142 23.2659 75.3293 23.2659 75.5563V81.7213C23.2659 81.9449 23.3022 82.1254 23.3805 82.2639C23.4566 82.4024 23.5871 82.5102 23.7756 82.5863C23.9106 82.6521 24.0548 82.6975 24.2126 82.7316C24.3704 82.7645 24.5316 82.7872 24.6996 82.8008V83.432H24.7007ZM9.77925 81.0709C10.138 80.4851 10.4002 79.8245 10.5648 79.0878C10.7294 78.3477 10.8077 77.5224 10.8077 76.612C10.8077 75.6755 10.7191 74.814 10.5353 74.0307C10.3514 73.2452 10.0846 72.5777 9.7293 72.0249C9.37741 71.4789 8.93357 71.0544 8.40119 70.749C7.8688 70.4437 7.25696 70.2916 6.5702 70.2916C5.80057 70.2916 5.14673 70.4698 4.60754 70.8205C4.06835 71.1724 3.62791 71.6458 3.28623 72.2372C2.96726 72.8025 2.72774 73.4643 2.56996 74.2203C2.41218 74.9797 2.33272 75.7754 2.33272 76.6109C2.33272 77.5349 2.41785 78.3704 2.58585 79.1127C2.75045 79.8597 3.01267 80.5203 3.37478 81.0992C3.71986 81.6645 4.15689 82.105 4.68359 82.424C5.20917 82.7429 5.84144 82.9007 6.57134 82.9007C7.2581 82.9007 7.88016 82.7395 8.43184 82.4172C8.98351 82.1004 9.43417 81.6498 9.77925 81.0709ZM11.2163 71.3813C11.818 72.009 12.2913 72.7684 12.6307 73.6595C12.9724 74.5472 13.1404 75.5336 13.1404 76.612C13.1404 77.6972 12.969 78.6837 12.6205 79.5679C12.2754 80.4556 11.7919 81.2082 11.1766 81.8337C10.5784 82.4489 9.88482 82.9257 9.09476 83.2571C8.30583 83.592 7.46356 83.76 6.56907 83.76C5.61895 83.76 4.74149 83.5784 3.93554 83.2242C3.12959 82.8689 2.43942 82.3729 1.8605 81.7349C1.28157 81.114 0.827518 80.3569 0.496057 79.4669C0.166865 78.5792 0 77.6257 0 76.6132C0 75.5019 0.173675 74.512 0.523299 73.6414C0.868382 72.7696 1.34855 72.017 1.95698 71.3824C2.56201 70.7547 3.2624 70.2711 4.06154 69.9363C4.86068 69.6048 5.69841 69.4368 6.5702 69.4368C7.47831 69.4368 8.33308 69.6082 9.13449 69.9465C9.93703 70.287 10.6306 70.7638 11.2163 71.3813Z" fill="#D5251F"/>
</svg>
