<?xml version="1.0" standalone="no"?>
<!DOCTYPE svg PUBLIC "-//W3C//DTD SVG 20010904//EN"
 "http://www.w3.org/TR/2001/REC-SVG-20010904/DTD/svg10.dtd">
<svg version="1.0" xmlns="http://www.w3.org/2000/svg"
 width="1056.000000pt" height="1056.000000pt" viewBox="0 0 1056.000000 1056.000000"
 preserveAspectRatio="xMidYMid meet">
<metadata>
Created by potrace 1.14, written by Peter Selinger 2001-2017
</metadata>
<g transform="translate(0.000000,1056.000000) scale(0.100000,-0.100000)"
fill="#000000" stroke="none">
<path d="M6080 9633 c-8 -3 -54 -25 -101 -48 -108 -55 -185 -77 -252 -74 -51
3 -137 28 -160 47 -7 6 -21 12 -32 14 -18 3 -20 -3 -21 -80 0 -46 3 -85 8 -88
16 -10 95 -17 178 -16 126 1 194 20 304 86 127 77 144 78 232 2 38 -32 83 -65
100 -74 42 -19 94 -9 125 25 21 23 22 25 4 19 -60 -23 -109 -1 -205 91 -105
100 -131 114 -180 96z"/>
<path d="M5626 9263 c-1 -2 -25 -6 -52 -9 -27 -3 -75 -12 -106 -20 -35 -9
-128 -16 -235 -19 -181 -5 -236 -8 -308 -20 -100 -15 -253 -49 -333 -72 -48
-14 -93 -26 -99 -26 -7 0 -13 -3 -13 -7 0 -4 -6 -7 -14 -7 -7 0 -40 -10 -72
-23 -58 -23 -79 -32 -198 -84 -97 -43 -334 -184 -401 -238 -5 -5 -26 -21 -46
-36 -165 -126 -358 -321 -468 -471 -71 -98 -138 -206 -195 -316 -17 -33 -34
-61 -38 -63 -5 -2 -8 -9 -8 -15 0 -7 -19 -55 -41 -107 -23 -52 -42 -99 -43
-105 -3 -13 -46 -156 -53 -175 -3 -8 -7 -24 -9 -35 -1 -11 -5 -31 -8 -45 -12
-49 -35 -176 -41 -230 -4 -30 -8 -59 -8 -64 -1 -4 -26 -31 -56 -60 -197 -186
-424 -416 -411 -417 26 -2 64 0 95 6 84 16 356 -1 376 -22 4 -5 14 -51 24
-103 9 -52 19 -106 21 -120 4 -17 -3 -33 -20 -52 -31 -32 -33 -43 -7 -28 37
19 46 11 70 -70 20 -65 28 -80 45 -82 38 -3 61 -6 71 -9 6 -1 15 -3 20 -4 6
-1 24 -4 40 -8 26 -5 154 -30 220 -42 11 -2 30 -4 42 -4 l23 -1 -21 -36 c-22
-40 -18 -55 8 -32 10 9 33 23 52 33 35 17 35 17 236 -20 17 -3 44 -8 60 -10
17 -3 41 -7 55 -10 14 -3 37 -7 53 -10 46 -8 90 -16 122 -21 17 -3 37 -7 45
-8 8 -2 33 -6 55 -10 22 -4 90 -17 150 -28 61 -11 119 -21 130 -23 19 -3 62
-10 115 -20 14 -3 39 -7 55 -10 17 -3 41 -7 55 -10 14 -3 41 -8 60 -11 19 -3
45 -7 58 -10 42 -8 77 -14 167 -30 50 -9 112 -22 139 -31 47 -14 137 -67 144
-85 2 -4 8 -8 13 -8 5 0 22 -12 38 -27 50 -48 141 -96 205 -110 153 -32 244
-38 551 -38 283 0 487 9 507 21 6 4 19 26 30 50 25 57 35 60 293 70 172 6 234
6 245 -1 5 -3 11 -1 15 5 4 6 11 8 16 4 5 -3 69 -5 142 -4 213 1 194 -5 238
70 21 36 43 70 49 77 5 7 10 15 10 18 0 4 20 48 44 98 41 85 111 261 121 304
2 10 15 59 28 108 13 50 24 92 24 95 1 3 4 21 8 40 25 135 38 283 37 430 0 89
-8 226 -16 280 -17 108 -41 230 -61 300 -8 30 -17 62 -19 71 -20 79 -163 418
-186 439 -3 3 -14 21 -24 40 -30 54 -109 173 -161 241 -123 163 -305 342 -481
474 -75 57 -271 181 -303 192 -9 3 -23 12 -31 19 -8 7 -19 14 -25 15 -19 4
-60 24 -66 32 -3 5 -9 8 -13 7 -3 0 -25 8 -49 18 -35 15 -96 39 -237 90 -23 8
-25 9 -163 43 -75 20 -126 37 -123 43 2 6 11 28 20 49 l17 38 -96 -3 c-53 -1
-97 -4 -99 -5z"/>
<path d="M2580 6141 c0 -3 35 -18 78 -33 145 -50 193 -69 288 -113 52 -25 99
-45 105 -45 5 0 9 -4 9 -10 0 -5 6 -10 13 -10 36 0 314 -195 390 -274 89 -93
187 -229 187 -260 0 -8 3 -16 8 -18 23 -10 72 -212 72 -300 0 -161 -129 -241
-408 -253 -58 -2 -100 -14 -56 -16 10 0 26 -2 34 -4 46 -10 133 -22 230 -31
30 -3 129 -5 220 -5 215 0 261 5 465 52 72 16 141 32 155 36 14 3 30 7 35 9
81 20 287 26 420 11 49 -6 138 -19 160 -24 11 -2 31 -5 45 -7 69 -9 128 -18
160 -26 19 -5 51 -11 70 -14 19 -3 49 -8 65 -11 299 -55 370 -66 428 -68 15 0
27 -3 27 -6 0 -3 92 -6 205 -6 113 0 205 2 205 5 0 3 21 5 48 6 26 0 72 4 102
9 30 4 66 9 80 11 82 11 275 57 327 79 18 8 33 11 33 8 0 -3 6 0 13 6 8 6 17
8 20 4 4 -3 7 -1 7 5 0 7 3 11 8 10 10 -2 86 30 142 61 25 13 57 30 73 38 15
8 27 16 27 19 0 4 -27 -7 -107 -43 -21 -9 -40 -17 -43 -18 -3 -1 -30 -9 -60
-19 -86 -28 -190 -55 -190 -49 0 3 -6 0 -13 -6 -8 -6 -16 -9 -18 -6 -3 2 -21
0 -40 -5 -42 -11 -123 -21 -209 -26 -36 -2 -65 -4 -65 -4 0 -1 -19 -2 -42 -3
-24 -2 -43 2 -43 7 0 5 -5 4 -12 -1 -7 -5 -29 -8 -48 -6 -19 1 -71 4 -115 7
-78 4 -142 11 -195 21 -14 3 -42 7 -64 10 -21 2 -46 7 -55 9 -9 3 -32 8 -51
11 -19 3 -51 10 -70 15 -19 5 -50 12 -69 15 -19 3 -38 8 -43 11 -5 3 -19 7
-31 9 -12 2 -44 10 -72 18 -189 57 -235 73 -235 81 0 3 15 0 33 -5 17 -5 68
-11 112 -13 72 -4 117 1 209 19 28 6 146 62 146 69 0 2 -28 -3 -62 -11 -74
-17 -212 -23 -289 -12 -30 4 -74 11 -99 14 -25 4 -119 27 -210 52 -91 24 -173
46 -183 48 -9 2 -21 6 -25 9 -14 9 -106 18 -197 21 -140 3 -280 -37 -423 -122
-72 -42 -179 -120 -216 -157 -23 -23 -16 -37 -70 132 -91 288 -240 505 -481
702 -40 33 -78 60 -84 60 -6 0 -11 5 -11 10 0 6 -4 10 -9 10 -6 0 -29 13 -53
29 -24 16 -70 43 -102 60 -33 17 -64 35 -70 39 -14 11 -224 98 -256 106 -14 4
-34 11 -45 16 -40 18 -215 68 -215 61z"/>
<path d="M3550 5780 c0 -5 5 -10 11 -10 5 0 7 5 4 10 -3 6 -8 10 -11 10 -2 0
-4 -4 -4 -10z"/>
<path d="M3606 5759 c3 -5 12 -9 21 -9 19 0 9 13 -12 16 -8 1 -13 -2 -9 -7z"/>
<path d="M3650 5751 c0 -6 289 -91 359 -106 9 -2 54 -13 101 -25 47 -12 94
-23 105 -25 11 -3 38 -9 60 -14 22 -5 52 -12 68 -15 15 -3 37 -8 50 -11 12 -3
33 -7 47 -10 69 -14 95 -19 100 -20 3 -1 23 -5 45 -9 22 -4 60 -11 85 -16 25
-5 63 -12 85 -15 22 -3 47 -7 55 -10 8 -2 35 -6 61 -9 25 -3 52 -7 60 -10 7
-3 38 -7 68 -11 30 -3 64 -8 75 -10 12 -3 44 -7 71 -10 67 -7 121 -13 175 -21
25 -3 65 -7 90 -9 25 -2 68 -6 95 -10 176 -21 575 -38 890 -38 322 0 606 12
914 38 39 3 60 16 61 37 0 4 -35 6 -77 3 -43 -2 -78 -5 -78 -5 0 -1 -27 -3
-60 -5 -33 -1 -130 -6 -215 -10 -193 -9 -695 -10 -895 -1 -228 10 -447 24
-515 32 -19 2 -60 6 -90 9 -83 7 -227 23 -280 30 -19 3 -60 7 -90 10 -30 3
-80 10 -110 15 -30 5 -75 12 -100 15 -25 3 -72 11 -105 16 -33 6 -76 13 -95
15 -19 3 -44 6 -55 8 -11 2 -36 7 -55 10 -47 8 -79 14 -112 21 -67 13 -86 16
-142 26 -33 5 -62 12 -65 14 -3 1 -22 6 -41 9 -38 6 -71 13 -110 21 -14 4 -34
8 -45 10 -11 3 -31 7 -45 10 -14 4 -36 8 -49 11 -13 3 -51 12 -85 20 -34 8
-74 17 -89 20 -16 3 -49 11 -73 19 -24 7 -44 10 -44 6z"/>
<path d="M6660 5550 c-32 -32 -25 -66 17 -89 31 -16 78 8 80 41 5 58 -56 89
-97 48z"/>
<path d="M6880 5550 c-25 -25 -20 -59 11 -83 53 -39 111 22 75 78 -20 31 -58
33 -86 5z"/>
<path d="M7107 5552 c-10 -10 -17 -28 -17 -40 0 -25 33 -62 54 -62 24 0 61 37
61 62 0 52 -64 78 -98 40z"/>
<path d="M6078 4090 c-26 -3 -59 -5 -73 -4 -22 1 -25 -3 -23 -28 2 -18 8 -28
19 -28 35 0 80 -23 93 -49 10 -18 14 -65 14 -148 0 -68 -2 -123 -4 -123 -1 0
-15 5 -31 11 -42 16 -112 19 -168 6 -27 -6 -53 -10 -57 -9 -5 1 -8 -2 -8 -8 0
-5 -6 -10 -13 -10 -20 0 -92 -70 -121 -116 -50 -84 -73 -227 -54 -338 18 -97
85 -202 159 -248 65 -41 205 -57 256 -29 12 6 26 11 32 11 6 0 10 -49 10 -126
0 -120 -1 -127 -24 -150 -14 -14 -37 -25 -55 -25 -53 -2 -55 -4 -55 -29 l0
-25 208 -1 c114 0 210 3 213 8 8 13 -5 45 -19 45 -36 1 -97 26 -109 46 -18 26
-24 257 -7 257 5 0 24 -6 42 -13 54 -23 149 -15 222 18 138 63 220 277 181
475 -17 87 -112 230 -153 230 -7 0 -13 5 -13 10 0 6 -8 10 -18 10 -10 0 -22 4
-27 9 -25 25 -159 22 -228 -5 -15 -5 -16 7 -16 118 0 67 0 156 0 195 l-1 73
-62 -3 c-35 -1 -84 -4 -110 -7z m-7 -430 c13 -7 27 -18 31 -23 4 -6 6 -141 6
-299 l0 -289 -37 -17 c-48 -24 -161 -17 -161 9 0 5 -6 9 -13 9 -15 0 -67 77
-67 100 0 9 -3 20 -7 24 -4 4 -9 19 -12 34 -7 42 -6 232 2 274 16 88 75 171
133 187 39 10 95 6 125 -9z m384 -10 c38 -23 84 -104 93 -162 13 -89 7 -261
-11 -316 -29 -88 -76 -144 -122 -147 -5 0 -14 -3 -20 -6 -19 -11 -93 -1 -118
16 l-26 17 0 295 0 295 41 18 c50 22 118 18 163 -10z"/>
<path d="M7327 4094 c-1 -1 -36 -4 -77 -6 -72 -4 -75 -6 -78 -30 -3 -22 1 -26
36 -31 22 -4 48 -17 63 -33 23 -24 24 -33 25 -150 1 -68 -2 -126 -5 -129 -4
-2 -27 3 -51 11 -88 30 -229 -7 -298 -80 -28 -28 -98 -146 -87 -146 2 0 -2
-17 -9 -37 -13 -38 -14 -187 -2 -230 3 -13 8 -31 10 -42 22 -96 127 -202 228
-228 38 -10 155 -5 177 7 12 6 25 9 30 6 4 -3 8 -61 7 -130 -1 -156 -7 -165
-114 -169 -19 -1 -22 -6 -20 -26 l3 -26 211 -1 211 0 -1 24 c-1 14 -8 26 -16
27 -53 8 -102 29 -114 48 -10 15 -14 52 -14 118 0 54 -2 101 -6 107 -3 5 1 15
9 22 11 9 20 9 42 -2 27 -14 123 -16 170 -5 66 16 163 90 178 136 3 11 10 21
15 21 4 0 10 10 14 23 3 12 5 22 4 22 -1 0 4 9 10 20 22 43 32 164 20 255 -4
25 -18 71 -31 102 -27 60 -100 148 -123 148 -8 0 -14 5 -14 10 0 6 -3 9 -7 8
-5 -1 -21 5 -38 12 -42 18 -142 20 -195 4 -25 -8 -46 -14 -47 -14 -1 0 -1 42
-1 93 0 50 -3 100 -7 110 -4 9 -3 17 1 17 10 0 10 143 0 159 -5 8 -101 13
-109 5z m-68 -434 c17 -7 32 -15 33 -19 0 -3 2 -136 3 -296 l2 -290 -34 -21
c-25 -16 -45 -20 -85 -17 -131 9 -191 122 -184 348 3 93 8 133 25 177 44 115
137 161 240 118z m380 -7 c72 -47 102 -130 106 -299 4 -157 -41 -281 -117
-320 -42 -22 -108 -24 -148 -5 -35 16 -35 17 -38 86 -1 39 -3 75 -3 80 0 6 0
21 1 35 1 25 2 152 1 180 -1 33 0 128 2 180 2 52 4 56 37 72 42 20 121 16 159
-9z"/>
<path d="M406 4069 c-90 -23 -163 -61 -223 -118 -49 -46 -120 -131 -109 -131
3 0 -3 -15 -14 -32 -11 -18 -20 -41 -20 -50 0 -10 -4 -18 -8 -18 -5 0 -9 -6
-9 -12 0 -7 -4 -26 -8 -43 -16 -66 -14 -242 4 -313 43 -166 139 -291 274 -357
87 -42 135 -53 232 -53 97 0 145 11 230 53 122 59 210 161 260 300 27 72 30
92 30 205 0 69 -3 136 -6 150 -22 86 -32 113 -57 158 -43 81 -97 144 -157 184
-42 28 -129 70 -155 74 -8 2 -31 6 -50 10 -62 13 -145 10 -214 -7z m244 -80
c26 -11 63 -37 83 -57 39 -41 90 -126 80 -136 -4 -3 0 -6 7 -6 7 0 11 -3 7 -6
-3 -3 -1 -18 5 -33 19 -49 34 -171 32 -256 -1 -41 -14 -166 -19 -185 -1 -3 -5
-18 -10 -33 -28 -102 -101 -199 -177 -238 -37 -19 -158 -42 -158 -30 0 4 -15
7 -32 7 -106 2 -226 135 -257 284 -6 30 -14 66 -16 80 -6 25 -6 202 -1 250 5
49 18 115 25 125 4 6 13 28 19 50 16 54 73 129 123 162 81 53 196 62 289 22z"/>
<path d="M3127 4064 c-3 -4 -50 -6 -104 -5 l-98 2 0 -148 0 -148 25 -1 c22 -2
29 7 57 65 18 38 52 89 75 115 39 42 48 47 94 50 28 2 56 6 62 10 6 3 13 3 16
-2 3 -5 18 -7 34 -4 l30 4 0 -461 0 -461 -23 -22 c-12 -12 -31 -23 -41 -24
-11 -2 -39 -6 -64 -9 -53 -7 -54 -8 -47 -37 l6 -23 253 0 253 0 3 26 c3 25 0
27 -62 39 -36 7 -76 21 -88 32 l-23 20 0 456 0 457 70 0 c97 1 118 -4 147 -28
42 -38 108 -144 108 -174 0 -17 44 -35 65 -27 8 4 12 11 8 17 -4 6 -7 70 -7
142 l-1 130 -225 2 c-124 1 -229 3 -235 4 -5 1 -14 1 -20 -1 -22 -4 -246 -1
-253 4 -5 3 -12 3 -15 0z"/>
<path d="M4360 3743 c-32 -9 -140 -66 -140 -74 0 -5 -9 -13 -19 -19 -18 -9
-19 -7 -16 35 3 45 -4 52 -46 47 -4 -1 -53 -4 -109 -6 -57 -3 -105 -7 -107 -9
-7 -8 -12 -47 -5 -48 69 -7 110 -35 119 -79 5 -26 8 -763 4 -851 -2 -28 -26
-50 -61 -56 -19 -3 -42 -6 -50 -8 -8 -1 -15 -12 -15 -26 l0 -24 213 -1 213 -1
-3 26 c-2 14 -7 26 -13 27 -85 8 -122 28 -133 70 -6 23 -8 187 -3 240 1 6 22
0 52 -14 42 -21 65 -25 128 -25 76 1 151 22 179 50 7 7 17 13 22 13 9 0 50 40
84 80 25 31 65 123 73 168 12 72 9 149 -11 231 -21 91 -108 195 -193 233 -42
19 -130 30 -163 21z m53 -94 c20 -5 53 -25 72 -44 42 -43 59 -78 82 -175 8
-35 3 -182 -8 -227 -23 -91 -71 -163 -126 -184 -85 -33 -176 -7 -222 66 l-26
41 2 210 c0 115 1 219 2 231 1 23 67 76 106 86 35 8 79 7 118 -4z"/>
<path d="M5095 3740 c-62 -13 -107 -35 -154 -77 -36 -32 -44 -45 -48 -85 -5
-40 -2 -50 20 -72 14 -14 37 -26 50 -26 34 0 87 29 88 48 3 32 2 57 -3 89 -8
43 17 63 85 70 100 9 156 -50 162 -173 l2 -63 -41 -17 c-22 -9 -86 -32 -141
-50 -203 -70 -255 -116 -261 -235 -6 -135 94 -219 236 -198 25 4 52 9 60 12 8
3 25 8 38 12 12 4 22 11 22 16 0 5 5 9 11 9 5 0 24 13 41 29 l31 29 16 -31 c9
-17 32 -42 51 -55 30 -21 43 -23 95 -19 79 7 117 24 113 51 -2 17 -11 22 -44
24 -29 2 -49 11 -65 28 -22 23 -23 32 -21 142 0 64 2 162 2 217 2 133 -6 181
-38 234 -37 60 -96 90 -194 95 -40 2 -91 0 -113 -4z m200 -491 l-2 -131 -36
-33 c-42 -39 -64 -47 -130 -51 -42 -2 -52 2 -82 31 -31 29 -35 38 -35 84 0 98
52 153 195 207 97 37 92 43 90 -107z"/>
<path d="M8277 3730 c-88 -27 -152 -78 -202 -159 -80 -129 -77 -326 6 -461 32
-52 103 -120 126 -120 7 0 13 -4 13 -10 0 -5 8 -10 18 -10 10 0 22 -3 26 -7
10 -10 32 -14 106 -17 155 -7 277 64 341 199 36 76 48 141 44 230 -4 92 -11
120 -42 180 -43 85 -124 154 -207 176 -69 19 -167 18 -229 -1z m195 -63 c77
-42 119 -142 123 -294 2 -50 -1 -111 -6 -135 -5 -23 -11 -52 -13 -64 -6 -41
-57 -119 -92 -142 -42 -27 -110 -36 -157 -20 -70 25 -127 120 -142 238 -7 49
-10 156 -5 163 1 1 3 18 4 37 3 51 25 109 59 158 52 77 150 101 229 59z"/>
<path d="M9264 3733 c-21 -7 -43 -15 -49 -16 -11 -2 -20 -9 -65 -47 l-35 -29
-3 44 c-2 26 -8 45 -15 46 -12 1 -58 -1 -157 -6 -30 -2 -65 -4 -78 -4 -19 -1
-23 -6 -20 -28 2 -18 10 -27 24 -29 44 -7 74 -24 87 -51 11 -23 14 -109 13
-461 l-1 -434 -24 -19 c-19 -16 -62 -25 -93 -20 -5 0 -8 -12 -8 -27 l0 -29
210 0 c116 1 210 3 211 6 0 3 2 14 4 23 3 18 -8 24 -65 33 -19 3 -46 14 -60
24 -24 18 -25 22 -28 156 l-3 138 23 -15 c13 -8 40 -21 61 -27 44 -15 156 -21
163 -9 3 5 9 6 14 3 17 -10 120 46 164 88 88 85 128 194 122 328 -3 46 -9 100
-15 119 -55 180 -233 295 -377 243z m61 -80 c52 -8 125 -80 145 -143 22 -73
23 -80 23 -180 1 -156 -45 -263 -132 -307 -76 -39 -161 -18 -220 54 l-31 38 0
230 0 231 28 27 c51 49 105 64 187 50z"/>
<path d="M1285 3712 c-11 -29 -5 -42 20 -42 34 0 86 -22 105 -45 11 -13 14
-40 12 -103 -1 -48 -4 -93 -7 -102 -2 -8 -7 -35 -10 -59 -3 -24 -8 -48 -11
-52 -3 -5 -12 -34 -20 -65 -15 -59 -73 -184 -85 -184 -3 0 -21 13 -40 29 -42
37 -83 44 -114 20 -43 -35 -41 -94 6 -137 31 -30 124 -25 163 9 127 107 187
286 201 597 2 40 5 75 7 77 3 3 160 8 194 6 7 -1 11 -91 11 -298 0 -297 0
-297 -23 -320 -14 -14 -35 -23 -54 -23 -16 0 -31 -4 -31 -10 -6 -47 -16 -45
179 -45 165 0 183 1 188 17 8 26 -1 35 -41 42 -19 4 -44 16 -54 27 -17 19 -19
39 -17 304 1 272 2 285 21 299 11 9 32 16 47 16 28 0 52 28 40 46 -4 6 -135
10 -344 9 -273 0 -339 -2 -343 -13z"/>
<path d="M2164 3718 c-15 -24 9 -46 62 -57 48 -11 58 -17 69 -44 14 -36 12
-128 -4 -169 -6 -16 -9 -28 -6 -28 2 0 -2 -18 -10 -40 -8 -22 -14 -42 -15 -45
0 -10 -5 -25 -13 -47 -10 -25 -18 -52 -19 -58 0 -5 -23 -51 -39 -80 -5 -8 -14
-26 -19 -39 -22 -51 -51 -76 -93 -81 l-42 -5 0 -140 0 -140 28 -1 c22 -1 29 4
34 25 3 14 9 31 14 36 4 6 8 15 8 20 2 23 13 45 22 45 5 0 9 6 9 14 0 8 15 30
34 49 l34 36 233 0 c132 0 241 -5 251 -10 31 -17 76 -87 98 -155 20 -60 24
-65 48 -62 l26 3 1 133 c0 73 -2 137 -5 142 -3 5 -28 10 -55 12 -40 2 -52 7
-61 26 -8 16 -11 108 -10 297 1 253 2 274 20 294 11 12 31 21 45 21 14 0 31 4
36 8 10 6 11 13 6 40 -1 10 -681 10 -687 0z m407 -57 l27 -1 0 -300 c0 -214
-4 -304 -12 -316 -12 -16 -44 -17 -323 -14 l-52 0 49 95 c28 52 51 98 51 102
2 9 3 12 23 78 8 28 18 64 21 80 18 96 27 157 29 210 l2 60 45 5 c24 3 60 4
79 3 19 -1 47 -2 61 -2z"/>
<path d="M9853 3723 c-5 -2 -8 -14 -6 -27 4 -20 13 -25 50 -31 29 -4 55 -16
71 -32 23 -23 24 -29 19 -101 -9 -136 -70 -317 -150 -449 -30 -50 -33 -53 -73
-53 -39 0 -41 -1 -43 -32 -1 -18 -2 -39 -2 -45 0 -7 0 -42 0 -78 0 -65 1 -86
2 -116 0 -10 10 -15 30 -15 27 0 34 7 30 30 -1 4 4 14 10 22 6 8 9 14 5 14 -3
0 3 15 14 33 11 17 25 43 30 57 6 14 25 35 43 47 30 20 43 21 255 22 123 0
234 -4 246 -9 31 -12 84 -93 104 -161 15 -50 19 -56 44 -57 l28 -1 0 145 0
144 -48 0 c-87 0 -85 -9 -83 493 1 124 13 147 77 147 24 0 34 4 31 13 -2 6 -1
19 4 27 7 14 -29 16 -335 16 -188 0 -347 -1 -353 -3z m412 -62 c20 -1 20 -7
20 -301 0 -258 -2 -302 -16 -315 -15 -15 -105 -19 -337 -16 l-43 1 19 28 c51
72 123 257 137 352 4 24 8 47 10 50 2 3 7 44 10 90 9 110 8 104 22 110 10 4
69 4 178 1z"/>
<path d="M9843 2113 c-7 -3 -13 -15 -13 -28 0 -26 -28 -40 -60 -30 -13 4 -20
15 -20 31 0 21 -4 25 -22 22 -17 -2 -22 -9 -20 -23 4 -18 26 -40 35 -33 2 2
10 -2 18 -8 20 -15 91 2 106 25 14 22 -3 52 -24 44z"/>
<path d="M1070 2022 c-34 -5 -87 -46 -105 -82 -24 -46 -21 -121 5 -168 45 -79
145 -101 217 -46 41 31 55 63 59 129 5 105 -75 182 -176 167z m75 -32 c25 -13
49 -71 48 -115 -2 -80 -5 -93 -30 -123 -60 -70 -145 -35 -157 65 -17 141 48
222 139 173z"/>
<path d="M2777 2017 c-44 -11 -106 -77 -108 -116 -1 -14 -2 -39 -3 -54 -1 -16
6 -46 15 -66 42 -95 170 -116 231 -38 20 25 23 47 8 47 -5 0 -10 -6 -10 -13 0
-23 -39 -51 -76 -53 -74 -6 -118 54 -115 156 2 52 43 118 75 121 48 5 79 -16
104 -71 l16 -35 6 50 c6 54 -4 82 -25 65 -6 -5 -14 -7 -17 -5 -14 14 -67 20
-101 12z"/>
<path d="M3875 2020 c-76 -16 -125 -83 -121 -165 3 -61 16 -93 48 -121 63 -54
138 -52 203 4 50 44 62 131 27 203 -31 64 -90 93 -157 79z m62 -25 c36 -11 56
-53 58 -119 1 -34 -2 -76 -7 -94 -9 -35 -58 -72 -86 -67 -10 2 -24 4 -32 4
-30 2 -60 63 -61 126 -1 67 2 80 19 112 13 24 59 53 76 48 6 -2 21 -6 33 -10z"/>
<path d="M4595 2015 c-112 -39 -142 -207 -51 -286 29 -25 42 -29 101 -32 34
-2 45 3 77 35 49 49 49 73 1 27 -44 -41 -81 -47 -123 -23 -88 53 -64 264 31
264 45 0 66 -15 88 -63 22 -47 24 -45 25 31 1 50 -5 64 -19 42 -4 -6 -11 -7
-17 -4 -27 17 -78 20 -113 9z"/>
<path d="M5320 2019 c0 -6 -5 -7 -11 -3 -16 10 -73 -25 -97 -60 -42 -61 -32
-173 20 -221 24 -23 73 -42 98 -40 8 1 26 3 40 4 33 2 87 50 103 92 30 76 -1
178 -64 210 -42 22 -89 31 -89 18z m85 -53 c16 -25 28 -79 25 -121 -3 -59 -4
-65 -13 -65 -4 0 -6 -4 -3 -9 9 -14 -40 -51 -74 -56 -28 -3 -39 2 -65 29 -33
35 -34 38 -35 109 -1 81 17 122 63 142 37 15 81 3 102 -29z"/>
<path d="M9300 2008 c-63 -31 -85 -70 -85 -149 0 -56 4 -71 28 -102 35 -46 60
-59 111 -60 88 -2 150 58 155 149 3 68 -18 117 -66 148 -53 34 -93 38 -143 14z
m87 -10 c15 -7 33 -17 39 -23 19 -19 32 -71 29 -126 -3 -89 -36 -133 -97 -132
-63 1 -93 49 -91 143 2 79 16 113 56 133 17 8 33 16 34 16 1 1 15 -5 30 -11z"/>
<path d="M1381 1996 c23 -20 24 -27 23 -131 -2 -151 -1 -145 -24 -145 -11 0
-20 -4 -20 -9 0 -13 178 -10 206 3 49 23 64 97 28 137 -16 18 -61 31 -114 33
-23 1 -25 5 -28 57 l-3 56 48 0 c44 -1 50 -4 69 -35 19 -29 23 -31 27 -16 3
11 5 30 4 44 l-2 25 -119 1 -119 0 24 -20z m161 -153 c54 -48 -2 -140 -71
-118 -18 6 -21 14 -21 69 0 34 3 65 6 68 9 10 68 -3 86 -19z"/>
<path d="M1733 2006 c2 -6 10 -11 18 -11 11 0 15 -26 17 -133 2 -127 2 -134
-18 -139 -29 -8 -24 -23 8 -23 15 0 36 0 47 0 11 0 66 1 122 2 57 2 103 -1
103 -5 0 -4 8 -4 18 1 9 4 33 6 52 3 27 -5 38 -13 49 -38 16 -37 30 -43 32
-13 1 11 2 30 2 43 1 16 -5 23 -21 25 -24 4 -23 -1 -24 137 0 131 0 135 25
145 29 11 24 13 -50 15 -60 2 -85 -11 -43 -22 19 -5 20 -14 20 -139 l0 -134
-49 0 c-27 0 -52 5 -57 13 -7 10 -10 119 -5 235 1 14 10 26 24 32 25 10 20 11
-60 15 -53 3 -71 -8 -33 -20 19 -6 20 -15 20 -141 l0 -134 -49 0 c-28 0 -53 5
-57 11 -3 6 -6 66 -6 132 1 98 4 124 16 133 25 18 20 20 -44 20 -38 0 -59 -4
-57 -10z"/>
<path d="M2303 2007 c-3 -4 4 -11 16 -14 12 -3 21 -9 22 -14 0 -5 0 -47 0 -94
0 -161 1 -155 -26 -165 -14 -5 -25 -12 -25 -14 0 -3 46 -4 103 -3 56 0 108 -2
114 -6 6 -4 15 -2 18 4 4 5 13 8 21 5 14 -5 16 3 16 54 0 43 -3 44 -23 10 -28
-45 -36 -50 -84 -50 -64 0 -69 8 -66 98 1 42 1 42 33 37 41 -8 48 -12 48 -36
0 -17 19 -29 21 -11 0 4 1 33 3 65 l3 58 -28 -30 c-19 -21 -35 -30 -51 -28
-21 4 -23 10 -26 65 l-3 61 51 -3 c47 -3 79 -22 80 -48 0 -5 5 -8 10 -8 6 0
10 17 10 38 l0 38 -116 0 c-63 0 -118 -4 -121 -9z"/>
<path d="M3019 2015 c-6 0 -3 -85 2 -85 4 0 17 16 29 35 18 29 27 35 48 32
l27 -4 2 -131 c1 -73 -2 -132 -6 -132 -4 0 -16 -7 -27 -15 -17 -13 -12 -14 54
-15 74 0 89 8 50 25 -22 10 -23 15 -23 130 -1 66 1 125 3 132 7 24 56 8 77
-24 27 -44 37 -41 33 10 l-3 42 -132 0 c-73 0 -134 0 -134 0z"/>
<path d="M3390 2009 c0 -5 9 -13 20 -19 18 -10 20 -20 17 -137 -2 -126 -2
-127 -27 -133 -47 -11 -3 -19 92 -17 106 3 128 13 147 69 10 28 8 33 -23 64
-19 19 -42 34 -52 34 -12 0 -7 6 15 18 47 23 58 63 27 99 -21 24 -29 26 -119
28 -53 1 -97 -1 -97 -6z m164 -28 c45 -37 -13 -127 -65 -100 -11 5 -15 21 -13
56 1 26 2 51 3 54 2 11 58 4 75 -10z m17 -150 c23 -28 21 -62 -5 -90 -21 -23
-70 -28 -82 -9 -12 20 -12 112 0 120 22 15 68 4 87 -21z"/>
<path d="M5594 2008 c-5 -7 4 -10 22 -7 17 2 24 -32 24 -106 0 -168 -1 -169
-28 -173 -48 -7 -7 -22 59 -22 44 0 68 4 64 10 -3 6 -15 10 -26 10 -13 0 -19
7 -20 23 -3 90 -4 225 -1 239 6 27 86 18 112 -12 11 -13 20 -29 20 -37 0 -8 4
-12 8 -9 7 4 9 64 3 86 -2 9 -232 6 -237 -2z"/>
<path d="M5934 2009 c-3 -5 6 -11 19 -14 23 -6 23 -8 23 -137 -1 -130 -1 -131
-26 -141 l-25 -10 25 -7 c14 -4 29 -4 33 0 4 4 26 5 48 3 27 -3 39 -1 34 6 -3
6 -12 11 -19 11 -16 0 -22 22 -22 75 l1 40 49 7 c54 7 91 36 99 75 13 70 -26
97 -146 98 -48 1 -90 -2 -93 -6z m169 -28 c4 -4 10 -24 13 -43 8 -45 -23 -81
-64 -76 -25 3 -27 6 -28 63 0 33 1 63 3 68 5 8 64 -1 76 -12z"/>
<path d="M6402 2013 c1 -9 -6 -30 -27 -78 -8 -17 -26 -64 -40 -105 -18 -51
-36 -84 -58 -102 l-31 -28 62 1 c61 1 81 12 42 22 -22 6 -25 23 -10 61 9 24
15 26 64 26 53 0 54 -1 69 -37 16 -41 14 -53 -9 -53 -8 0 -14 -4 -14 -10 0 -5
30 -9 68 -9 l67 1 -27 22 c-16 12 -28 25 -28 29 0 4 -9 29 -21 55 -28 62 -33
75 -59 150 -13 35 -28 62 -36 62 -8 0 -13 -3 -12 -7z m29 -135 l19 -48 -46 0
c-42 0 -45 1 -39 23 15 48 40 98 44 85 2 -7 12 -34 22 -60z"/>
<path d="M6664 2009 c-2 -4 5 -10 16 -14 11 -3 20 -12 21 -18 1 -18 1 -198 0
-229 -1 -17 -7 -28 -15 -28 -8 0 -18 -5 -21 -10 -4 -6 16 -10 55 -9 62 2 86
13 50 24 -17 5 -20 15 -20 65 0 37 4 59 13 62 6 3 39 4 72 4 l60 -1 0 -65 c0
-60 -2 -64 -25 -70 -14 -3 -20 -8 -15 -11 19 -11 123 -10 130 0 3 6 -2 11 -13
11 -27 0 -28 7 -27 145 1 114 2 120 24 131 15 8 18 13 9 16 -20 8 -108 4 -108
-4 0 -5 3 -8 6 -7 13 2 21 -24 23 -72 0 -27 -3 -49 -7 -50 -4 -1 -37 -2 -74
-3 l-68 -2 0 58 c0 32 4 58 8 58 5 0 16 6 25 13 15 10 7 12 -48 13 -37 0 -68
-3 -71 -7z"/>
<path d="M7104 2008 c-3 -4 2 -8 10 -8 26 0 33 -31 30 -150 -2 -139 -1 -130
-18 -130 -8 0 -18 -4 -21 -10 -4 -6 18 -10 59 -10 37 0 66 4 66 10 0 6 -6 10
-14 10 -37 0 -29 28 26 92 13 16 39 48 58 73 19 24 37 40 40 36 4 -8 5 -117 1
-183 -1 -12 -9 -18 -27 -18 -14 0 -23 -4 -20 -8 7 -12 136 -15 136 -4 0 5 -9
12 -20 15 -19 5 -20 14 -20 135 0 122 1 131 20 137 38 12 19 21 -45 20 -65 0
-83 -8 -45 -20 30 -9 24 -30 -20 -77 -22 -24 -40 -46 -40 -49 0 -4 -15 -24
-34 -45 l-33 -37 -1 97 c0 85 2 99 19 109 10 6 19 14 19 18 0 8 -121 6 -126
-3z"/>
<path d="M7537 2003 c3 -7 9 -11 14 -8 13 9 26 -27 23 -65 -2 -36 19 -100 33
-100 4 -1 25 -3 45 -6 24 -4 49 0 68 9 33 17 31 19 34 -48 2 -53 -2 -65 -25
-65 -10 0 -19 -4 -19 -9 0 -5 29 -9 65 -9 36 0 65 5 65 9 0 5 -6 9 -14 9 -21
0 -25 22 -24 152 0 106 2 117 19 121 39 10 17 23 -40 22 -64 -1 -86 -9 -52
-20 12 -3 22 -9 22 -13 5 -26 4 -104 -1 -113 -4 -5 -27 -12 -52 -15 -41 -5
-48 -3 -62 18 -9 14 -15 43 -14 71 0 41 4 48 25 53 38 10 18 18 -51 19 -50 2
-63 -1 -59 -12z"/>
<path d="M7960 2008 c0 -5 10 -12 23 -17 23 -9 29 -43 13 -69 -4 -7 -3 -12 1
-12 10 0 10 -61 -1 -78 -4 -7 -3 -12 1 -12 5 0 8 -18 7 -40 -1 -28 -8 -45 -25
-59 l-24 -20 133 0 132 0 0 29 c0 16 3 35 6 44 11 30 -21 17 -34 -14 -14 -31
-52 -45 -108 -38 -28 3 -29 4 -32 69 -3 64 -2 66 20 64 13 -1 29 -3 36 -4 7 0
17 -13 23 -28 15 -39 26 -14 22 49 -4 63 -7 67 -25 32 -10 -22 -21 -29 -45
-30 l-33 -2 0 64 0 64 50 -3 c47 -4 79 -24 80 -49 0 -5 5 -8 11 -8 6 0 9 16 7
38 l-3 37 -117 1 c-65 0 -118 -3 -118 -8z"/>
<path d="M8330 2011 c0 -4 9 -12 20 -19 18 -11 20 -23 20 -136 0 -117 -1 -124
-22 -139 -22 -15 -20 -16 45 -14 37 0 67 5 67 9 0 4 -7 8 -15 8 -21 0 -35 32
-24 53 6 9 6 17 1 17 -11 0 -9 46 2 57 4 4 38 8 75 8 l67 1 -1 -63 c0 -45 -4
-66 -15 -73 -8 -5 -18 -6 -22 -4 -4 3 -8 0 -8 -5 0 -7 26 -11 65 -11 62 0 87
12 47 22 -17 5 -18 17 -17 134 3 154 1 144 20 144 8 0 15 4 15 8 0 10 -115 10
-125 0 -4 -4 4 -10 17 -13 23 -6 25 -11 23 -58 -1 -29 -3 -54 -4 -57 0 -3 -32
-5 -71 -5 -75 0 -72 -3 -72 62 -1 46 8 63 33 63 12 0 19 3 15 7 -8 9 -136 12
-136 4z"/>
<path d="M8774 2008 c-2 -4 5 -9 16 -13 11 -3 20 -12 21 -18 1 -23 1 -212 0
-234 -1 -16 -7 -23 -22 -23 -11 0 -17 -4 -14 -10 3 -5 33 -9 65 -9 59 1 78 12
41 24 -16 5 -19 16 -20 65 0 33 4 61 10 61 28 4 116 5 127 1 8 -3 12 -25 12
-63 0 -53 -2 -60 -27 -74 -27 -14 -25 -15 44 -13 l73 1 -23 21 c-22 20 -23 29
-22 136 1 121 6 140 32 140 9 0 13 3 9 7 -9 9 -126 12 -126 4 0 -4 9 -12 20
-19 17 -10 20 -21 18 -64 l-3 -52 -65 -1 c-66 -2 -95 8 -83 28 4 6 6 29 6 50
0 31 4 41 18 44 11 3 19 9 19 13 0 9 -120 7 -126 -2z"/>
<path d="M9625 2009 c-3 -3 6 -11 18 -16 21 -10 22 -16 21 -124 -2 -149 -2
-149 -18 -149 -8 0 -17 -4 -20 -9 -3 -4 24 -9 59 -10 62 -2 87 11 45 22 -11 3
-20 9 -20 15 0 12 136 183 146 182 4 0 7 -43 8 -96 1 -91 0 -97 -21 -105 -38
-14 -26 -19 45 -19 66 0 67 1 44 18 -22 17 -23 22 -20 147 2 104 6 130 17 130
8 0 16 5 18 11 2 6 -20 10 -62 10 -65 0 -83 -9 -45 -21 23 -7 26 -27 7 -47 -7
-7 -26 -31 -42 -53 -17 -22 -44 -55 -61 -73 l-31 -34 0 101 c-1 90 1 101 18
106 10 4 19 10 19 13 0 9 -120 10 -125 1z"/>
<path d="M2548 1323 c-16 -2 -28 -9 -28 -14 0 -5 -6 -9 -13 -9 -8 0 -25 -21
-39 -47 -27 -51 -31 -111 -10 -164 10 -25 64 -78 83 -80 5 -1 13 -2 18 -3 5 0
12 -4 16 -7 13 -13 91 15 122 43 71 67 62 201 -18 260 -27 20 -84 29 -131 21z
m82 -23 c35 -15 51 -43 57 -105 8 -72 -2 -115 -33 -149 -23 -24 -32 -28 -66
-23 -26 4 -46 13 -56 29 -25 33 -42 78 -32 78 6 0 6 9 1 23 -12 30 -12 28 2
69 27 77 68 102 127 78z"/>
<path d="M2844 1315 c-1 -5 -4 -25 -7 -42 -5 -41 12 -43 34 -4 14 25 65 48 78
35 3 -3 5 -207 2 -256 -1 -10 -12 -20 -27 -24 -40 -10 -12 -19 53 -17 76 2 73
1 73 15 0 6 -3 8 -6 5 -4 -3 -15 -2 -25 3 -16 9 -17 24 -16 142 l2 133 25 -3
c29 -4 60 -29 60 -49 0 -7 6 -13 13 -13 13 0 17 64 4 76 -11 11 -259 10 -263
-1z"/>
<path d="M3240 1319 c-31 -6 -33 -7 -12 -14 12 -4 22 -12 23 -19 0 -6 1 -64 2
-130 2 -114 1 -119 -20 -129 -39 -17 -17 -23 79 -20 104 3 136 18 150 68 9 35
-10 70 -48 87 -31 14 -31 24 1 32 14 4 23 11 20 16 -3 6 -2 10 2 10 14 0 14
52 1 68 -27 31 -116 45 -198 31z m120 -19 c16 0 29 -20 36 -56 4 -25 -31 -59
-61 -59 -29 0 -30 2 -32 50 -3 61 2 79 23 71 9 -3 24 -6 34 -6z m32 -157 c30
-27 20 -98 -16 -109 -62 -21 -78 -3 -75 82 l2 55 36 -6 c19 -3 43 -13 53 -22z"/>
<path d="M3580 1319 c0 -4 10 -13 22 -21 21 -14 24 -50 19 -244 -1 -15 -9 -24
-27 -28 -15 -4 -24 -9 -21 -13 8 -7 246 -10 259 -2 14 9 15 82 0 87 -6 2 -12
-3 -12 -11 0 -30 -34 -58 -75 -61 -64 -5 -75 6 -75 73 0 50 3 59 20 64 11 3
20 1 20 -4 0 -4 6 -6 13 -3 7 2 19 -7 27 -21 18 -33 23 -26 24 35 2 60 -9 87
-19 47 -4 -15 -11 -28 -16 -28 -19 -3 -24 -5 -34 -11 -24 -15 -36 9 -33 68 3
58 3 59 33 59 49 0 81 -14 95 -43 l14 -27 6 35 c3 19 3 39 -1 43 -8 10 -239
15 -239 6z"/>
<path d="M3963 1322 c-31 -3 -33 -6 -33 -42 0 -21 5 -42 10 -45 6 -3 10 1 10
10 0 25 43 62 71 60 l24 -2 0 -132 c-1 -103 -4 -134 -15 -141 -8 -5 -17 -7
-21 -4 -4 2 -10 0 -14 -6 -3 -5 2 -10 12 -11 125 -7 162 0 109 21 -23 8 -23
11 -24 137 -1 76 3 130 9 134 22 13 58 -4 75 -37 21 -39 29 -36 30 13 1 21 -4
37 -12 40 -16 6 -183 10 -231 5z"/>
<path d="M4384 1312 c-37 -19 -48 -31 -69 -72 -26 -49 -17 -137 18 -183 34
-45 98 -68 144 -52 37 12 95 64 87 77 -3 5 -20 -5 -37 -22 -31 -30 -41 -34
-87 -32 -60 3 -104 104 -82 190 14 52 53 92 90 92 30 0 82 -51 82 -80 0 -13 5
-20 13 -17 7 2 12 21 12 43 1 54 -4 66 -25 59 -10 -3 -21 -2 -24 3 -9 15 -90
11 -122 -6z"/>
<path d="M4650 1283 c0 -50 9 -54 33 -14 11 19 27 30 47 33 l30 5 0 -138 0
-137 -26 -6 c-42 -11 -20 -18 56 -20 43 -1 69 3 67 9 -2 6 -8 10 -13 10 -30 1
-34 19 -34 146 0 96 3 129 13 130 6 1 19 2 27 3 8 0 27 -17 42 -39 27 -39 31
-38 31 10 0 53 7 50 -138 50 l-135 0 0 -42z"/>
<path d="M5041 1322 l-25 -4 23 -17 c21 -16 22 -25 22 -112 1 -161 2 -154 -28
-166 l-28 -11 25 -2 c49 -4 155 -1 180 4 30 7 58 35 60 61 5 48 -1 62 -35 81
l-35 18 26 21 c17 14 27 32 29 57 3 33 0 38 -31 53 -32 15 -130 24 -183 17z
m154 -34 c2 -2 5 -17 8 -34 6 -40 -12 -62 -56 -69 l-37 -6 0 60 c0 38 4 61 13
64 11 3 65 -8 72 -15z m-8 -132 c23 -7 41 -61 30 -90 -11 -29 -52 -47 -81 -37
-24 10 -26 15 -26 69 0 32 2 61 5 64 7 7 44 4 72 -6z"/>
<path d="M5407 1322 c-24 -5 -21 -22 3 -22 20 0 20 -5 18 -137 -2 -102 -6
-138 -15 -139 -37 -4 -38 -4 -26 -12 9 -5 198 -8 249 -3 15 1 23 91 9 91 -6 0
-16 -14 -24 -31 -7 -17 -23 -34 -35 -39 -22 -8 -94 -6 -103 4 -4 4 -7 86 -4
124 1 8 6 10 13 5 7 -4 22 -7 33 -8 11 0 24 -10 30 -23 20 -46 34 0 26 88 -2
17 -18 11 -24 -9 -7 -28 -40 -43 -61 -28 -16 12 -20 36 -17 97 1 26 13 28 93
21 4 -1 15 -14 24 -30 22 -37 34 -31 34 15 0 30 -3 34 -27 35 -16 0 -62 1
-104 2 -42 1 -83 1 -92 -1z"/>
<path d="M5760 1320 c0 -3 9 -13 20 -22 17 -15 19 -30 19 -142 -1 -113 -2
-125 -20 -129 -40 -11 -16 -22 41 -21 65 2 88 11 52 21 -12 3 -22 8 -23 12 0
3 -1 32 -2 63 l-2 57 57 0 c32 0 61 2 67 5 16 11 27 -18 27 -72 -1 -46 -4 -55
-26 -67 -28 -16 -27 -16 53 -18 58 -2 70 5 40 22 -16 8 -18 27 -19 137 -1 116
0 127 17 131 53 14 -6 32 -76 23 l-39 -5 25 -17 c24 -15 28 -38 20 -111 -1 -4
-33 -6 -73 -5 l-72 3 1 38 c2 75 3 77 23 77 11 0 17 5 15 13 -5 12 -125 19
-125 7z"/>
<path d="M6211 1322 c-6 -2 -11 -8 -11 -13 0 -6 4 -8 9 -5 23 14 33 -28 33
-142 1 -123 -4 -147 -28 -138 -8 3 -14 1 -14 -4 0 -11 13 -13 75 -12 68 0 71
2 45 15 -22 11 -25 20 -28 75 l-3 62 31 0 c30 0 85 -1 107 -3 14 0 15 -126 1
-128 -4 -1 -12 -2 -18 -3 -5 0 -10 -5 -10 -11 0 -11 106 -13 123 -3 9 6 9 8 0
8 -31 0 -38 27 -37 141 2 144 0 134 27 147 l22 11 -25 2 c-37 2 -114 -1 -118
-6 -3 -3 7 -9 20 -14 23 -9 25 -15 24 -63 l-1 -53 -38 0 c-20 0 -37 -2 -37 -5
0 -11 -70 2 -71 14 -5 64 12 123 32 110 5 -3 9 0 9 5 0 6 -8 11 -17 12 -10 0
-34 2 -54 3 -20 1 -41 0 -48 -2z"/>
<path d="M6723 1312 c-41 -22 -55 -40 -73 -93 -39 -113 37 -223 149 -220 73 3
141 79 141 159 0 44 -20 103 -43 126 -44 44 -119 56 -174 28z m119 -25 c61
-53 59 -207 -4 -251 -75 -53 -149 19 -142 139 4 73 5 74 33 104 33 35 78 38
113 8z"/>
<path d="M7137 1314 c-38 -21 -67 -51 -67 -68 0 -8 -4 -18 -10 -21 -15 -9 -12
-100 4 -138 20 -48 56 -76 108 -83 56 -8 111 16 132 57 18 37 11 37 -26 -1
-28 -30 -40 -34 -87 -32 -26 1 -80 53 -82 79 -1 10 -3 34 -5 53 -4 39 19 112
42 131 20 17 76 21 95 6 9 -7 24 -29 34 -49 9 -21 21 -38 24 -38 4 0 7 24 7
54 -1 52 -2 55 -26 55 -14 0 -45 2 -70 5 -31 4 -54 1 -73 -10z"/>
<path d="M7398 1282 c-2 -33 0 -42 11 -40 8 2 14 8 14 13 -2 14 25 42 47 48
37 10 41 -5 38 -139 -3 -123 -4 -129 -25 -139 -37 -16 -27 -20 39 -18 93 2 96
3 71 15 -28 14 -35 34 -34 106 1 62 1 80 1 131 0 19 3 38 8 43 15 15 58 -9 80
-44 12 -18 22 -28 23 -23 5 55 2 78 -9 83 -8 3 -69 5 -137 6 l-123 1 -4 -43z"/>
<path d="M7800 1322 l-34 -4 22 -17 c21 -15 23 -25 23 -101 1 -163 1 -167 -21
-173 -11 -3 -20 -9 -20 -14 0 -7 57 -8 172 -4 29 1 73 38 83 71 9 27 -25 93
-50 97 -11 3 -41 7 -67 10 l-48 6 0 49 c0 42 3 51 20 55 12 3 19 10 17 16 -3
11 -40 14 -97 9z m148 -172 c22 -21 27 -46 16 -87 -5 -20 -32 -35 -61 -35 -42
-1 -43 1 -43 72 l0 70 33 0 c20 0 42 -8 55 -20z"/>
<path d="M8168 1322 c-21 -2 -38 -7 -38 -13 0 -5 3 -8 8 -7 4 0 14 -2 22 -6
13 -5 16 -28 15 -131 -1 -118 -5 -140 -26 -140 -5 0 -10 -4 -11 -9 -2 -5 25
-10 60 -10 63 -1 76 5 45 23 -14 7 -18 24 -19 71 l-1 61 31 -3 c17 -2 31 -7
32 -13 3 -62 57 -135 100 -135 13 0 24 -4 24 -9 0 -6 12 -6 30 -1 17 5 30 7
30 4 0 -5 50 26 67 42 41 39 50 148 18 208 -22 41 -80 76 -124 76 -61 0 -123
-50 -139 -112 -7 -28 -13 -33 -40 -35 l-31 -1 2 54 c2 40 8 58 23 69 10 8 17
15 14 15 -15 4 -60 5 -92 2z m307 -26 c60 -39 64 -204 7 -256 -22 -19 -65 -24
-91 -10 -64 34 -74 190 -16 257 20 24 71 28 100 9z"/>
</g>
</svg>
