<svg width="70" height="70" viewBox="0 0 70 70" fill="none" xmlns="http://www.w3.org/2000/svg">
<path d="M55.4598 28.5071C52.4824 28.5071 49.6317 29.4011 47.2252 31.0602C43.9366 25.6272 39.6009 21.1288 35.0256 18.378C37.3881 16.2322 35.7024 12.5341 32.5693 12.6404L34.8046 7.14339C36.0681 3.91583 32.5531 0.670776 29.5059 2.53714C28.9934 1.12811 27.6904 0.116703 26.1255 0.0609541C24.5286 0.00452195 23.0074 1.0203 22.4619 2.53003C19.4075 0.679658 15.9062 3.91473 17.175 7.14325L19.4103 12.6403C16.2713 12.5217 14.5956 16.2418 16.9544 18.3783C15.5792 19.2061 14.2174 20.1983 12.8854 21.3442C11.871 22.2169 13.2331 23.7484 14.222 22.8979C16.0206 21.3508 17.8681 20.1087 19.7168 19.2035C21.9099 19.2035 32.3291 19.236 32.3291 19.236C37.1998 21.6426 42.1186 26.5112 45.6097 32.3519C43.0801 34.6849 41.4301 37.8867 41.0233 41.306C32.4869 39.2363 23.7892 45.7194 23.272 54.3993C17.7073 54.3915 12.0681 54.3272 8.11025 53.0772C-3.59047 49.5314 4.09332 33.9635 10.7001 26.4003C11.5743 25.4046 10.0339 24.0524 9.15978 25.0482C1.47886 33.918 -6.08933 50.6605 7.49305 55.0316C11.4695 56.2873 16.5704 56.4381 23.2644 56.4492C24.9277 74.0019 49.6406 74.6049 52.2072 57.2205C61.1407 59.3707 70.1138 52.2526 69.9989 43.0465C69.9991 35.0295 63.4768 28.5071 55.4598 28.5071ZM19.0738 6.37124C18.6406 5.306 19.3931 4.08854 20.5537 4.04878C21.4849 4.05616 22.2403 4.81587 22.2403 5.74871C22.2403 6.31481 22.6991 6.77351 23.2651 6.77351C23.831 6.77351 24.2899 6.31481 24.2899 5.74871V3.80816C24.2899 1.56877 27.6897 1.65567 27.6897 3.87347V5.74885C27.6897 6.31494 28.1486 6.77364 28.7145 6.77364C29.2805 6.77364 29.7393 6.31494 29.7393 5.74885C29.7393 4.81669 30.4936 4.05739 31.4238 4.04905C32.5824 4.09469 33.3403 5.30299 32.9058 6.37138L30.3567 12.6405H21.6229L19.0738 6.37124ZM19.128 14.69H32.8516C33.5309 14.69 34.0835 15.2427 34.0835 15.9221C34.0835 16.6014 33.5309 17.154 32.8516 17.154C28.277 17.154 23.7026 17.154 19.128 17.154C17.4986 17.0912 17.4918 14.7557 19.128 14.69ZM37.7717 67.9685C30.8849 67.9685 25.282 62.3656 25.282 55.4788C25.9681 38.9092 49.578 38.9143 50.2616 55.4789C50.2615 62.3656 44.6586 67.9685 37.7717 67.9685ZM55.4598 55.5362C54.3888 55.5362 53.3314 55.4015 52.307 55.1351C52.2918 54.4841 52.2336 53.8433 52.1351 53.2159C56.0868 54.5462 60.6623 53.3151 63.4257 50.183C64.3103 49.1966 62.7844 47.8283 61.8998 48.8149C59.3667 51.7125 54.9161 52.5417 51.5203 50.7463C50.6184 48.133 48.991 45.855 46.8801 44.1538C46.1874 39.0401 50.2946 34.3586 55.4598 34.3964C60.9117 34.3301 65.141 39.6181 63.9058 44.9192C63.6269 46.1771 65.6165 46.6737 65.9068 45.3624C67.4342 38.8045 62.2038 32.2652 55.4598 32.3468C49.6645 32.3467 44.9305 36.9781 44.7646 42.7341C44.2045 42.4256 43.6219 42.1529 43.0201 41.9191C43.3307 38.4374 45.0699 35.6286 47.6122 33.3288C55.6642 26.7471 67.9944 32.6275 67.9496 43.0468C67.9495 49.9334 62.3466 55.5362 55.4598 55.5362Z" fill="#D5251F"/>
<path d="M37.7718 44.7789C31.872 44.7789 27.072 49.5788 27.072 55.4788C27.6598 69.6733 47.8859 69.6692 48.4714 55.4786C48.4714 49.5788 43.6715 44.7789 37.7718 44.7789ZM37.7718 64.1287C33.0022 64.1287 29.1216 60.2484 29.1216 55.4786C29.5968 44.0031 45.9485 44.0062 46.4218 55.4786C46.4218 60.2484 42.5415 64.1287 37.7718 64.1287Z" fill="#D5251F"/>
<path d="M52.891 25.2333C53.4571 25.2333 53.9158 24.7746 53.9158 24.2085V13.2771C53.8688 11.9201 51.9127 11.9212 51.8662 13.2771V24.2085C51.8662 24.7746 52.3249 25.2333 52.891 25.2333Z" fill="#D5251F"/>
<path d="M58.0285 25.2333C58.5946 25.2333 59.0533 24.7746 59.0533 24.2085V5.81761C59.0063 4.46064 57.0501 4.46173 57.0037 5.81761V24.2085C57.0037 24.7746 57.4624 25.2333 58.0285 25.2333Z" fill="#D5251F"/>
<path d="M40.0066 36.5306V31.7589C39.9596 30.4019 38.0035 30.403 37.957 31.7589V36.5306C38.004 37.8876 39.9602 37.8865 40.0066 36.5306Z" fill="#D5251F"/>
<path d="M34.6778 36.5307V26.8567C34.6308 25.4997 32.6746 25.5008 32.6282 26.8567V36.5307C32.6752 37.8876 34.6313 37.8866 34.6778 36.5307Z" fill="#D5251F"/>
</svg>
