<svg width="70" height="70" viewBox="0 0 70 70" fill="none" xmlns="http://www.w3.org/2000/svg">
<path d="M51.7708 33.8676C51.772 32.7222 51.2493 31.6397 50.3521 30.9279C51.2983 29.8131 51.5107 28.2502 50.8964 26.9236C50.2816 25.5964 48.952 24.7477 47.4902 24.7489H39.1497L39.4942 23.8374C40.0367 22.4091 40.3136 20.8941 40.3124 19.3666V19.2308C40.3118 18.0693 39.8411 16.9574 39.0067 16.1488C38.173 15.3402 37.0473 14.9035 35.8864 14.9382C33.5365 15.0632 31.7015 17.0154 31.7218 19.3684C31.7218 20.4826 30.156 23.0431 28.8874 24.7507H19.481C18.8889 24.7507 18.4092 25.2304 18.4092 25.8225V47.2759C18.4092 47.868 18.8889 48.3477 19.481 48.3477H45.8119C47.166 48.3483 48.4155 47.6192 49.0812 46.4403C49.7463 45.2609 49.7253 43.8146 49.0249 42.6555C50.1015 42.1735 50.8886 41.2123 51.1494 40.0616C51.4108 38.9108 51.1147 37.7044 50.3515 36.8049C51.2481 36.0937 51.7708 35.0118 51.7708 33.8676ZM20.5528 26.8949H28.3449V46.2041H20.5528V26.8949ZM48.0171 35.4777H47.4896C46.8975 35.4777 46.4178 35.9574 46.4178 36.5495C46.4178 37.1416 46.8975 37.6213 47.4896 37.6213C48.3784 37.6213 49.0991 38.342 49.0991 39.2314C49.0991 40.1202 48.3784 40.8409 47.4896 40.8409H45.8119C45.2198 40.8409 44.7401 41.3212 44.7401 41.9127C44.7401 42.5048 45.2198 42.9845 45.8119 42.9845C46.7007 42.9845 47.4214 43.7052 47.4214 44.5946C47.4214 45.4834 46.7007 46.2041 45.8119 46.2041H30.4885V26.1856C31.3971 24.984 33.8654 21.5186 33.8654 19.369C33.8373 18.1728 34.7542 17.1656 35.9474 17.0806C36.53 17.0627 37.0952 17.2816 37.5139 17.6871C37.9319 18.0926 38.1682 18.6507 38.1682 19.2332V19.369C38.1694 20.637 37.9391 21.8948 37.4893 23.0802L36.5958 25.4457C36.4714 25.7753 36.5162 26.1443 36.7166 26.4344C36.9163 26.7239 37.2459 26.8967 37.5982 26.8973H47.4896C48.3784 26.8973 49.0991 27.618 49.0991 28.5068C49.0991 29.3962 48.3784 30.1169 47.4896 30.1169C46.8975 30.1169 46.4178 30.5966 46.4178 31.1887C46.4178 31.7808 46.8975 32.2605 47.4896 32.2605H48.0171C48.9065 32.2605 49.6272 32.9812 49.6272 33.8706C49.6272 34.76 48.9065 35.4807 48.0171 35.4807V35.4777ZM23.7108 39.9892C22.1701 39.9892 20.9219 41.238 20.9219 42.7781C20.9219 44.3189 22.1701 45.5671 23.7108 45.5671C25.2509 45.5671 26.4998 44.3189 26.4998 42.7781C26.498 41.2386 25.2503 39.991 23.7108 39.9892ZM23.7108 43.4229C23.3544 43.4229 23.0649 43.134 23.0655 42.7775C23.0655 42.4211 23.3544 42.1316 23.7108 42.1322C24.0679 42.1322 24.3568 42.4217 24.3562 42.7781C24.3556 43.1346 24.0667 43.4229 23.7108 43.4229ZM68.3096 32.4483C69.2995 30.8938 69.6254 29.008 69.2151 27.2113C68.8054 25.4152 67.6935 23.8571 66.1277 22.8858C64.5631 21.9097 63.7006 20.1196 63.9129 18.2876C64.13 16.458 63.6055 14.617 62.4566 13.1768C61.3076 11.736 59.6299 10.8149 57.7979 10.6187C55.9647 10.419 54.4115 9.18148 53.8074 7.43921C53.2087 5.69633 51.9377 4.26567 50.2774 3.46601C48.617 2.66694 46.7055 2.56467 44.9698 3.1837C43.2311 3.79796 41.2939 3.35596 39.9942 2.04791C38.6987 0.737461 36.9325 0 35.0897 0C33.247 0 31.4808 0.737461 30.1853 2.04791C28.8856 3.35656 26.9478 3.79855 25.2097 3.1837C23.4734 2.56526 21.563 2.66754 19.9027 3.46661C18.243 4.26627 16.9714 5.69693 16.3727 7.43921C15.7698 9.18208 14.2159 10.4208 12.3827 10.6205C10.5502 10.8167 8.87248 11.7378 7.72412 13.1786C6.57517 14.6194 6.05063 16.4598 6.26714 18.29C6.48007 20.1214 5.6176 21.9115 4.05356 22.8876C2.48773 23.8589 1.37585 25.4164 0.966153 27.2125C0.555854 29.0086 0.881821 30.8938 1.87049 32.4483C2.85676 34.0064 2.85676 35.9933 1.87049 37.5513C0.881222 39.1064 0.555256 40.9922 0.964957 42.7883C1.37526 44.585 2.48713 46.1431 4.05237 47.1144C5.6176 48.0905 6.47947 49.8806 6.26714 51.712C6.05063 53.5422 6.57517 55.3826 7.72412 56.8234C8.87248 58.2642 10.5502 59.1853 12.3827 59.3815C14.2153 59.5807 15.7692 60.8187 16.3727 62.5604C16.9714 64.3033 18.243 65.7339 19.9033 66.5336C21.5636 67.3333 23.4746 67.4349 25.2109 66.8165C26.949 66.2011 28.8868 66.6431 30.1865 67.9523C31.482 69.2627 33.2482 70.0002 35.0909 70.0002C36.9337 70.0002 38.6999 69.2627 39.9954 67.9523C41.2951 66.6437 43.2323 66.2017 44.971 66.8165C46.7067 67.4349 48.6176 67.3327 50.2774 66.533C51.9377 65.7339 53.2087 64.3033 53.8074 62.5604C54.4109 60.8181 55.9647 59.5795 57.7979 59.3797C59.6299 59.1835 61.3076 58.2624 62.4566 56.8216C63.6055 55.3808 64.13 53.5404 63.9129 51.7102C63.7006 49.8788 64.5625 48.0887 66.1271 47.1126C67.6929 46.1413 68.8048 44.5832 69.2151 42.7871C69.6254 40.9904 69.2995 39.1046 68.3096 37.5495C67.3245 35.9921 67.3245 34.0064 68.3096 32.4483ZM66.5015 38.7021C67.1834 39.7739 67.4082 41.0735 67.1254 42.3116C66.843 43.5497 66.0763 44.6233 64.9973 45.2932C62.7269 46.7095 61.4757 49.307 61.7843 51.965C61.9338 53.2264 61.572 54.495 60.7801 55.4878C59.9882 56.4807 58.832 57.1153 57.5695 57.2504C54.9091 57.5411 52.6548 59.3384 51.7798 61.8672C51.3671 63.0682 50.4909 64.0545 49.3467 64.6053C48.2026 65.1562 46.8855 65.2267 45.6893 64.8003C43.1665 63.9073 40.3554 64.5491 38.4696 66.4481C37.5773 67.3512 36.3601 67.8596 35.0897 67.8596C33.82 67.8596 32.6028 67.3512 31.7099 66.4481C29.8252 64.5479 27.013 63.9061 24.4902 64.8003C23.2939 65.2267 21.9769 65.1562 20.8328 64.6053C19.6886 64.0545 18.8124 63.0682 18.4003 61.8672C17.5252 59.3384 15.2704 57.5411 12.6106 57.2504C11.3474 57.1153 10.1913 56.4807 9.39941 55.4878C8.60752 54.495 8.24627 53.2264 8.39579 51.965C8.70441 49.307 7.45378 46.7089 5.18278 45.2932C4.1032 44.6233 3.33703 43.5497 3.05413 42.3116C2.77183 41.0735 2.99671 39.7739 3.67855 38.7021C5.10981 36.4418 5.10981 33.5584 3.67855 31.2975C2.99671 30.2263 2.77183 28.9267 3.05413 27.688C3.33703 26.4499 4.1032 25.3763 5.18278 24.707C7.45318 23.2907 8.70441 20.6932 8.39639 18.0352C8.24686 16.7738 8.60812 15.5052 9.40001 14.5124C10.1919 13.5189 11.348 12.8843 12.6112 12.7492C15.271 12.4591 17.5258 10.6612 18.4009 8.13241C18.813 6.93142 19.6892 5.94574 20.8333 5.39429C21.9775 4.84344 23.2945 4.77346 24.4908 5.19991C27.0136 6.09228 29.8252 5.45111 31.7105 3.55213C32.6034 2.649 33.8206 2.14061 35.0903 2.14061C36.3607 2.14061 37.5779 2.649 38.4702 3.55213C40.356 5.45111 43.1671 6.09228 45.6899 5.19991C46.8861 4.77346 48.2032 4.84344 49.3473 5.39429C50.4915 5.94574 51.3677 6.93142 51.7804 8.13241C52.6554 10.6612 54.9097 12.4591 57.57 12.7492C58.8326 12.8843 59.9888 13.5189 60.7807 14.5124C61.5726 15.5052 61.9344 16.7738 61.7849 18.0352C61.4757 20.6932 62.7269 23.2913 64.9979 24.707C66.0769 25.3763 66.8436 26.4499 67.1259 27.688C67.4089 28.9267 67.184 30.2263 66.5021 31.2975C65.0703 33.5584 65.0703 36.4412 66.5015 38.7021ZM35.0903 8.92729C20.6904 8.92729 9.01782 20.6011 9.01782 35.0004C9.01782 49.3997 20.6916 61.0729 35.0909 61.0729C49.4909 61.0729 61.1635 49.3997 61.1635 34.9998C61.1473 20.607 49.4831 8.94344 35.0903 8.92729ZM35.0903 58.9299C21.8746 58.9293 11.1614 48.2161 11.1614 35.0004C11.1614 21.7847 21.8746 11.0715 35.0903 11.0715C48.306 11.0709 59.0199 21.7841 59.0199 34.9998C59.0049 48.2095 48.3 58.9144 35.0903 58.9293V58.9299Z" fill="#D5251F"/>
</svg>
