<svg width="70" height="71" viewBox="0 0 70 71" fill="none" xmlns="http://www.w3.org/2000/svg">
<path d="M21.384 17.5H36.104C36.84 17.5 37.208 17.6227 37.208 17.868C37.208 18.144 37.1007 18.42 36.886 18.696C34.9847 21.3947 32.6387 26.2553 29.848 33.278C27.088 40.27 25.5547 45.1613 25.248 47.952C25.2173 48.228 25.202 48.9027 25.202 49.976C25.202 50.436 24.4813 51.0187 23.04 51.724C21.6293 52.4293 20.418 52.782 19.406 52.782C18.9767 52.782 18.762 52.598 18.762 52.23C18.762 51.6473 18.8693 51.0187 19.084 50.344C19.82 47.768 21.522 43.582 24.19 37.786C26.8887 31.9593 29.6947 26.608 32.608 21.732H20.694C18.6393 21.732 17.198 22.008 16.37 22.56C16.002 22.8053 15.6647 23.2193 15.358 23.802C15.082 24.354 14.9133 24.8447 14.852 25.274C14.7907 25.734 14.6373 25.964 14.392 25.964C14.1467 25.964 14.024 25.7033 14.024 25.182C14.024 24.5073 14.1313 23.112 14.346 20.996C14.5913 18.8493 14.714 17.7453 14.714 17.684C14.714 17.2547 14.8673 17.04 15.174 17.04C15.2047 17.04 15.2967 17.0553 15.45 17.086C15.6033 17.1167 15.818 17.1627 16.094 17.224C16.37 17.2547 16.7227 17.3007 17.152 17.362C17.5813 17.3927 18.164 17.4233 18.9 17.454C19.636 17.4847 20.464 17.5 21.384 17.5Z" fill="#D4251F"/>
<path d="M31.32 45.08C33.704 44.952 34.632 43.064 34.632 39.4V38.184H37.016V45H38.568V36.904H33.144V39.4C33.144 42.328 32.504 43.512 31.32 43.688V45.08ZM40.4376 40.952C40.4376 43.352 42.1976 45.192 44.7416 45.192C45.8616 45.192 47.0936 44.76 47.8776 44.04L47.2216 42.904C46.5816 43.48 45.7016 43.848 44.8376 43.848C43.3816 43.848 42.1336 42.904 42.0536 41.16H47.9416C47.9736 40.936 48.0056 40.712 48.0056 40.504C48.0056 38.424 46.7896 36.712 44.5016 36.712C42.1976 36.712 40.4376 38.376 40.4376 40.952ZM42.1016 40.04C42.3256 38.696 43.2696 37.912 44.4696 37.912C45.5256 37.912 46.3896 38.648 46.4376 40.04H42.1016ZM51.7301 45H53.2661V38.232H56.0981V36.904H48.9141V38.232H51.7301V45Z" fill="#D4251F"/>
<rect x="1" y="1" width="68" height="68" rx="4" stroke="#D5251F" stroke-width="2"/>
</svg>
