<svg width="70" height="70" viewBox="0 0 70 70" fill="none" xmlns="http://www.w3.org/2000/svg">
<path d="M65.6474 33.7887C60.9395 33.7887 56.5695 31.4505 53.9576 27.5321L53.0205 26.1265L52.0835 27.5321C49.4716 31.4505 45.1016 33.7887 40.3937 33.7887H36.1262V51.8498C36.1262 56.2153 38.0916 60.3184 41.3758 63.0722H18.1056V58.567H32.7473V38.2938H9.09527V47.3041H2.33754V2.25258H51.8943V22.5258H54.1468V0H0.0849609V48.8967L16.513 65.3248H44.8381L53.0205 70L62.5377 64.5623C67.0879 61.9628 69.9149 57.0905 69.9149 51.8498V33.7887H65.6474ZM15.853 61.4796L3.93011 49.5567H15.853V61.4796ZM11.3479 47.3041V40.5464H30.4948V56.3145H18.1056V47.3041H11.3479ZM67.6623 51.8498C67.6623 56.2852 65.2701 60.4063 61.4204 62.607L53.0205 67.4073L44.6207 62.607C40.771 60.4063 38.3788 56.2852 38.3788 51.8498V36.0413H40.3937C45.3269 36.0413 49.9402 33.8281 53.0205 30.0516C56.101 33.8281 60.7142 36.0413 65.6474 36.0413H67.6623V51.8498Z" fill="#D5251F"/>
<path d="M63.1572 45.0515V51.8498C63.1572 54.6723 61.6345 57.2954 59.1848 58.6954L60.3021 60.6506C63.4523 58.8508 65.4098 55.4787 65.4098 51.8498V45.0515H63.1572Z" fill="#D5251F"/>
<path d="M6.84277 4.50513V11.2629H47.3892V4.50513H6.84277ZM45.1366 9.01028H9.09535V6.75771H45.1366V9.01028Z" fill="#D5251F"/>
<path d="M62.3609 38.6238L47.3891 53.5955L43.6802 49.8867L42.0876 51.4792L47.3891 56.7807L63.9534 40.2164L62.3609 38.6238Z" fill="#D5251F"/>
<path d="M28.2423 42.799H13.6006V45.0515H28.2423V42.799Z" fill="#D5251F"/>
<path d="M28.2422 47.3042H20.3582V49.5568H28.2422V47.3042Z" fill="#D5251F"/>
<path d="M28.2422 51.8093H20.3582V54.0619H28.2422V51.8093Z" fill="#D5251F"/>
<path d="M42.884 15.7681H6.84277V18.0206H42.884V15.7681Z" fill="#D5251F"/>
<path d="M42.884 20.2732H6.84277V22.5258H42.884V20.2732Z" fill="#D5251F"/>
<path d="M42.884 24.7783H6.84277V27.0309H42.884V24.7783Z" fill="#D5251F"/>
<path d="M28.2423 29.2836H6.84277V31.5361H28.2423V29.2836Z" fill="#D5251F"/>
<path d="M28.2423 33.7887H6.84277V36.0413H28.2423V33.7887Z" fill="#D5251F"/>
<path d="M47.3893 15.7681H45.1367V18.0206H47.3893V15.7681Z" fill="#D5251F"/>
<path d="M47.3893 20.2732H45.1367V22.5258H47.3893V20.2732Z" fill="#D5251F"/>
<path d="M47.3893 24.7783H45.1367V27.0309H47.3893V24.7783Z" fill="#D5251F"/>
<path d="M32.7474 29.2836H30.4949V31.5361H32.7474V29.2836Z" fill="#D5251F"/>
<path d="M32.7474 33.7887H30.4949V36.0413H32.7474V33.7887Z" fill="#D5251F"/>
</svg>
