<svg width="20" height="20" viewBox="0 0 20 20" fill="none" xmlns="http://www.w3.org/2000/svg">
<g clip-path="url(#clip0)">
<path d="M11.1 10.0076L19.7663 1.34124C20.0714 1.03612 20.0714 0.541427 19.7663 0.236347C19.4612 -0.0687335 18.9665 -0.0687725 18.6614 0.236347L9.99511 8.90274L1.32884 0.236347C1.02372 -0.0687725 0.529032 -0.0687725 0.223955 0.236347C-0.0811229 0.541466 -0.081162 1.03616 0.223955 1.34124L8.89023 10.0076L0.223955 18.674C-0.081162 18.9791 -0.081162 19.4738 0.223955 19.7789C0.376493 19.9314 0.576454 20.0077 0.776415 20.0077C0.976375 20.0077 1.1763 19.9314 1.32887 19.7789L9.99511 11.1125L18.6614 19.7789C18.8139 19.9314 19.0139 20.0077 19.2138 20.0077C19.4138 20.0077 19.6137 19.9314 19.7663 19.7789C20.0714 19.4737 20.0714 18.9791 19.7663 18.674L11.1 10.0076Z"/>
</g>
<defs>
<clipPath id="clip0">
<rect width="20" height="20" fill="white"/>
</clipPath>
</defs>
</svg>
