<svg width="34" height="34" viewBox="0 0 34 34" fill="none" xmlns="http://www.w3.org/2000/svg">
<g clip-path="url(#clip0)">
<path d="M32.5006 7.49994H28.0006V8.99992V10.4999V19.6332C28.0006 22.1145 25.982 24.1332 23.5006 24.1332H14.1857L12.7571 25.1333L10.6142 26.6332L9.31152 27.5451C9.58572 27.9021 10.0156 28.1332 10.5006 28.1332H20.7612L28.0405 33.2288C28.2974 33.4087 28.5984 33.5 28.9008 33.5C29.1377 33.5 29.3755 33.4441 29.5934 33.3306C30.0894 33.0722 30.4006 32.5594 30.4006 32.0001V28.1333H32.5007C33.3291 28.1333 34.0007 27.4618 34.0007 26.6333V8.99992C34.0006 8.17151 33.329 7.49994 32.5006 7.49994Z" fill="#C5C5C5"/>
<path d="M23.5 0.499939H1.49998C0.671633 0.499939 0 1.17144 0 1.99999V19.6332C0 20.4617 0.671633 21.1332 1.49998 21.1332H3.60002V24.9999C3.60002 25.5592 3.9112 26.0721 4.40732 26.3304C4.6252 26.4439 4.863 26.4999 5.09993 26.4999C5.40222 26.4999 5.7033 26.4085 5.96023 26.2287L9.00004 24.1008L10.5 23.0508L12 22.0008L13.2395 21.133H23.5C24.3284 21.133 25 20.4615 25 19.633V10.4999V8.99987V7.49989V1.99999C25 1.17144 24.3284 0.499939 23.5 0.499939ZM17.5 15.5H16.585H7.49999C6.67157 15.5 6 14.8283 6 14C6 13.1715 6.67157 12.5 7.49999 12.5H17.5C18.1007 12.5 18.6177 12.8541 18.857 13.3642C18.9478 13.5575 19 13.7724 19 14C19 14.8283 18.3284 15.5 17.5 15.5ZM17.5 9.49985H7.49999C6.67157 9.49985 6 8.82821 6 7.99986C6 7.17144 6.67157 6.49988 7.49999 6.49988H17.5C18.3284 6.49988 19 7.17151 19 7.99986C19 8.82828 18.3284 9.49985 17.5 9.49985Z" fill="#C5C5C5"/>
</g>
<defs>
<clipPath id="clip0">
<rect width="34" height="34" fill="white"/>
</clipPath>
</defs>
</svg>
